<svg width="250" height="240" viewBox="0 0 250 240" fill="none" xmlns="http://www.w3.org/2000/svg">
<path opacity="0.03" d="M39.2949 240C13.1208 240 -5.87321 214.798 1.66759 189.734C5.93197 175.56 14.4039 161.73 30.5151 153.341C74.6037 130.386 70.7198 136.68 91.5016 98.1063C112.283 59.5323 168.609 50.3816 198.122 77.5533C239.866 115.984 211.787 146.601 238.204 173.017C238.479 173.292 238.75 173.569 239.018 173.847C262.887 198.63 244.925 240 210.518 240H39.2949Z" fill="#292A2E"/>
<path d="M151.024 103.965V83.4044H52.7656V103.965C52.7667 114.716 56.2931 125.17 62.8044 133.725C69.3157 142.28 78.4526 148.464 88.815 151.329C90.336 151.756 91.6757 152.669 92.63 153.928C93.5842 155.187 94.1007 156.723 94.1007 158.303C94.1007 159.883 93.5842 161.419 92.63 162.679C91.6757 163.938 90.336 164.85 88.815 165.277C78.4523 168.142 69.3151 174.326 62.8038 182.882C56.2924 191.437 52.7662 201.892 52.7656 212.643V233.204H151.024V212.643C151.023 201.892 147.497 191.438 140.986 182.883C134.474 174.328 125.337 168.144 114.975 165.279C113.454 164.852 112.114 163.939 111.16 162.68C110.205 161.421 109.689 159.885 109.689 158.305C109.689 156.725 110.205 155.188 111.16 153.929C112.114 152.67 113.454 151.758 114.975 151.331C125.337 148.466 134.474 142.282 140.986 133.727C147.497 125.171 151.023 114.717 151.024 103.966" fill="#367CFF"/>
<path opacity="0.8" d="M151.024 103.965V83.4044H52.7656V103.965C52.7667 114.716 56.2931 125.17 62.8044 133.725C69.3157 142.28 78.4526 148.464 88.815 151.329C90.336 151.756 91.6757 152.669 92.63 153.928C93.5842 155.187 94.1007 156.723 94.1007 158.303C94.1007 159.883 93.5842 161.419 92.63 162.679C91.6757 163.938 90.336 164.85 88.815 165.277C78.4523 168.142 69.3151 174.326 62.8038 182.882C56.2924 191.437 52.7662 201.892 52.7656 212.643V233.204H151.024V212.643C151.023 201.892 147.497 191.438 140.986 182.883C134.474 174.328 125.337 168.144 114.975 165.279C113.454 164.852 112.114 163.939 111.16 162.68C110.205 161.421 109.689 159.885 109.689 158.305C109.689 156.725 110.205 155.188 111.16 153.929C112.114 152.67 113.454 151.758 114.975 151.331C125.337 148.466 134.474 142.282 140.986 133.727C147.497 125.171 151.023 114.717 151.024 103.966" fill="white"/>
<path d="M151.335 233.515H52.4553V212.644C52.4723 201.828 56.0271 191.315 62.5774 182.709C69.1277 174.103 78.3137 167.876 88.7337 164.979C90.1894 164.57 91.4716 163.697 92.3849 162.492C93.2982 161.287 93.7925 159.816 93.7925 158.304C93.7925 156.792 93.2982 155.322 92.3849 154.117C91.4716 152.912 90.1894 152.038 88.7337 151.629C78.3138 148.732 69.1279 142.505 62.5776 133.899C56.0274 125.293 52.4725 114.78 52.4553 103.965V83.094H151.335V103.965C151.318 114.78 147.763 125.293 141.213 133.899C134.663 142.505 125.478 148.732 115.058 151.629C113.602 152.038 112.32 152.912 111.407 154.117C110.493 155.322 109.999 156.792 109.999 158.304C109.999 159.816 110.493 161.287 111.407 162.492C112.32 163.697 113.602 164.57 115.058 164.979C125.478 167.877 134.663 174.104 141.213 182.71C147.763 191.316 151.318 201.828 151.335 212.644V233.515ZM53.0773 232.894H150.714V212.644C150.697 201.964 147.187 191.584 140.72 183.086C134.252 174.588 125.182 168.439 114.893 165.577C113.306 165.133 111.908 164.181 110.912 162.868C109.917 161.555 109.378 159.952 109.378 158.304C109.378 156.656 109.917 155.053 110.912 153.74C111.908 152.427 113.306 151.476 114.893 151.031C125.182 148.17 134.252 142.021 140.72 133.523C147.187 125.025 150.697 114.644 150.714 103.965V83.7147H53.0761V103.965C53.093 114.644 56.6032 125.025 63.0712 133.523C69.5391 142.021 78.6095 148.17 88.8985 151.031C90.4852 151.476 91.8829 152.427 92.8785 153.74C93.8741 155.054 94.413 156.656 94.413 158.304C94.413 159.952 93.8741 161.555 92.8785 162.868C91.8829 164.181 90.4852 165.132 88.8985 165.577C78.6094 168.438 69.5389 174.587 63.071 183.085C56.603 191.583 53.0929 201.964 53.0761 212.644L53.0773 232.894Z" fill="#292A2E"/>
<path d="M156.733 79.6617C156.733 80.6398 156.35 81.5791 155.667 82.2783C154.983 82.9776 154.052 83.3811 153.074 83.4025C153.046 83.4043 153.019 83.4043 152.99 83.4043H50.9666C50.9378 83.4043 50.9111 83.4043 50.8825 83.4025C49.8975 83.3805 48.9609 82.9709 48.276 82.2626C47.5911 81.5544 47.2132 80.6045 47.2242 79.6193C47.2353 78.6341 47.6345 77.6931 48.3351 77.0004C49.0358 76.3077 49.9814 75.9192 50.9666 75.9194H152.989C153.48 75.9192 153.967 76.0159 154.421 76.2039C154.876 76.3919 155.288 76.6675 155.636 77.015C155.984 77.3626 156.259 77.7752 156.448 78.2293C156.636 78.6834 156.733 79.1701 156.733 79.6617V79.6617Z" fill="#292A2E"/>
<path d="M103.631 198.714V154.276C103.593 152.588 104.111 150.934 105.104 149.568C106.097 148.203 107.511 147.201 109.129 146.717C126.515 141.932 142.689 126.336 143.484 108.422C143.526 107.461 142.682 106.828 141.721 106.828H62.0685C61.1063 106.828 60.263 107.461 60.3052 108.422C61.1001 126.336 77.2746 141.932 94.6605 146.717C97.1209 147.397 100.159 150.412 100.159 154.387V198.717C100.159 201.914 98.9553 204.629 96.6951 206.889C94.8287 208.756 66.724 233.204 66.724 233.204H137.066C137.066 233.204 108.702 208.477 107.14 206.914C104.879 204.655 103.631 201.911 103.631 198.714Z" fill="#FAFAFA"/>
<path d="M156.759 235.968C156.76 236.946 156.377 237.885 155.693 238.585C155.009 239.284 154.078 239.687 153.101 239.709C153.072 239.71 153.045 239.71 153.017 239.71H50.9933C50.9648 239.71 50.9381 239.71 50.9095 239.709C49.9245 239.687 48.9879 239.277 48.303 238.569C47.6181 237.861 47.2402 236.911 47.2512 235.926C47.2622 234.94 47.6614 233.999 48.362 233.307C49.0625 232.614 50.0081 232.225 50.9933 232.225H153.017C154.009 232.226 154.961 232.62 155.663 233.322C156.365 234.024 156.759 234.976 156.759 235.968V235.968Z" fill="#292A2E"/>
<path d="M182.085 239.484C206.174 239.484 225.702 219.956 225.702 195.867C225.702 171.777 206.174 152.249 182.085 152.249C157.995 152.249 138.467 171.777 138.467 195.867C138.467 219.956 157.995 239.484 182.085 239.484Z" fill="white"/>
<path d="M194.809 237.818C171.676 244.833 147.149 231.723 140.133 208.59C133.117 185.458 146.228 160.931 169.361 153.916C192.493 146.901 217.021 160.01 224.036 183.143C231.051 206.275 217.941 230.802 194.809 237.818ZM169.489 154.338C146.591 161.283 133.611 185.563 140.556 208.462C147.502 231.36 171.781 244.34 194.68 237.395C217.579 230.449 230.558 206.17 223.613 183.271C216.668 160.373 192.388 147.393 169.489 154.338Z" fill="#292A2E"/>
<path opacity="0.45" d="M182.085 234.268C203.293 234.268 220.486 217.075 220.486 195.867C220.486 174.658 203.293 157.465 182.085 157.465C160.876 157.465 143.683 174.658 143.683 195.867C143.683 217.075 160.876 234.268 182.085 234.268Z" fill="#367CFF"/>
<path d="M182.085 198.176C183.36 198.176 184.394 197.142 184.394 195.867C184.394 194.592 183.36 193.558 182.085 193.558C180.809 193.558 179.776 194.592 179.776 195.867C179.776 197.142 180.809 198.176 182.085 198.176Z" fill="#292A2E"/>
<path d="M210.549 211.264C210.521 211.272 210.492 211.275 210.463 211.272C210.434 211.269 210.406 211.261 210.381 211.247L181.98 196.062C181.945 196.043 181.916 196.015 181.895 195.98C181.874 195.946 181.863 195.907 181.863 195.867L181.854 173.477C181.854 173.419 181.877 173.362 181.919 173.321C181.96 173.279 182.016 173.256 182.075 173.256C182.134 173.256 182.19 173.279 182.232 173.321C182.273 173.362 182.296 173.419 182.296 173.477L182.306 195.734L210.589 210.857C210.628 210.878 210.659 210.909 210.68 210.948C210.701 210.986 210.709 211.03 210.705 211.074C210.701 211.117 210.684 211.159 210.656 211.193C210.628 211.226 210.591 211.251 210.549 211.264V211.264Z" fill="#292A2E"/>
<path d="M66.4411 133.256C66.4411 133.256 65.5348 137.954 61.1354 138.216C56.736 138.478 57.6901 141.983 57.6901 141.983H74.5024V133.583L66.4411 133.256Z" fill="#367CFF"/>
<path d="M76.0333 119.122C76.0333 119.122 77.294 123.738 73.462 125.915C69.63 128.092 72.0343 130.816 72.0343 130.816L87.119 123.395L83.4114 115.858L76.0333 119.122Z" fill="#367CFF"/>
<path d="M74.4372 122.174L63.0703 79.2849C62.2074 74.5469 63.5048 72.4931 65.5062 70.4979C69.0204 66.9927 83.5817 59.5323 83.5817 59.5323L101.051 59.4848C105.683 59.4848 110.238 64.0525 110.238 68.6843C110.238 73.3162 105.529 77.2444 100.896 77.2444L79.3835 79.3926L85.2147 118.663L74.4372 122.174Z" fill="#262626"/>
<path d="M85.2147 118.662L82.9191 103.202L71.2889 110.296L74.4372 122.174L85.2147 118.662Z" fill="#0C0C0C"/>
<path d="M87.8511 68.2116C87.8511 68.2116 80.5074 69.8483 73.2344 77.1212C68.8248 81.5308 69.1864 89.5108 69.8478 104.858L77.0714 94.189L84.9943 79.8998L87.8511 68.2116Z" fill="#0C0C0C"/>
<path d="M113.278 59.4796L101.414 59.4237L101.409 59.5789H97.817C97.817 59.5789 88.8189 67.8593 81.5739 73.0772C76.3042 76.8723 73.0895 80.4905 72.8114 84.4339C72.1332 94.0468 64.4854 135.045 64.4854 135.045L75.9954 136.788L86.0956 87.7919C86.0956 87.7919 101.89 80.5109 105.543 77.977C108.983 75.591 111.413 74.6686 112.552 72.0647C114.518 67.5685 113.278 59.4796 113.278 59.4796Z" fill="#262626"/>
<path d="M99.968 62.4683L80.7219 62.7231L91.518 69.1713L100.503 64.5323C100.719 64.4161 100.891 64.2305 100.989 64.0053C101.088 63.78 101.108 63.5282 101.046 63.2902C100.985 63.0521 100.845 62.8417 100.649 62.6927C100.454 62.5436 100.214 62.4646 99.968 62.4683V62.4683Z" fill="#292A2E"/>
<path opacity="0.2" d="M99.968 62.4683L80.7219 62.7231L91.518 69.1713L100.503 64.5323C100.719 64.4161 100.891 64.2305 100.989 64.0053C101.088 63.78 101.108 63.5282 101.046 63.2902C100.985 63.0521 100.845 62.8417 100.649 62.6927C100.454 62.5436 100.214 62.4646 99.968 62.4683V62.4683Z" fill="white"/>
<path d="M80.8322 27.9407L75.389 45.5793L64.4855 59.8551L70.8549 67.1666L83.8268 52.6883C84.4245 52.2159 84.892 51.5989 85.185 50.8956L85.3874 50.4067L92.8792 32.2784L80.8322 27.9407Z" fill="#367CFF"/>
<path d="M89.2181 9.21707C89.2181 9.21707 87.0246 7.56148 86.4811 3.75058C86.0602 0.799748 88.782 2.71141 88.782 2.71141C88.782 2.71141 88.4999 0.58403 90.0493 0.795092C91.5987 1.00615 92.4675 3.24123 92.4675 3.24123" fill="#0C0C0C"/>
<path d="M98.0619 1.04404C98.0619 1.04404 105.753 1.86873 102.973 12.2908L102.292 12.3365L100.911 12.4296" fill="#0C0C0C"/>
<path d="M90.5062 23.1754C90.5401 23.1711 90.9153 29.3977 98.1488 28.8554C103.157 28.4802 104.942 23.1673 105.057 23.1673C104.517 23.0525 103.85 22.8784 103.584 22.8185C103.006 22.6844 102.483 22.3775 102.084 21.9386C101.685 21.4998 101.428 20.9498 101.35 20.3618C101.203 19.4793 101.452 14.9642 101.375 14.0712L93.6883 15.7867C93.7957 17.6726 94.5474 22.0447 91.9126 22.8185C91.4743 22.946 91.0022 23.0637 90.5062 23.1754Z" fill="#E98862"/>
<path opacity="0.52" d="M93.5812 21.0313C93.7015 20.6432 93.7791 20.2431 93.8124 19.8382C93.897 18.9142 93.8801 17.9837 93.7621 17.0633C95.3245 16.8521 96.7964 16.2069 98.0104 15.201C98.1531 15.7287 98.9381 18.0314 98.7208 18.5324C98.3093 19.4806 96.379 21.0313 93.5812 21.0313Z" fill="#0C0C0C"/>
<path d="M95.1669 19.7987C98.1997 19.5268 101.829 17.6108 101.881 13.4945L101.929 9.78014C101.981 5.66381 99.8615 2.29986 95.9857 2.24989C92.11 2.19992 89.1703 5.50086 89.1181 9.61811L89.097 11.2632C89.1002 11.8279 89.1417 12.3919 89.2212 12.951C89.4202 14.43 89.7281 16.6794 90.7322 18.2006C91.6791 19.6355 93.2295 19.9726 95.1669 19.7987Z" fill="#E98862"/>
<path opacity="0.52" d="M93.7599 16.0362C93.1341 16.0646 92.5104 15.9454 91.9392 15.6883C91.9164 15.6775 91.8987 15.6582 91.8898 15.6346C91.8808 15.611 91.8814 15.5849 91.8913 15.5616C91.9012 15.5384 91.9197 15.5199 91.9429 15.51C91.9661 15.5002 91.9923 15.4996 92.0159 15.5086C93.2469 16.0335 94.3646 15.9565 95.2479 15.2864C95.2657 15.2722 95.2843 15.2591 95.3035 15.2469C95.326 15.234 95.3527 15.2306 95.3778 15.2373C95.4028 15.2441 95.4242 15.2606 95.4371 15.2831C95.45 15.3056 95.4535 15.3323 95.4467 15.3574C95.4399 15.3825 95.4235 15.4038 95.4009 15.4167C95.3938 15.4211 95.3823 15.4301 95.3662 15.4422C94.9019 15.7957 94.3426 16.0026 93.7599 16.0362Z" fill="#0C0C0C"/>
<path opacity="0.52" d="M93.7891 16.9637C93.6761 16.9705 93.5627 16.9678 93.4502 16.9556C93.4243 16.9529 93.4007 16.94 93.3844 16.9199C93.368 16.8997 93.3604 16.8739 93.3631 16.8481C93.3658 16.8223 93.3787 16.7986 93.3988 16.7823C93.419 16.7659 93.4448 16.7583 93.4706 16.761C93.6479 16.7936 93.8301 16.788 94.005 16.7446C94.1799 16.7012 94.3435 16.621 94.485 16.5093C94.5033 16.4909 94.5282 16.4806 94.5541 16.4806C94.58 16.4805 94.6049 16.4908 94.6233 16.5091C94.6416 16.5274 94.6519 16.5523 94.652 16.5782C94.652 16.6042 94.6417 16.629 94.6234 16.6474C94.3902 16.8461 94.0954 16.9578 93.7891 16.9637V16.9637Z" fill="#0C0C0C"/>
<path d="M90.3979 12.0531C90.6615 12.0531 90.8753 11.8393 90.8753 11.5757C90.8753 11.3121 90.6615 11.0983 90.3979 11.0983C90.1343 11.0983 89.9205 11.3121 89.9205 11.5757C89.9205 11.8393 90.1343 12.0531 90.3979 12.0531Z" fill="#0C0C0C"/>
<path d="M95.0623 11.7604C95.326 11.7604 95.5397 11.5467 95.5397 11.283C95.5397 11.0194 95.326 10.8056 95.0623 10.8056C94.7987 10.8056 94.585 11.0194 94.585 11.283C94.585 11.5467 94.7987 11.7604 95.0623 11.7604Z" fill="#0C0C0C"/>
<path d="M101.625 14.7454C102.803 14.7606 103.774 13.5125 103.788 12.3346C103.803 11.1567 102.857 10.4953 101.678 10.48L101.061 11.2631L100.611 14.7342L101.625 14.7454Z" fill="#E98862"/>
<path d="M100.453 12.853C100.453 12.853 100.055 7.02827 98.289 6.66854C97.1127 6.42892 94.2602 8.09631 91.6179 7.59348C90.4621 7.37311 89.3645 7.65929 89.2531 8.20525C89.2087 8.42252 88.4886 5.31464 90.2988 2.95665C91.7399 1.07944 96.4565 0.549301 98.6022 1.1651C104.544 2.86943 101.922 10.7355 101.922 10.7355L101.657 12.7437L100.453 12.853Z" fill="#0C0C0C"/>
<g opacity="0.52">
<path d="M93.0479 14.6616H93.0405C92.6609 14.6579 92.0246 14.6092 92.0274 14.3252C92.0298 14.0899 92.6993 11.5565 92.7757 11.2685C92.7841 11.246 92.8007 11.2274 92.822 11.2164C92.8434 11.2054 92.8681 11.2028 92.8913 11.209C92.9145 11.2152 92.9346 11.2298 92.9477 11.2499C92.9607 11.2701 92.9658 11.2944 92.9619 11.3181C92.6643 12.4402 92.2213 14.1672 92.2195 14.327C92.478 14.44 92.76 14.4885 93.0414 14.4682C93.067 14.4675 93.0918 14.477 93.1105 14.4945C93.1291 14.5121 93.14 14.5364 93.1407 14.562C93.1414 14.5876 93.132 14.6124 93.1144 14.6311C93.0968 14.6497 93.0726 14.6606 93.047 14.6613L93.0479 14.6616Z" fill="#0C0C0C"/>
</g>
<path d="M91.7529 8.98715C91.354 8.87745 90.9329 8.87745 90.534 8.98715C90.338 9.03987 90.1511 9.12169 89.9794 9.22987C89.8098 9.33601 89.6542 9.46302 89.5163 9.60792C89.4907 9.63375 89.4762 9.66844 89.4756 9.70475C89.475 9.74106 89.4885 9.77619 89.5132 9.80281C89.5379 9.82943 89.5719 9.84549 89.6082 9.84763C89.6444 9.84978 89.6801 9.83785 89.7078 9.81432L89.7162 9.80688C89.8436 9.68868 89.9854 9.587 90.1383 9.50425C90.2884 9.42213 90.4501 9.36312 90.6178 9.32919C90.948 9.26015 91.2906 9.27931 91.6111 9.38475L91.6247 9.38941C91.6776 9.40809 91.7358 9.405 91.7864 9.38082C91.837 9.35663 91.8759 9.31333 91.8946 9.26044C91.9133 9.20755 91.9102 9.14941 91.886 9.09879C91.8618 9.04818 91.8185 9.00925 91.7656 8.99056L91.7529 8.98715Z" fill="#0C0C0C"/>
<path d="M94.5778 9.22675C94.8813 9.07943 95.2184 9.01517 95.5549 9.04052C95.7257 9.05154 95.8939 9.08849 96.0537 9.15009C96.2161 9.21167 96.3701 9.29342 96.5121 9.39343L96.5214 9.39932C96.5519 9.41919 96.5888 9.42648 96.6246 9.41966C96.6603 9.41285 96.692 9.39246 96.713 9.36277C96.734 9.33309 96.7427 9.29642 96.7372 9.26047C96.7318 9.22451 96.7126 9.19207 96.6837 9.16995C96.5278 9.04449 96.3567 8.93926 96.1744 8.85677C95.9898 8.77242 95.7937 8.71624 95.5924 8.6901C95.1825 8.63433 94.7651 8.6903 94.3844 8.85212C94.333 8.87442 94.2925 8.91626 94.2719 8.96841C94.2513 9.02057 94.2522 9.07877 94.2745 9.13022C94.2968 9.18167 94.3387 9.22215 94.3908 9.24276C94.443 9.26336 94.5012 9.26241 94.5526 9.2401L94.5644 9.23451L94.5778 9.22675Z" fill="#0C0C0C"/>
<path d="M94.3845 2.98333C94.6526 1.70001 94.1632 0.512003 93.2913 0.329842C92.4195 0.147682 91.4953 1.04035 91.2272 2.32366C90.9591 3.60698 91.4485 4.79498 92.3204 4.97714C93.1922 5.1593 94.1164 4.26664 94.3845 2.98333Z" fill="#0C0C0C"/>
<path d="M81.5194 36.8593C81.7472 39.5358 83.3628 56.2354 83.5816 59.5323H113.265C113.435 56.5588 114.201 43.5562 114.848 37.7411C115.465 32.1924 116.331 29.6671 115.619 27.9429C114.365 24.9011 110.374 23.5435 107.67 23.1776C106.02 22.9541 103.537 22.7939 103.537 22.7939C103.537 22.7939 103.327 27.0462 98.3143 27.2827C91.4911 27.6049 91.9468 22.7939 91.9129 22.7939C90.8076 22.7939 84.7905 23.5975 83.2861 24.5783C82.4283 25.0999 81.7212 25.8359 81.2342 26.7137C80.7471 27.5915 80.497 28.581 80.5085 29.5849C80.4799 31.5816 81.2605 33.8235 81.5194 36.8593Z" fill="#367CFF"/>
<path d="M83.0244 52.9519C83.0033 52.9518 82.983 52.9438 82.9674 52.9295C82.9518 52.9152 82.9422 52.8956 82.9403 52.8746L81.8158 40.0126C81.8146 40.0014 81.8156 39.9901 81.8189 39.9793C81.8221 39.9686 81.8274 39.9586 81.8346 39.9499C81.8417 39.9412 81.8505 39.9341 81.8604 39.9288C81.8704 39.9236 81.8813 39.9204 81.8925 39.9194C81.9037 39.9181 81.9151 39.919 81.9259 39.9222C81.9368 39.9253 81.9469 39.9307 81.9556 39.9379C81.9643 39.9451 81.9714 39.954 81.9766 39.9641C81.9818 39.9741 81.9848 39.9851 81.9856 39.9964L83.1104 52.8585C83.1114 52.8695 83.1102 52.8807 83.1068 52.8913C83.1035 52.9019 83.0981 52.9117 83.0909 52.9202C83.0838 52.9287 83.075 52.9357 83.0652 52.9409C83.0553 52.946 83.0445 52.9491 83.0334 52.95L83.0244 52.9519Z" fill="#0C0C0C"/>
<path d="M85.1767 60.4231L89.2523 57.1163L88.5667 57.3103C88.344 57.3684 88.1076 57.3399 87.9051 57.2304C87.7027 57.1209 87.5493 56.9387 87.476 56.7206C87.4422 56.6066 87.4319 56.487 87.4458 56.369C87.4597 56.251 87.4975 56.137 87.5569 56.0341C87.6163 55.9312 87.696 55.8414 87.7913 55.7703C87.8865 55.6992 87.9952 55.6483 88.1107 55.6206L96.673 53.5379L97.4096 56.2655C97.6381 57.1125 97.6085 58.0085 97.3246 58.8386C97.0407 59.6687 96.5154 60.3951 95.8161 60.9247L92.6433 63.3187C92.4809 63.4463 92.2794 63.5139 92.0729 63.51C91.8664 63.5061 91.6675 63.431 91.5101 63.2973C91.3705 63.1736 91.2741 63.0085 91.235 62.8261C91.1959 62.6437 91.2162 62.4536 91.2928 62.2836C91.2829 62.2808 91.2736 62.276 91.2656 62.2695C91.2576 62.2631 91.251 62.255 91.2462 62.2459C91.2414 62.2368 91.2385 62.2268 91.2377 62.2165C91.2369 62.2062 91.2383 62.1959 91.2416 62.1861L90.6571 62.629C90.4766 62.7717 90.2485 62.8404 90.0192 62.8213C89.7899 62.8022 89.5764 62.6968 89.4218 62.5263C89.2889 62.3692 89.2157 62.1703 89.2151 61.9645C89.2145 61.7588 89.2865 61.5594 89.4184 61.4015C89.4093 61.4 89.4004 61.3969 89.3923 61.3925L89.1521 61.5744C88.9896 61.7019 88.7881 61.7694 88.5816 61.7654C88.3751 61.7615 88.1763 61.6863 88.0189 61.5526C87.8493 61.4026 87.7445 61.1927 87.7263 60.967C87.7082 60.7413 87.7783 60.5173 87.9217 60.3421C87.9185 60.3371 87.9157 60.3318 87.9133 60.3263L86.2162 61.7032C86.132 61.7714 86.0353 61.8225 85.9314 61.8534C85.8276 61.8842 85.7187 61.8944 85.6109 61.8831C85.5031 61.8719 85.3986 61.8396 85.3034 61.788C85.2081 61.7364 85.1239 61.6666 85.0556 61.5824C84.9874 61.4983 84.9363 61.4015 84.9054 61.2977C84.8746 61.1938 84.8644 61.0849 84.8756 60.9772C84.8869 60.8694 84.9192 60.7649 84.9708 60.6696C85.0224 60.5743 85.0922 60.4902 85.1764 60.4219L85.1767 60.4231Z" fill="#E98862"/>
<path opacity="0.2" d="M88.0173 60.376C88.0264 60.3727 88.0348 60.3679 88.0421 60.3617L89.6751 59.0053C89.6912 58.9912 89.7012 58.9714 89.7029 58.95C89.7047 58.9286 89.698 58.9074 89.6843 58.8909C89.6706 58.8744 89.651 58.8639 89.6297 58.8616C89.6084 58.8593 89.587 58.8654 89.5701 58.8787L87.9369 60.2354C87.9221 60.2477 87.9121 60.2649 87.9086 60.284C87.9052 60.303 87.9086 60.3226 87.9182 60.3393C87.9278 60.3561 87.943 60.369 87.9611 60.3757C87.9792 60.3824 87.9991 60.3825 88.0173 60.376V60.376Z" fill="#0A0A0A"/>
<path opacity="0.2" d="M89.4566 61.4008C89.4653 61.3976 89.4735 61.393 89.4808 61.3872L90.7726 60.3319C90.7884 60.3178 90.7981 60.2981 90.7997 60.277C90.8014 60.2559 90.7948 60.235 90.7814 60.2186C90.768 60.2022 90.7488 60.1916 90.7278 60.189C90.7068 60.1864 90.6856 60.192 90.6686 60.2046L89.3768 61.2599C89.3619 61.2723 89.3519 61.2894 89.3484 61.3084C89.3449 61.3274 89.3482 61.347 89.3577 61.3638C89.3672 61.3806 89.3823 61.3935 89.4004 61.4003C89.4185 61.407 89.4384 61.4072 89.4566 61.4008V61.4008Z" fill="#0A0A0A"/>
<path opacity="0.2" d="M91.3465 62.2861C91.3559 62.2827 91.3646 62.2776 91.3722 62.2712L91.9707 61.7578C91.9788 61.7508 91.9855 61.7422 91.9903 61.7326C91.9952 61.723 91.9981 61.7125 91.9989 61.7018C91.9997 61.691 91.9983 61.6802 91.995 61.67C91.9916 61.6598 91.9862 61.6503 91.9792 61.6422C91.9722 61.634 91.9636 61.6273 91.954 61.6225C91.9444 61.6177 91.9339 61.6148 91.9232 61.614C91.9124 61.6132 91.9016 61.6145 91.8914 61.6179C91.8812 61.6213 91.8717 61.6266 91.8636 61.6336L91.2652 62.1467C91.2507 62.1593 91.2411 62.1765 91.2379 62.1954C91.2348 62.2143 91.2383 62.2337 91.248 62.2502C91.2576 62.2668 91.2727 62.2794 91.2907 62.286C91.3087 62.2926 91.3284 62.2928 91.3465 62.2864V62.2861Z" fill="#0A0A0A"/>
<path d="M121.199 52.324L121.168 52.1849L115.751 28.2232L105.032 30.6461L109.261 49.3511L92.3204 53.5127L94.405 63.0726L116.979 58.7663C117.031 58.7561 117.103 58.7409 117.156 58.7294C117.843 58.5744 118.491 58.2857 119.066 57.8798C119.64 57.474 120.129 56.959 120.505 56.3641C120.88 55.7693 121.135 55.1063 121.254 54.4131C121.373 53.7199 121.354 53.01 121.199 52.324V52.324Z" fill="#367CFF"/>
<path d="M92.2375 53.5301C92.233 53.5088 92.237 53.4865 92.2486 53.4679C92.2601 53.4494 92.2784 53.4361 92.2996 53.4308L109.164 49.2893L106.422 37.1781C106.417 37.1563 106.421 37.1333 106.432 37.1144C106.444 37.0954 106.463 37.082 106.485 37.0771C106.507 37.0722 106.53 37.0761 106.549 37.0881C106.568 37.1 106.581 37.119 106.586 37.1409L109.347 49.3328C109.352 49.3544 109.348 49.3771 109.337 49.3959C109.325 49.4148 109.306 49.4284 109.285 49.4337L92.4194 53.5754C92.4194 53.5754 92.5324 54.0683 92.5644 54.2338C92.5661 54.255 92.5595 54.276 92.546 54.2925C92.5325 54.309 92.5132 54.3196 92.492 54.3221C92.4709 54.3246 92.4496 54.3188 92.4326 54.3059C92.4157 54.293 92.4044 54.274 92.4011 54.253C92.3623 54.0717 92.2375 53.5301 92.2375 53.5301Z" fill="#0C0C0C"/>
<path d="M92.8984 66.8776L86.3852 46.8578C86.2708 46.506 86.0479 46.1994 85.7486 45.9819C85.4492 45.7645 85.0888 45.6473 84.7188 45.6473H58.1846C57.908 45.6472 57.6353 45.7127 57.3888 45.8382C57.1424 45.9638 56.9292 46.1459 56.7666 46.3697C56.6041 46.5935 56.4968 46.8526 56.4536 47.1258C56.4104 47.3991 56.4325 47.6786 56.5181 47.9416L63.0313 67.9615C63.1456 68.3134 63.3684 68.62 63.6678 68.8375C63.9672 69.055 64.3277 69.172 64.6977 69.172H91.2322C91.5088 69.1719 91.7814 69.1064 92.0278 68.9808C92.2741 68.8552 92.4873 68.673 92.6498 68.4493C92.8123 68.2255 92.9195 67.9664 92.9627 67.6933C93.0059 67.4201 92.9839 67.1406 92.8984 66.8776V66.8776Z" fill="#292A2E"/>
<path opacity="0.2" d="M92.8984 66.8776L86.3852 46.8578C86.2708 46.506 86.0479 46.1994 85.7486 45.9819C85.4492 45.7645 85.0888 45.6473 84.7188 45.6473H58.1846C57.908 45.6472 57.6353 45.7127 57.3888 45.8382C57.1424 45.9638 56.9292 46.1459 56.7666 46.3697C56.6041 46.5935 56.4968 46.8526 56.4536 47.1258C56.4104 47.3991 56.4325 47.6786 56.5181 47.9416L63.0313 67.9615C63.1456 68.3134 63.3684 68.62 63.6678 68.8375C63.9672 69.055 64.3277 69.172 64.6977 69.172H91.2322C91.5088 69.1719 91.7814 69.1064 92.0278 68.9808C92.2741 68.8552 92.4873 68.673 92.6498 68.4493C92.8123 68.2255 92.9195 67.9664 92.9627 67.6933C93.0059 67.4201 92.9839 67.1406 92.8984 66.8776V66.8776Z" fill="white"/>
<path d="M73.944 60.1922C75.481 60.1922 76.727 58.9462 76.727 57.4093C76.727 55.8723 75.481 54.6264 73.944 54.6264C72.4071 54.6264 71.1611 55.8723 71.1611 57.4093C71.1611 58.9462 72.4071 60.1922 73.944 60.1922Z" fill="white"/>
</svg>
