<svg width="346" height="240" viewBox="0 0 346 240" fill="none" xmlns="http://www.w3.org/2000/svg">
<path opacity="0.2" d="M103.389 31.1134L103.144 31.0514L25.1279 194.384L300.149 215.614L300.459 215.638L310.536 83.0489L310.556 82.7883L103.389 31.1134ZM182.394 136.151L26.2103 193.556L103.375 32.0067L182.394 136.151ZM182.853 136.643L299.027 214.904L27.0448 193.91L182.853 136.643ZM182.996 135.919L104.093 31.9268L309.245 83.0985L182.996 135.919ZM299.905 214.749L183.544 136.361L309.879 83.5055L299.905 214.749Z" fill="#367CFF"/>
<path d="M345.686 85.8101C345.438 92.098 343.671 98.2322 340.536 103.688C337.401 109.145 332.991 113.761 327.684 117.143C322.378 120.524 316.331 122.571 310.061 123.107C303.791 123.644 297.485 122.654 291.68 120.223C288.958 119.082 286.376 117.632 283.986 115.9C279.417 112.602 275.614 108.355 272.837 103.451V103.447C269.877 98.202 268.173 92.3419 267.859 86.3272C267.546 80.3125 268.631 74.307 271.031 68.7826C273.43 63.2582 277.077 58.3653 281.686 54.4885C286.296 50.6116 291.741 47.8563 297.595 46.4391C303.448 45.0218 309.551 44.9813 315.423 46.3205C321.295 47.6598 326.777 50.3425 331.437 54.1577C336.097 57.973 339.81 62.8169 342.282 68.3089C344.754 73.801 345.92 79.7915 345.686 85.8098L345.686 85.8101Z" fill="white"/>
<path opacity="0.09" d="M345.686 85.8101C345.438 92.098 343.671 98.2322 340.536 103.688C337.401 109.145 332.991 113.761 327.684 117.143C322.378 120.524 316.331 122.571 310.061 123.107C303.791 123.644 297.485 122.654 291.68 120.223C288.958 119.082 286.376 117.632 283.986 115.9C279.417 112.602 275.614 108.355 272.837 103.451V103.447C269.877 98.202 268.173 92.3419 267.859 86.3272C267.546 80.3125 268.631 74.307 271.031 68.7826C273.43 63.2582 277.077 58.3653 281.686 54.4885C286.296 50.6116 291.741 47.8563 297.595 46.4391C303.448 45.0218 309.551 44.9813 315.423 46.3205C321.295 47.6598 326.777 50.3425 331.437 54.1577C336.097 57.973 339.81 62.8169 342.282 68.3089C344.754 73.801 345.92 79.7915 345.686 85.8098L345.686 85.8101Z" fill="#367CFF"/>
<path d="M315.972 54.6338C315.972 54.6338 325.285 54.7479 322.074 67.5821L321.199 67.6249L319.424 67.7114" fill="#0C0C0C"/>
<path d="M305.573 81.0475C305.616 81.0434 305.788 89.0487 315.093 88.7124C321.535 88.4805 324.089 81.7545 324.237 81.7601C323.55 81.5862 322.392 81.3261 322.091 81.1507C321.101 80.5682 319.871 79.9542 319.621 77.9772C319.477 76.8378 320.021 71.0587 319.967 69.9097L310.022 71.7276C310.066 74.1522 310.813 79.7974 307.395 80.6588C306.826 80.8013 306.214 80.9287 305.573 81.0475Z" fill="#E98862"/>
<path opacity="0.52" d="M309.622 78.4499C309.796 77.9582 309.916 77.4488 309.979 76.9311C310.133 75.75 310.158 74.5556 310.052 73.3692C312.067 73.1765 313.987 72.4226 315.594 71.1932C315.751 71.8752 316.643 74.8701 316.338 75.5018C315.765 76.6964 313.212 78.5894 309.622 78.4499Z" fill="#0C0C0C"/>
<path d="M311.88 77.0356C315.778 76.7566 320.481 74.3832 320.645 69.1004L320.792 64.3346C320.956 59.0527 318.312 54.685 313.341 54.5312C308.368 54.3762 304.518 58.5441 304.355 63.8259L304.289 65.9359C304.28 66.661 304.319 67.3859 304.408 68.1057C304.629 70.0089 304.971 72.9027 306.225 74.8788C307.407 76.7442 309.389 77.2132 311.88 77.0356Z" fill="#E98862"/>
<path d="M320.286 70.701C321.797 70.7475 323.073 69.1685 323.119 67.6574C323.166 66.1463 321.967 65.2747 320.456 65.2279L319.645 66.2164L318.987 70.6607L320.286 70.701Z" fill="#E98862"/>
<path d="M304.61 69.7007C304.883 70.0245 305.233 70.2748 305.627 70.4288C306.022 70.5829 306.449 70.6359 306.869 70.5829C307.768 70.4698 308.364 70.8386 309.114 70.7645C309.744 70.7026 309.853 70.4115 310.928 70.3479C315.078 70.1021 318.192 69.8405 318.394 64.6334L321.034 62.2878C321.034 62.2878 322.214 76.7175 314.41 78.6356C309.614 79.8135 305.116 79.3829 304.537 74.8788C304.068 71.219 304.61 69.7007 304.61 69.7007Z" fill="#0C0C0C"/>
<path d="M306.576 66.6872C306.915 66.6872 307.189 66.4129 307.189 66.0744C307.189 65.736 306.915 65.4616 306.576 65.4616C306.238 65.4616 305.964 65.736 305.964 66.0744C305.964 66.4129 306.238 66.6872 306.576 66.6872Z" fill="#0C0C0C"/>
<path d="M312.051 66.5731C312.39 66.5731 312.664 66.2988 312.664 65.9603C312.664 65.6219 312.39 65.3475 312.051 65.3475C311.713 65.3475 311.438 65.6219 311.438 65.9603C311.438 66.2988 311.713 66.5731 312.051 66.5731Z" fill="#0C0C0C"/>
<path d="M318.826 68.2442C318.826 68.2442 318.452 60.7597 316.194 60.2566C314.69 59.9216 310.99 61.9965 307.61 61.2879C306.132 60.9779 304.717 61.3189 304.561 62.0176C304.499 62.2941 303.329 59.8419 305.708 56.8581C307.601 54.4826 313.759 53.8143 316.498 54.6543C324.084 56.9809 320.762 65.563 320.762 65.563L320.374 68.1339L318.826 68.2442Z" fill="#0C0C0C"/>
<path d="M322.274 62.2092C324.506 62.2092 326.316 60.3992 326.316 58.1665C326.316 55.9339 324.506 54.1239 322.274 54.1239C320.041 54.1239 318.231 55.9339 318.231 58.1665C318.231 60.3992 320.041 62.2092 322.274 62.2092Z" fill="#0C0C0C"/>
<g opacity="0.52">
<path d="M309.188 70.524H309.179C308.692 70.5101 307.877 70.4326 307.886 70.0684C307.895 69.7665 308.813 66.531 308.918 66.1628C308.927 66.1311 308.948 66.1044 308.977 66.0883C309.006 66.0723 309.04 66.0684 309.072 66.0774C309.103 66.0864 309.13 66.1076 309.146 66.1363C309.162 66.1651 309.166 66.199 309.157 66.2307C308.749 67.6637 308.14 69.87 308.134 70.0743C308.18 70.1617 308.681 70.2603 309.185 70.2748C309.218 70.2745 309.25 70.2872 309.274 70.3102C309.297 70.3332 309.31 70.3645 309.311 70.3974C309.311 70.4303 309.299 70.462 309.276 70.4855C309.253 70.509 309.221 70.5224 309.188 70.5228V70.524Z" fill="#0C0C0C"/>
</g>
<path d="M307.706 63.9924C307.203 63.8434 306.669 63.8327 306.16 63.9614C305.91 64.0229 305.67 64.1218 305.449 64.2546C305.23 64.3849 305.028 64.5422 304.849 64.723C304.818 64.7508 304.799 64.7899 304.797 64.8316C304.795 64.8734 304.809 64.9143 304.837 64.9454C304.865 64.9765 304.904 64.9953 304.945 64.9976C304.987 64.9999 305.028 64.9855 305.059 64.9576L305.069 64.9496C305.236 64.7987 305.422 64.6694 305.621 64.5649C305.818 64.4608 306.029 64.387 306.247 64.3461C306.678 64.2618 307.124 64.2929 307.539 64.4363L307.555 64.4422C307.584 64.4535 307.616 64.4589 307.647 64.458C307.679 64.4572 307.709 64.4501 307.738 64.4371C307.767 64.4242 307.793 64.4056 307.814 64.3826C307.835 64.3596 307.852 64.3325 307.863 64.303C307.874 64.2735 307.879 64.2421 307.877 64.2107C307.876 64.1793 307.868 64.1485 307.855 64.12C307.841 64.0916 307.822 64.0662 307.799 64.0452C307.775 64.0241 307.748 64.008 307.718 63.9977L307.706 63.9924Z" fill="#0C0C0C"/>
<path d="M311.316 64.4369C311.716 64.2535 312.156 64.1792 312.594 64.2215C312.815 64.2409 313.032 64.2939 313.238 64.3786C313.447 64.4632 313.644 64.5737 313.825 64.7075L313.835 64.7143C313.868 64.7363 313.909 64.7445 313.949 64.7373C313.989 64.7301 314.024 64.708 314.048 64.6755C314.072 64.6431 314.082 64.6027 314.077 64.5628C314.072 64.5228 314.052 64.4863 314.021 64.4608C313.825 64.2983 313.609 64.1613 313.378 64.0529C313.145 63.9422 312.897 63.867 312.642 63.83C312.123 63.7518 311.593 63.8146 311.106 64.0119C311.049 64.0366 311.004 64.0828 310.981 64.1405C310.957 64.1981 310.958 64.2627 310.982 64.3202C311.005 64.3776 311.051 64.4234 311.108 64.4476C311.166 64.4717 311.23 64.4724 311.288 64.4493L311.3 64.4443L311.316 64.4369Z" fill="#0C0C0C"/>
<path d="M336.143 101.036C335.796 103.653 335.458 107.248 335.156 110.965C333.975 112.221 332.713 113.398 331.377 114.488C330.528 115.178 329.652 115.834 328.748 116.455C323.862 119.791 318.281 121.972 312.428 122.833C306.575 123.695 300.603 123.215 294.963 121.429C294.886 117.977 294.781 113.32 294.677 109.053C294.558 104.132 294.437 99.7252 294.372 98.2774C294.105 92.5312 292.582 88.6972 293.734 85.5622C294.078 84.6342 294.631 83.798 295.351 83.1187C298.034 80.4929 304.698 80.5528 307.371 80.6566C307.417 80.6585 306.592 86.8271 315.386 86.7528C321.85 86.6997 322.334 81.2372 322.334 81.2372C322.334 81.2372 325.52 81.5685 327.635 81.9358C331.095 82.5418 333.344 83.8108 335.095 85.706C336.728 87.4731 337.691 89.349 336.143 101.036Z" fill="#367CFF"/>
<path d="M284.442 81.2648L284.708 74.6826C284.714 74.5378 284.69 74.3934 284.637 74.2585C284.584 74.1236 284.504 74.0012 284.401 73.8991C284.298 73.7971 284.175 73.7175 284.04 73.6656C283.905 73.6137 283.76 73.5906 283.615 73.5977C283.349 73.6192 283.1 73.739 282.916 73.9337C282.733 74.1284 282.629 74.3842 282.623 74.6516L282.566 76.0632L280.707 71.5429C280.51 71.0367 279.943 70.542 279.39 70.8015C279.17 70.8873 278.987 71.045 278.868 71.2488C278.75 71.4526 278.704 71.6905 278.739 71.9236C278.734 71.9242 278.728 71.9254 278.723 71.927C278.72 71.929 278.716 71.9312 278.713 71.9338L278.408 71.1533C278.352 71.0087 278.264 70.8786 278.15 70.7724C278.037 70.6662 277.902 70.5866 277.754 70.5394C277.606 70.4922 277.449 70.4786 277.296 70.4996C277.142 70.5206 276.995 70.5756 276.865 70.6607C276.663 70.7988 276.515 71.0021 276.445 71.2364C276.375 71.4707 276.388 71.7219 276.481 71.948L276.611 72.28C276.603 72.2883 276.596 72.2978 276.592 72.3082C276.452 72.1044 276.244 71.9569 276.006 71.892C275.767 71.8271 275.514 71.849 275.29 71.9539C275.048 72.0762 274.862 72.2851 274.767 72.5389C274.673 72.7927 274.678 73.0727 274.781 73.3231L275.103 74.1482C275.09 74.1397 275.076 74.1344 275.061 74.1327C275.045 74.131 275.03 74.1329 275.016 74.1383C274.999 74.1457 274.985 74.1578 274.975 74.173C274.8 74.0258 274.581 73.9402 274.353 73.9293C274.125 73.9183 273.899 73.9827 273.711 74.1126C273.516 74.253 273.374 74.4551 273.309 74.6861C273.243 74.9172 273.257 75.1636 273.349 75.3856L276.069 82.3472C276.45 83.3211 277.113 84.1591 277.973 84.7539C278.833 85.3487 279.851 85.6731 280.896 85.6855V85.6855C281.798 85.6962 282.668 85.3549 283.322 84.7343C283.976 84.1136 284.362 83.2624 284.399 82.3614L284.442 81.2648Z" fill="#E98862"/>
<g opacity="0.2">
<path d="M280.556 76.4072C280.532 76.4163 280.506 76.4159 280.483 76.4059C280.46 76.3959 280.441 76.3773 280.432 76.3539L278.67 72.0525C278.665 72.0406 278.662 72.0278 278.661 72.0147C278.661 72.0017 278.663 71.9886 278.668 71.9764C278.672 71.9643 278.68 71.9532 278.689 71.9438C278.698 71.9345 278.709 71.9272 278.721 71.9222C278.733 71.9173 278.746 71.9148 278.759 71.9151C278.772 71.9153 278.785 71.9182 278.797 71.9235C278.809 71.9289 278.82 71.9367 278.829 71.9463C278.837 71.9559 278.844 71.9673 278.849 71.9796L280.61 76.2811C280.615 76.2928 280.617 76.3053 280.617 76.3179C280.617 76.3306 280.615 76.3431 280.61 76.3548C280.605 76.3664 280.598 76.377 280.589 76.3859C280.58 76.3948 280.569 76.4018 280.557 76.4066L280.556 76.4072Z" fill="#0C0C0C"/>
</g>
<g opacity="0.2">
<path d="M278.68 77.2367C278.657 77.2459 278.63 77.2454 278.607 77.2354C278.584 77.2253 278.566 77.2065 278.556 77.1831L276.59 72.3826C276.581 72.3591 276.582 72.333 276.591 72.3098C276.601 72.2866 276.62 72.2682 276.643 72.2586C276.667 72.2502 276.692 72.251 276.715 72.2607C276.738 72.2704 276.757 72.2883 276.767 72.311L278.733 77.1115C278.743 77.1351 278.742 77.1616 278.733 77.1851C278.723 77.2087 278.704 77.2273 278.68 77.237V77.2367Z" fill="#0C0C0C"/>
</g>
<g opacity="0.2">
<path d="M276.654 78.1464C276.63 78.1556 276.604 78.1551 276.581 78.1451C276.558 78.1351 276.539 78.1163 276.53 78.0928L274.962 74.2638C274.952 74.2402 274.952 74.2137 274.962 74.1902C274.972 74.1667 274.991 74.1481 275.014 74.1384C275.038 74.1287 275.064 74.1288 275.088 74.1387C275.111 74.1485 275.13 74.1673 275.14 74.1909L276.709 78.019C276.718 78.0427 276.718 78.0692 276.708 78.0927C276.699 78.1162 276.68 78.1349 276.656 78.1446L276.654 78.1464Z" fill="#0C0C0C"/>
</g>
<path d="M306.231 91.5842L290.211 116.213C289.629 117.108 288.848 117.858 287.93 118.405C286.565 117.652 285.248 116.815 283.985 115.9C281.295 113.959 278.864 111.682 276.751 109.124L273.386 83.0356L286.852 80.8779L288.387 93.4354L294.539 83.9773L306.231 91.5842Z" fill="#367CFF"/>
<path d="M308.109 71.8678C309.578 71.9654 311.038 71.5704 312.258 70.7454C312.3 70.717 312.35 70.7012 312.401 70.6999C312.452 70.6987 312.502 70.7119 312.546 70.7382C312.589 70.7644 312.625 70.8025 312.647 70.8481C312.67 70.8937 312.68 70.9448 312.675 70.9955C312.576 71.8634 312.148 73.4598 310.327 73.6631C309.151 73.7942 308.299 72.8913 307.869 72.2909C307.84 72.2493 307.823 72.2002 307.82 72.1492C307.817 72.0982 307.829 72.0475 307.854 72.0031C307.879 71.9586 307.917 71.9223 307.962 71.8983C308.007 71.8744 308.058 71.8638 308.109 71.8678V71.8678Z" fill="white"/>
<path d="M340.486 103.804C338.119 107.886 335.033 111.505 331.377 114.488C330.528 115.178 329.652 115.834 328.748 116.455L322.491 92.6524L336.582 88.9461L340.486 103.804Z" fill="#367CFF"/>
<path d="M328.885 116.362C328.84 116.391 328.792 116.424 328.748 116.455C328.704 116.486 328.659 116.517 328.614 116.546L323.845 98.4128L324.146 98.3344L328.885 116.362Z" fill="#0C0C0C"/>
<path d="M294.715 110.174C294.676 110.173 294.639 110.157 294.612 110.129C294.584 110.102 294.568 110.065 294.566 110.026L294.259 103.269C294.257 103.228 294.272 103.188 294.299 103.157C294.327 103.127 294.366 103.109 294.407 103.107C294.448 103.105 294.488 103.12 294.519 103.148C294.549 103.175 294.567 103.214 294.569 103.255L294.876 110.012C294.878 110.053 294.863 110.094 294.836 110.124C294.808 110.154 294.77 110.172 294.729 110.174H294.715Z" fill="#0C0C0C"/>
<path d="M178.827 172.704C200.759 172.704 218.539 154.924 218.539 132.992C218.539 111.06 200.759 93.2804 178.827 93.2804C156.895 93.2804 139.115 111.06 139.115 132.992C139.115 154.924 156.895 172.704 178.827 172.704Z" fill="white"/>
<path opacity="0.09" d="M218.539 132.991C218.539 140.845 216.21 148.523 211.846 155.053C207.483 161.584 201.281 166.674 194.025 169.679C186.768 172.685 178.784 173.471 171.081 171.939C163.378 170.407 156.302 166.625 150.748 161.071C145.194 155.517 141.412 148.441 139.88 140.738C138.348 133.035 139.134 125.051 142.14 117.794C145.145 110.538 150.235 104.336 156.766 99.9726C163.296 95.6091 170.974 93.2801 178.828 93.2801C184.048 93.2608 189.221 94.2747 194.047 96.2636C198.874 98.2524 203.26 101.177 206.951 104.868C210.642 108.559 213.567 112.945 215.555 117.772C217.544 122.598 218.558 127.771 218.539 132.991V132.991Z" fill="#367CFF"/>
<path d="M161.249 109.569C161.249 109.569 160.849 115.564 159.5 117.739C155.618 124 154.493 131.044 158.381 134.725C162.269 138.406 187.07 138.457 188.949 129.992C190.53 122.866 187.136 122.1 186.311 116.221C185.937 113.561 184.909 107.984 184.909 107.984" fill="#0A0A0A"/>
<path d="M182.53 128.75C182.487 128.744 182.012 136.627 172.854 135.941C166.515 135.466 164.255 128.74 164.109 128.74C164.793 128.595 165.944 128.384 166.248 128.222C167.246 127.685 168.481 127.127 168.803 125.188C168.989 124.073 168.674 118.355 168.772 117.224L178.503 119.396C178.367 121.783 177.415 127.319 180.751 128.299C181.304 128.46 181.902 128.609 182.53 128.75Z" fill="#E98862"/>
<path opacity="0.5" d="M178.638 126.036C178.485 125.544 178.387 125.038 178.345 124.525C178.238 123.355 178.259 122.177 178.409 121.012C176.431 120.746 174.568 119.929 173.03 118.656C172.85 119.324 171.856 122.24 172.131 122.874C172.653 124.072 175.095 126.036 178.638 126.036Z" fill="#0C0C0C"/>
<path d="M177.38 123.58C173.543 123.952 168.579 122.416 167.55 117.307L166.622 112.697C165.594 107.588 167.444 102.905 172.255 101.937C177.065 100.969 181.495 104.386 182.523 109.497L182.934 111.537C183.328 113.498 184.225 122.917 177.38 123.58Z" fill="#E98862"/>
<path opacity="0.1" d="M174.94 116.886C175.572 116.81 176.039 116.374 175.983 115.911C175.928 115.447 175.371 115.133 174.74 115.208C174.109 115.284 173.642 115.72 173.697 116.183C173.752 116.647 174.309 116.961 174.94 116.886Z" fill="#0C0C0C"/>
<path opacity="0.1" d="M181.612 115.033C181.669 115.495 182.225 115.808 182.857 115.735C182.966 115.722 183.073 115.697 183.177 115.662C183.207 115.111 183.208 114.58 183.192 114.089C183.017 114.045 182.835 114.035 182.656 114.058C182.024 114.132 181.558 114.569 181.612 115.033Z" fill="#0C0C0C"/>
<path opacity="0.5" d="M178.822 116.462H178.832C179.027 116.421 179.219 116.369 179.408 116.307C179.691 116.214 180.059 116.058 180.009 115.802C179.95 115.511 178.521 112.531 178.358 112.191C178.343 112.164 178.317 112.143 178.287 112.133C178.257 112.123 178.224 112.126 178.195 112.139C178.167 112.153 178.145 112.177 178.133 112.207C178.122 112.237 178.122 112.269 178.135 112.299C178.744 113.57 179.727 115.655 179.766 115.851C179.735 115.942 179.267 116.121 178.783 116.219C178.752 116.226 178.725 116.244 178.708 116.27C178.69 116.296 178.683 116.328 178.688 116.359C178.693 116.39 178.71 116.418 178.735 116.438C178.76 116.457 178.791 116.466 178.822 116.463V116.462Z" fill="#0C0C0C"/>
<path d="M162.784 114.352L167.097 113.509C170.355 112.145 171.279 106.469 171.279 106.469C171.279 106.469 175.3 110.298 184.909 107.983C184.909 107.983 182.821 94.5685 168.633 98.6403C164.058 99.953 160.817 104.616 161.299 110.793C161.636 115.122 162.784 114.352 162.784 114.352Z" fill="#0A0A0A"/>
<path d="M168.162 118.803C166.7 119.098 165.2 117.772 164.908 116.31C164.615 114.848 165.636 113.803 167.098 113.509L168.048 114.337L169.42 118.55L168.162 118.803Z" fill="#E98862"/>
<path d="M179.395 109.815C179.76 109.556 180.188 109.398 180.634 109.359C180.859 109.338 181.085 109.35 181.305 109.396C181.527 109.441 181.743 109.514 181.947 109.613L181.954 109.616C181.976 109.625 182.001 109.625 182.024 109.616C182.046 109.607 182.065 109.59 182.075 109.568C182.085 109.546 182.087 109.521 182.079 109.498C182.072 109.475 182.056 109.456 182.034 109.444C181.818 109.33 181.588 109.244 181.35 109.187C181.111 109.129 180.864 109.107 180.618 109.122C180.12 109.149 179.638 109.31 179.223 109.587C179.207 109.597 179.193 109.61 179.182 109.626C179.171 109.642 179.164 109.66 179.16 109.678C179.156 109.697 179.156 109.716 179.16 109.735C179.164 109.754 179.171 109.771 179.182 109.787C179.192 109.803 179.206 109.816 179.222 109.827C179.238 109.837 179.256 109.844 179.275 109.847C179.294 109.85 179.313 109.85 179.332 109.845C179.35 109.841 179.368 109.833 179.383 109.822L179.386 109.82L179.395 109.815Z" fill="#0C0C0C"/>
<path d="M175.455 110.359C174.965 110.262 174.458 110.297 173.987 110.463C173.754 110.543 173.535 110.658 173.336 110.804C173.138 110.947 172.959 111.115 172.803 111.303C172.787 111.322 172.779 111.346 172.78 111.371C172.782 111.395 172.793 111.418 172.811 111.435C172.829 111.451 172.853 111.46 172.878 111.46C172.902 111.459 172.926 111.449 172.943 111.431L172.948 111.426C173.098 111.256 173.27 111.106 173.458 110.979C173.644 110.852 173.848 110.754 174.063 110.688C174.491 110.554 174.946 110.536 175.383 110.634L175.394 110.637C175.412 110.642 175.431 110.643 175.45 110.64C175.469 110.638 175.487 110.631 175.503 110.622C175.519 110.612 175.534 110.599 175.545 110.584C175.556 110.569 175.564 110.551 175.569 110.533C175.573 110.515 175.574 110.495 175.571 110.477C175.568 110.458 175.561 110.44 175.551 110.424C175.541 110.408 175.528 110.394 175.512 110.383C175.497 110.372 175.479 110.365 175.461 110.36L175.455 110.359Z" fill="#0C0C0C"/>
<path d="M167.1 113.438C169.999 112.359 170.961 110.357 171.257 108.867C171.449 107.874 171.431 106.851 171.205 105.865L171.115 105.89C171.338 106.863 171.355 107.872 171.165 108.853C170.873 110.318 169.925 112.288 167.067 113.351L167.1 113.438Z" fill="#0C0C0C"/>
<path d="M203.754 127.18L205.49 121.291C205.528 121.161 205.593 121.041 205.68 120.938C205.767 120.835 205.874 120.751 205.996 120.692C206.117 120.633 206.249 120.6 206.384 120.594C206.519 120.589 206.653 120.612 206.778 120.661C207.007 120.76 207.191 120.94 207.295 121.167C207.399 121.393 207.414 121.65 207.339 121.888L206.967 123.15L209.959 119.717C210.285 119.329 210.933 119.062 211.344 119.456C211.512 119.598 211.627 119.792 211.67 120.007C211.714 120.222 211.683 120.446 211.583 120.641C211.587 120.643 211.592 120.646 211.595 120.649C211.598 120.652 211.6 120.655 211.602 120.658L212.105 120.06C212.198 119.949 212.315 119.861 212.447 119.801C212.578 119.741 212.722 119.712 212.866 119.714C213.011 119.717 213.153 119.752 213.283 119.816C213.412 119.881 213.525 119.973 213.614 120.087C213.751 120.27 213.821 120.493 213.813 120.721C213.804 120.949 213.718 121.166 213.568 121.338L213.354 121.593C213.359 121.602 213.362 121.613 213.362 121.624C213.547 121.485 213.774 121.417 214.005 121.431C214.235 121.445 214.452 121.541 214.618 121.701C214.795 121.881 214.897 122.121 214.905 122.373C214.912 122.625 214.824 122.871 214.658 123.061L214.127 123.693C214.14 123.689 214.155 123.689 214.169 123.692C214.183 123.695 214.196 123.701 214.207 123.71C214.219 123.722 214.228 123.737 214.233 123.753C214.431 123.676 214.65 123.666 214.855 123.725C215.059 123.784 215.239 123.909 215.366 124.08C215.496 124.263 215.56 124.483 215.549 124.707C215.538 124.93 215.452 125.144 215.304 125.312L210.821 130.643C210.194 131.389 209.358 131.93 208.421 132.198C207.484 132.466 206.489 132.447 205.562 132.145V132.145C204.763 131.885 204.097 131.324 203.706 130.58C203.315 129.837 203.228 128.97 203.466 128.164L203.754 127.18Z" fill="#E98862"/>
<g opacity="0.2">
<path d="M208.637 124.056C208.655 124.071 208.678 124.078 208.701 124.076C208.724 124.074 208.745 124.063 208.761 124.046L211.602 120.777C211.617 120.759 211.625 120.735 211.624 120.712C211.622 120.688 211.611 120.666 211.593 120.65C211.575 120.635 211.551 120.627 211.528 120.629C211.504 120.63 211.482 120.641 211.466 120.659L208.625 123.928C208.617 123.937 208.612 123.947 208.608 123.959C208.604 123.97 208.603 123.981 208.603 123.993C208.604 124.005 208.607 124.016 208.613 124.027C208.618 124.038 208.625 124.047 208.634 124.055L208.637 124.056Z" fill="#0C0C0C"/>
</g>
<g opacity="0.2">
<path d="M210.044 125.349C210.062 125.363 210.085 125.371 210.108 125.369C210.131 125.367 210.153 125.356 210.168 125.338L213.339 121.69C213.346 121.681 213.352 121.671 213.356 121.66C213.36 121.649 213.361 121.637 213.36 121.625C213.359 121.613 213.356 121.602 213.351 121.591C213.346 121.581 213.339 121.571 213.33 121.564C213.311 121.549 213.288 121.542 213.265 121.543C213.241 121.545 213.219 121.555 213.203 121.573L210.035 125.221C210.027 125.23 210.021 125.24 210.017 125.251C210.014 125.263 210.012 125.274 210.013 125.286C210.014 125.298 210.017 125.309 210.022 125.32C210.027 125.33 210.035 125.34 210.044 125.347L210.044 125.349Z" fill="#0C0C0C"/>
</g>
<g opacity="0.2">
<path d="M211.56 126.758C211.578 126.773 211.601 126.78 211.624 126.778C211.647 126.776 211.669 126.765 211.684 126.748L214.213 123.838C214.227 123.819 214.234 123.797 214.232 123.774C214.229 123.751 214.219 123.73 214.201 123.715C214.184 123.7 214.161 123.692 214.138 123.693C214.116 123.694 214.094 123.703 214.078 123.72L211.548 126.63C211.541 126.639 211.535 126.649 211.531 126.661C211.527 126.672 211.526 126.683 211.527 126.695C211.528 126.707 211.531 126.718 211.536 126.729C211.541 126.74 211.549 126.749 211.557 126.757L211.56 126.758Z" fill="#0C0C0C"/>
</g>
<path d="M214.318 129.751L207.607 160.196C207.592 160.264 207.576 160.335 207.558 160.404C206.051 161.981 204.418 163.433 202.676 164.746C202.325 165.007 201.975 165.264 201.616 165.512C201.393 165.537 201.17 165.549 200.946 165.549C199.75 165.549 198.575 165.234 197.539 164.636C196.503 164.038 195.643 163.178 195.044 162.143L182.255 140.013L194.065 133.191L198.066 140.115L200.999 126.815L214.318 129.751Z" fill="#0CBC8B"/>
<path d="M193.665 143.631C193.625 144.115 193.544 144.977 193.432 146.111C192.874 151.911 191.569 164.836 190.965 170.809C183.329 173.25 175.135 173.334 167.451 171.048H167.448C161.773 169.349 156.551 166.401 152.166 162.418C152.191 157.078 152.114 151.071 151.754 147.208C150.678 135.668 151.695 133.861 153.366 132.19C153.502 132.054 153.645 131.921 153.787 131.791C155.514 130.222 157.681 129.199 160.839 128.771C162.928 128.489 166.071 128.285 166.071 128.285C166.071 128.285 166.338 133.672 172.683 133.969C181.322 134.376 180.745 128.285 180.789 128.285C182.962 128.285 187.797 128.421 190.847 129.974C190.85 129.974 190.85 129.974 190.853 129.977C191.468 130.276 192.026 130.678 192.506 131.164C195.999 134.865 194.275 136.448 193.665 143.631Z" fill="#0CBC8B"/>
<path d="M180.108 117.469C178.862 118.103 177.44 118.304 176.066 118.039C176.019 118.03 175.97 118.035 175.925 118.053C175.88 118.071 175.841 118.101 175.813 118.14C175.784 118.179 175.768 118.226 175.765 118.274C175.762 118.322 175.773 118.371 175.796 118.413C176.206 119.134 177.177 120.368 178.843 119.865C179.918 119.541 180.325 118.434 180.475 117.749C180.486 117.702 180.483 117.653 180.466 117.607C180.449 117.561 180.42 117.522 180.381 117.492C180.343 117.463 180.297 117.445 180.248 117.441C180.2 117.437 180.151 117.447 180.108 117.469Z" fill="white"/>
<path d="M180.187 111.925C180.519 111.925 180.789 111.656 180.789 111.323C180.789 110.99 180.519 110.721 180.187 110.721C179.854 110.721 179.584 110.99 179.584 111.323C179.584 111.656 179.854 111.925 180.187 111.925Z" fill="#0C0C0C"/>
<path d="M174.398 112.939C174.731 112.939 175 112.669 175 112.336C175 112.004 174.731 111.734 174.398 111.734C174.066 111.734 173.796 112.004 173.796 112.336C173.796 112.669 174.066 112.939 174.398 112.939Z" fill="#0C0C0C"/>
<path d="M192.333 156.633C192.329 156.633 192.325 156.633 192.321 156.633C192.297 156.63 192.275 156.617 192.26 156.597C192.245 156.577 192.238 156.553 192.242 156.528L193.307 145.8C193.308 145.788 193.312 145.776 193.318 145.766C193.324 145.755 193.332 145.746 193.342 145.738C193.352 145.731 193.363 145.726 193.375 145.723C193.387 145.72 193.4 145.719 193.412 145.721C193.436 145.724 193.458 145.737 193.473 145.757C193.488 145.777 193.494 145.801 193.491 145.826L192.426 156.554C192.423 156.576 192.412 156.596 192.395 156.611C192.377 156.625 192.355 156.633 192.333 156.633V156.633Z" fill="#0C0C0C"/>
<path d="M185.888 156.116L191.708 153.517C191.835 153.46 191.974 153.431 192.114 153.43C192.253 153.43 192.392 153.458 192.52 153.514C192.648 153.57 192.764 153.652 192.859 153.754C192.953 153.857 193.026 153.978 193.072 154.111C193.148 154.358 193.13 154.624 193.021 154.859C192.913 155.093 192.721 155.279 192.483 155.38L191.235 155.938L195.964 155.987C196.491 155.983 197.137 156.315 197.102 156.905C197.104 157.133 197.028 157.354 196.887 157.534C196.747 157.713 196.549 157.84 196.327 157.892C196.329 157.897 196.33 157.902 196.33 157.907C196.329 157.911 196.328 157.915 196.327 157.919L197.138 157.913C197.288 157.912 197.437 157.945 197.573 158.008C197.708 158.072 197.829 158.165 197.924 158.281C198.019 158.396 198.088 158.532 198.124 158.678C198.16 158.823 198.164 158.975 198.134 159.122C198.082 159.353 197.953 159.559 197.767 159.705C197.582 159.852 197.352 159.931 197.115 159.928L196.77 159.93C196.766 159.94 196.759 159.95 196.751 159.957C196.985 160.01 197.192 160.144 197.336 160.335C197.48 160.526 197.551 160.762 197.537 161.001C197.514 161.262 197.393 161.504 197.199 161.68C197.005 161.856 196.751 161.952 196.49 161.95L195.633 161.955C195.645 161.964 195.655 161.975 195.662 161.988C195.669 162.001 195.672 162.016 195.672 162.031C195.672 162.048 195.666 162.065 195.656 162.08C195.851 162.184 196.007 162.35 196.098 162.552C196.19 162.753 196.213 162.98 196.163 163.196C196.107 163.421 195.976 163.621 195.792 163.763C195.608 163.905 195.382 163.98 195.15 163.978L187.918 164.029C186.907 164.036 185.916 163.741 185.073 163.182C184.23 162.622 183.574 161.824 183.188 160.888V160.888C182.855 160.082 182.849 159.178 183.172 158.367C183.495 157.557 184.122 156.905 184.918 156.549L185.888 156.116Z" fill="#E98862"/>
<g opacity="0.2">
<path d="M191.647 157.867C191.647 157.892 191.656 157.915 191.674 157.933C191.691 157.95 191.715 157.96 191.74 157.96L196.237 158.001C196.261 158.001 196.285 157.991 196.303 157.974C196.32 157.957 196.33 157.933 196.33 157.908C196.331 157.884 196.321 157.86 196.304 157.842C196.286 157.825 196.263 157.815 196.238 157.815L191.741 157.774C191.716 157.774 191.692 157.784 191.675 157.801C191.657 157.819 191.648 157.842 191.648 157.867H191.647Z" fill="#0C0C0C"/>
</g>
<g opacity="0.2">
<path d="M191.574 159.851C191.574 159.875 191.584 159.899 191.601 159.916C191.619 159.934 191.642 159.944 191.667 159.944L196.686 159.989C196.71 159.989 196.734 159.979 196.751 159.962C196.769 159.944 196.779 159.921 196.779 159.896C196.778 159.872 196.768 159.848 196.751 159.831C196.733 159.814 196.71 159.804 196.686 159.803L191.667 159.758C191.642 159.758 191.619 159.768 191.601 159.785C191.584 159.802 191.574 159.826 191.574 159.851H191.574Z" fill="#0C0C0C"/>
</g>
<g opacity="0.2">
<path d="M191.483 161.997C191.483 162.021 191.493 162.045 191.51 162.062C191.528 162.08 191.551 162.09 191.576 162.09L195.579 162.126C195.604 162.126 195.628 162.116 195.645 162.099C195.662 162.081 195.672 162.058 195.672 162.033C195.672 162.008 195.662 161.985 195.645 161.967C195.628 161.95 195.604 161.94 195.579 161.94L191.576 161.904C191.551 161.904 191.528 161.914 191.51 161.931C191.493 161.949 191.483 161.972 191.483 161.997V161.997Z" fill="#0C0C0C"/>
</g>
<path d="M187.555 166.479L167.451 171.048H167.448C161.773 169.349 156.551 166.401 152.166 162.419C151.695 161.991 151.234 161.553 150.784 161.104C149.999 160.32 149.247 159.505 148.53 158.659L151.345 136.018C151.652 134.193 152.671 132.565 154.179 131.492C155.687 130.418 157.559 129.988 159.384 130.295C161.209 130.602 162.837 131.621 163.911 133.129C164.984 134.637 165.415 136.509 165.108 138.334L163.328 159.592L185.745 154.517L187.555 166.479Z" fill="#0CBC8B"/>
<path d="M158.794 160.427C158.781 160.428 158.769 160.426 158.758 160.422C158.746 160.418 158.735 160.412 158.726 160.404C158.717 160.396 158.709 160.387 158.703 160.376C158.698 160.365 158.695 160.353 158.694 160.341C158.693 160.328 158.694 160.316 158.698 160.305C158.702 160.293 158.708 160.282 158.716 160.273C158.724 160.264 158.734 160.256 158.745 160.25C158.756 160.245 158.768 160.242 158.78 160.241L163.274 159.28C163.286 159.278 163.299 159.278 163.311 159.281C163.322 159.284 163.334 159.29 163.344 159.297C163.353 159.304 163.362 159.313 163.368 159.324C163.374 159.334 163.378 159.346 163.38 159.358C163.382 159.37 163.382 159.382 163.379 159.394C163.376 159.406 163.37 159.417 163.363 159.427C163.356 159.437 163.347 159.445 163.336 159.451C163.326 159.458 163.314 159.462 163.302 159.464L158.806 160.424C158.802 160.426 158.798 160.426 158.794 160.427V160.427Z" fill="#0C0C0C"/>
<path d="M187.555 166.479C187.56 166.503 187.556 166.528 187.544 166.548C187.531 166.569 187.511 166.584 187.487 166.591L167.956 171.194C167.832 171.159 167.711 171.125 167.59 171.088L187.351 166.436L185.59 154.657L163.307 159.464C163.292 159.467 163.277 159.466 163.263 159.461C163.249 159.457 163.237 159.45 163.226 159.44C163.217 159.429 163.21 159.416 163.206 159.402C163.201 159.388 163.2 159.374 163.201 159.359L164.45 147.211C164.453 147.199 164.457 147.188 164.464 147.178C164.47 147.167 164.479 147.158 164.489 147.152C164.499 147.145 164.511 147.14 164.523 147.137C164.534 147.135 164.547 147.134 164.559 147.137C164.583 147.141 164.605 147.154 164.619 147.174C164.634 147.193 164.64 147.218 164.636 147.242L163.406 159.266L185.631 154.449C185.643 154.446 185.655 154.445 185.668 154.447C185.68 154.449 185.692 154.454 185.702 154.462C185.712 154.467 185.722 154.475 185.729 154.485C185.737 154.494 185.742 154.505 185.745 154.517L187.555 166.479Z" fill="#0C0C0C"/>
<path d="M36.4132 218.459C56.5237 218.459 72.8265 202.156 72.8265 182.045C72.8265 161.935 56.5237 145.632 36.4132 145.632C16.3028 145.632 0 161.935 0 182.045C0 202.156 16.3028 218.459 36.4132 218.459Z" fill="white"/>
<path opacity="0.09" d="M36.4132 218.459C56.5237 218.459 72.8265 202.156 72.8265 182.045C72.8265 161.935 56.5237 145.632 36.4132 145.632C16.3028 145.632 0 161.935 0 182.045C0 202.156 16.3028 218.459 36.4132 218.459Z" fill="#367CFF"/>
<path d="M26.3854 161.392C26.3854 161.392 26.78 172.359 34.0999 172.863L35.3397 158.401L26.3854 161.392Z" fill="#0A0A0A"/>
<path d="M27.7952 175.103C30.1902 175.103 32.1317 173.162 32.1317 170.767C32.1317 168.372 30.1902 166.43 27.7952 166.43C25.4002 166.43 23.4587 168.372 23.4587 170.767C23.4587 173.162 25.4002 175.103 27.7952 175.103Z" fill="#0A0A0A"/>
<path d="M44.7626 177.953C44.7238 177.948 44.2954 185.059 36.0341 184.439C30.3149 184.012 28.2759 177.944 28.1451 177.944C28.7987 177.835 29.4434 177.679 30.0741 177.476C30.9745 176.992 32.0889 176.489 32.379 174.74C32.5464 173.732 32.2628 168.575 32.3499 167.555L41.1288 169.515C41.0048 171.668 40.1474 176.662 43.1566 177.546C43.6569 177.692 44.1962 177.826 44.7626 177.953Z" fill="#E98862"/>
<path opacity="0.5" d="M41.2515 175.504C41.1139 175.061 41.0254 174.603 40.9875 174.14C40.891 173.085 40.9103 172.023 41.0448 170.971C39.2605 170.731 37.5796 169.994 36.1929 168.846C36.0298 169.448 35.1334 172.078 35.3817 172.65C35.851 173.734 38.0558 175.504 41.2515 175.504Z" fill="#0C0C0C"/>
<path d="M39.8762 173.588C36.3993 173.633 32.0526 171.878 31.5139 167.208L31.0279 162.992C30.4888 158.321 32.5052 154.251 36.903 153.745C41.3005 153.238 45.0242 156.644 45.5632 161.315L45.7783 163.181C45.9851 164.974 46.0799 173.509 39.8762 173.588Z" fill="#E98862"/>
<path d="M44.518 163.056C44.8191 163.056 45.0632 162.812 45.0632 162.511C45.0632 162.209 44.8191 161.965 44.518 161.965C44.2169 161.965 43.9728 162.209 43.9728 162.511C43.9728 162.812 44.2169 163.056 44.518 163.056Z" fill="#0C0C0C"/>
<path d="M38.945 163.693C39.2461 163.693 39.4902 163.449 39.4902 163.148C39.4902 162.847 39.2461 162.603 38.945 162.603C38.6439 162.603 38.3998 162.847 38.3998 163.148C38.3998 163.449 38.6439 163.693 38.945 163.693Z" fill="#0C0C0C"/>
<path opacity="0.5" d="M41.7105 167.299H41.7192C41.8974 167.277 42.0742 167.245 42.2489 167.204C42.5099 167.141 42.854 167.029 42.827 166.795C42.796 166.529 41.7363 163.742 41.6154 163.425C41.6101 163.411 41.6023 163.399 41.5922 163.388C41.5821 163.377 41.57 163.369 41.5567 163.363C41.5433 163.357 41.5288 163.354 41.5142 163.353C41.4995 163.353 41.4849 163.355 41.4712 163.361C41.4575 163.366 41.445 163.374 41.4343 163.384C41.4237 163.394 41.4151 163.406 41.4091 163.419C41.4032 163.433 41.3999 163.447 41.3995 163.462C41.399 163.476 41.4015 163.491 41.4068 163.505C41.859 164.692 42.5846 166.642 42.6051 166.821C42.3261 166.978 42.0135 167.066 41.6935 167.077C41.664 167.08 41.6366 167.094 41.6173 167.116C41.598 167.138 41.5885 167.168 41.5907 167.197C41.593 167.227 41.6069 167.254 41.6293 167.273C41.6518 167.293 41.681 167.302 41.7105 167.3V167.299Z" fill="#0C0C0C"/>
<path opacity="0.5" d="M40.9244 169.243C41.6387 169.202 42.3334 168.994 42.9526 168.636C42.977 168.62 42.9946 168.596 43.0018 168.569C43.0091 168.541 43.0054 168.511 42.9915 168.486C42.9776 168.461 42.9546 168.442 42.9272 168.434C42.8998 168.425 42.8702 168.427 42.8444 168.44C41.5072 169.18 40.2283 169.223 39.1465 168.564C39.1246 168.55 39.1021 168.537 39.0789 168.526C39.0521 168.515 39.0223 168.515 38.9957 168.526C38.9691 168.537 38.9477 168.558 38.936 168.584C38.9244 168.611 38.9232 168.64 38.9329 168.667C38.9426 168.695 38.9624 168.717 38.9881 168.73C38.9964 168.734 39.0107 168.743 39.0302 168.755C39.599 169.102 40.2585 169.272 40.9244 169.243V169.243Z" fill="#0C0C0C"/>
<path d="M27.4523 164.19L31.393 163.759C34.4241 162.78 35.6835 157.745 35.6835 157.745C35.6835 157.745 38.3998 160.834 46.4491 159.424C46.4491 159.424 46.1372 149.046 33.8953 150.507C29.633 151.017 26.4189 155.291 26.3857 160.88C26.3628 164.797 27.4523 164.19 27.4523 164.19Z" fill="#0A0A0A"/>
<path d="M31.9512 168.599C30.6147 168.754 29.3664 167.448 29.2124 166.112C29.0583 164.775 30.0564 163.914 31.393 163.759L32.185 164.575L33.1003 168.466L31.9512 168.599Z" fill="#E98862"/>
<path d="M42.5897 161.15C42.9839 160.932 43.4294 160.824 43.8798 160.836C44.1021 160.841 44.3225 160.88 44.5335 160.95C44.7431 161.019 44.9431 161.114 45.1289 161.233C45.1475 161.245 45.1608 161.264 45.1661 161.285C45.1714 161.306 45.1682 161.329 45.1572 161.348C45.1462 161.367 45.1283 161.381 45.1071 161.387C45.086 161.394 45.0633 161.391 45.0437 161.381L45.0381 161.378C44.8621 161.274 44.6736 161.192 44.4771 161.134C44.2824 161.076 44.0801 161.048 43.877 161.05C43.4728 161.052 43.0763 161.161 42.7279 161.366L42.7195 161.371C42.7051 161.381 42.689 161.387 42.672 161.39C42.6551 161.394 42.6377 161.393 42.6209 161.389C42.6041 161.386 42.5882 161.378 42.5742 161.368C42.5602 161.358 42.5484 161.346 42.5394 161.331C42.5305 161.316 42.5246 161.3 42.5221 161.283C42.5196 161.266 42.5206 161.248 42.5249 161.232C42.5293 161.215 42.537 161.199 42.5475 161.186C42.5581 161.172 42.5712 161.161 42.5863 161.152L42.5897 161.15Z" fill="#0C0C0C"/>
<path d="M39.0578 161.8C38.6725 161.678 38.2616 161.66 37.8672 161.749C37.6686 161.792 37.4777 161.865 37.3009 161.966C37.1223 162.066 36.9569 162.188 36.8087 162.329L36.8041 162.333C36.7872 162.345 36.7663 162.351 36.7454 162.349C36.7246 162.348 36.7051 162.338 36.6907 162.323C36.6764 162.307 36.6682 162.287 36.6676 162.266C36.6671 162.245 36.6743 162.225 36.6878 162.209C36.8423 162.052 37.016 161.914 37.2048 161.8C37.3948 161.684 37.6011 161.598 37.8167 161.543C38.2529 161.43 38.7113 161.436 39.1443 161.561C39.161 161.565 39.1767 161.573 39.1905 161.583C39.2042 161.594 39.2157 161.607 39.2242 161.622C39.2327 161.637 39.2381 161.654 39.24 161.671C39.242 161.688 39.2404 161.705 39.2355 161.722C39.2306 161.738 39.2224 161.754 39.2114 161.767C39.2003 161.78 39.1868 161.791 39.1714 161.799C39.1561 161.807 39.1393 161.812 39.122 161.813C39.1048 161.814 39.0875 161.812 39.0712 161.807H39.0678L39.0578 161.8Z" fill="#0C0C0C"/>
<path opacity="0.52" d="M40.9992 170.299C41.1284 170.293 41.257 170.277 41.3835 170.25C41.4117 170.243 41.436 170.226 41.4514 170.201C41.4668 170.176 41.4721 170.147 41.4661 170.118C41.4601 170.09 41.4433 170.065 41.4193 170.049C41.3953 170.033 41.3659 170.026 41.3373 170.031C41.1398 170.089 40.9322 170.104 40.7284 170.075C40.5247 170.046 40.3294 169.974 40.1557 169.864C40.1328 169.845 40.1034 169.836 40.0739 169.839C40.0444 169.842 40.0173 169.857 39.9986 169.879C39.9798 169.902 39.971 169.932 39.9739 169.961C39.9769 169.991 39.9915 170.018 40.0144 170.037C40.3025 170.235 40.6505 170.328 40.9992 170.299V170.299Z" fill="#0C0C0C"/>
<path opacity="0.1" d="M38.1899 167.385C38.7632 167.365 39.216 167.008 39.2013 166.588C39.1866 166.167 38.7099 165.842 38.1366 165.863C37.5633 165.883 37.1104 166.24 37.1252 166.66C37.1399 167.081 37.6166 167.405 38.1899 167.385Z" fill="#0C0C0C"/>
<path opacity="0.1" d="M44.3255 166.225C44.3416 166.645 44.818 166.969 45.3914 166.95C45.4906 166.946 45.589 166.932 45.6853 166.908C45.7532 166.415 45.7947 165.938 45.8173 165.496C45.663 165.443 45.5001 165.42 45.3372 165.427C44.765 165.446 44.3125 165.802 44.3255 166.225Z" fill="#0C0C0C"/>
<path d="M57.1008 185.443C57.076 187.926 56.2236 190.886 55.9198 194.463C55.8393 195.418 53.7901 198.18 53.4925 201.251C53.1174 205.163 53.9515 211.263 54.0631 213.901C48.3033 217.088 41.7879 218.656 35.2087 218.438C28.6295 218.219 22.2323 216.223 16.6964 212.661C16.5477 205.885 16.371 197.519 16.1447 195.514C15.4101 188.893 15.6084 184.705 16.6685 182.746C18.4013 179.547 21.4854 178.571 24.7122 178.131C26.6836 177.864 29.6438 177.675 29.6438 177.675C29.6438 177.675 29.8949 182.749 35.8773 183.031C44.0202 183.416 43.4777 177.675 43.518 177.675C46.472 177.675 52.07 178.382 54.215 179.845C56.4902 181.392 57.1287 183.227 57.1008 185.443Z" fill="#FFC239"/>
<path d="M28.9681 189.305L17.9208 213.413C13.6792 210.909 9.98867 207.572 7.0719 203.603L16.2873 183.492L28.9681 189.305Z" fill="#FFC239"/>
<path d="M66.0248 203.238C63.8606 206.258 61.2486 208.929 58.2787 211.161C57.3012 211.899 56.2863 212.586 55.2379 213.219L43.8993 188.292L56.5956 182.514L66.0248 203.238Z" fill="#FFC239"/>
<path d="M112.195 75.8239C133.133 75.8239 150.107 58.8501 150.107 37.9119C150.107 16.9738 133.133 0 112.195 0C91.2567 0 74.283 16.9738 74.283 37.9119C74.283 58.8501 91.2567 75.8239 112.195 75.8239Z" fill="white"/>
<path opacity="0.09" d="M112.195 75.8239C133.133 75.8239 150.107 58.8501 150.107 37.9119C150.107 16.9738 133.133 0 112.195 0C91.2567 0 74.283 16.9738 74.283 37.9119C74.283 58.8501 91.2567 75.8239 112.195 75.8239Z" fill="#367CFF"/>
<path d="M119.526 15.2096C119.526 15.2096 121.926 12.6077 121.741 7.65194C121.597 3.81484 118.586 6.86276 118.586 6.86276C118.586 6.86276 118.455 4.10094 116.54 4.72397C114.624 5.34701 114.036 8.37974 114.036 8.37974" fill="#0C0C0C"/>
<path d="M106.439 6.87827C106.439 6.87827 96.8785 9.68813 102.795 22.2623L103.668 22.1637L105.44 21.9641" fill="#0C0C0C"/>
<path d="M119.989 35.3055C119.945 35.2999 119.462 43.3212 110.143 42.6207C103.692 42.1375 101.392 35.2931 101.244 35.2931C101.94 35.1452 102.799 34.9211 103.141 34.8439C103.885 34.6711 104.56 34.2757 105.074 33.7103C105.588 33.145 105.918 32.4364 106.02 31.6788C106.209 30.5419 105.889 24.725 105.987 23.5747L115.889 25.7848C115.751 28.2146 114.783 33.8471 118.177 34.8439C118.742 35.0091 119.351 35.161 119.989 35.3055Z" fill="#E98862"/>
<path opacity="0.52" d="M116.029 32.5424C115.874 32.0425 115.774 31.5272 115.731 31.0056C115.622 29.8153 115.644 28.6166 115.796 27.431C113.783 27.1594 111.887 26.3286 110.323 25.0331C110.139 25.7123 109.128 28.6796 109.407 29.3249C109.937 30.545 112.424 32.5424 116.029 32.5424Z" fill="#0C0C0C"/>
<path d="M114.412 29.9886C110.507 30.3398 105.465 28.7437 104.454 23.5375L103.542 18.8399C102.531 13.6325 104.446 8.8822 109.348 7.9306C114.25 6.97868 118.733 10.4878 119.744 15.6941L120.147 17.7736C120.274 18.4901 120.351 19.2143 120.378 19.9413C120.466 21.8631 120.591 24.7839 119.668 26.9431C118.796 28.9821 116.908 29.7645 114.412 29.9886Z" fill="#E98862"/>
<path opacity="0.5" d="M115.003 24.8416C115.718 24.8281 116.42 24.6467 117.052 24.3121C117.066 24.3059 117.079 24.297 117.089 24.2858C117.099 24.2747 117.107 24.2616 117.112 24.2474C117.117 24.2332 117.119 24.2181 117.118 24.203C117.117 24.188 117.113 24.1733 117.106 24.1598C117.099 24.1463 117.09 24.1343 117.078 24.1246C117.067 24.1149 117.053 24.1076 117.039 24.1032C117.025 24.0988 117.009 24.0973 116.994 24.0989C116.979 24.1005 116.965 24.1051 116.952 24.1125C115.588 24.8009 114.308 24.7944 113.252 24.0958C113.231 24.081 113.209 24.0673 113.186 24.0549C113.173 24.0484 113.158 24.0446 113.144 24.0436C113.129 24.0427 113.114 24.0446 113.101 24.0494C113.087 24.0541 113.074 24.0615 113.063 24.0712C113.052 24.0809 113.043 24.0927 113.036 24.1058C113.03 24.119 113.026 24.1333 113.025 24.148C113.024 24.1626 113.026 24.1773 113.031 24.1912C113.036 24.2051 113.043 24.2179 113.053 24.2289C113.062 24.2399 113.074 24.2489 113.087 24.2554C113.096 24.2601 113.109 24.2694 113.129 24.2821C113.684 24.6509 114.336 24.8458 115.003 24.8416V24.8416Z" fill="#0C0C0C"/>
<path opacity="0.52" d="M115.037 25.9007C115.166 25.9003 115.296 25.8889 115.423 25.8666C115.437 25.8641 115.451 25.8589 115.464 25.8511C115.476 25.8433 115.487 25.8331 115.495 25.8211C115.504 25.8092 115.51 25.7956 115.513 25.7814C115.516 25.7671 115.517 25.7523 115.514 25.7378C115.512 25.7234 115.506 25.7095 115.499 25.6971C115.491 25.6847 115.481 25.674 115.469 25.6655C115.457 25.657 115.443 25.651 115.429 25.6477C115.415 25.6445 115.4 25.6441 115.385 25.6465C115.186 25.6965 114.978 25.7034 114.775 25.6668C114.573 25.6301 114.38 25.5507 114.211 25.4339C114.189 25.4151 114.16 25.4057 114.131 25.4078C114.102 25.41 114.075 25.4234 114.055 25.4453C114.036 25.4672 114.026 25.4958 114.027 25.525C114.029 25.5541 114.042 25.5815 114.063 25.6013C114.344 25.8107 114.688 25.9165 115.037 25.9007V25.9007Z" fill="#0C0C0C"/>
<path d="M118.571 19.0855C118.911 19.0855 119.186 18.8101 119.186 18.4705C119.186 18.1308 118.911 17.8555 118.571 17.8555C118.231 17.8555 117.956 18.1308 117.956 18.4705C117.956 18.8101 118.231 19.0855 118.571 19.0855Z" fill="#0C0C0C"/>
<path d="M112.591 19.7844C112.931 19.7844 113.206 19.5091 113.206 19.1695C113.206 18.8298 112.931 18.5545 112.591 18.5545C112.251 18.5545 111.976 18.8298 111.976 19.1695C111.976 19.5091 112.251 19.7844 112.591 19.7844Z" fill="#0C0C0C"/>
<path d="M105.067 25.0644C103.577 25.3536 102.06 23.9944 101.77 22.5047C101.481 21.015 102.529 19.9592 104.019 19.67L104.98 20.519L106.347 24.8158L105.067 25.0644Z" fill="#E98862"/>
<path d="M106.118 22.3962C106.118 22.3962 105.285 14.9213 107.442 14.0602C108.878 13.4865 112.877 14.947 116.111 13.7022C117.525 13.1573 118.982 13.2683 119.249 13.935C119.355 14.1988 119.555 10.0951 116.719 7.52144C114.461 5.47255 108.361 5.88264 105.782 7.15537C98.6413 10.6794 103.77 20.0501 103.77 20.0501L104.567 22.5348L106.118 22.3962Z" fill="#0C0C0C"/>
<g opacity="0.52">
<path d="M115.92 22.9904H115.929C116.41 22.8974 117.205 22.6907 117.138 22.3314C117.081 22.0335 115.65 18.976 115.488 18.6285C115.481 18.6137 115.471 18.6004 115.459 18.5894C115.447 18.5784 115.433 18.5699 115.417 18.5643C115.402 18.5588 115.386 18.5563 115.369 18.557C115.353 18.5578 115.337 18.5618 115.322 18.5687C115.307 18.5756 115.294 18.5854 115.283 18.5975C115.272 18.6096 115.264 18.6237 115.258 18.6391C115.252 18.6544 115.25 18.6707 115.251 18.6871C115.251 18.7034 115.255 18.7194 115.262 18.7342C115.897 20.0882 116.854 22.1749 116.893 22.3779C116.862 22.4709 116.381 22.6504 115.884 22.7455C115.851 22.7504 115.822 22.7682 115.802 22.7949C115.782 22.8216 115.774 22.8551 115.779 22.8879C115.784 22.9208 115.801 22.9504 115.828 22.9702C115.855 22.99 115.888 22.9984 115.921 22.9935L115.92 22.9904Z" fill="#0C0C0C"/>
</g>
<path d="M116.259 15.4984C116.74 15.268 117.274 15.1716 117.805 15.2195C118.065 15.2414 118.321 15.3022 118.563 15.3999C118.803 15.495 119.029 15.62 119.237 15.7718C119.276 15.7985 119.302 15.8392 119.312 15.8852C119.321 15.9313 119.312 15.9791 119.287 16.0187C119.261 16.0582 119.222 16.0864 119.176 16.0974C119.13 16.1083 119.082 16.101 119.042 16.0772L119.028 16.0722C118.839 15.9517 118.636 15.8554 118.423 15.7855C118.214 15.7157 117.996 15.6779 117.775 15.6736C117.341 15.6615 116.911 15.7644 116.529 15.9721L116.513 15.9811C116.482 15.9988 116.447 16.0103 116.412 16.0148C116.376 16.0193 116.34 16.0167 116.306 16.0073C116.271 15.9979 116.239 15.9818 116.211 15.9598C116.182 15.9379 116.159 15.9106 116.141 15.8796C116.123 15.8485 116.112 15.8142 116.107 15.7787C116.103 15.7432 116.105 15.7072 116.115 15.6726C116.124 15.6381 116.14 15.6058 116.162 15.5775C116.184 15.5492 116.211 15.5255 116.242 15.5077L116.259 15.4984Z" fill="#0C0C0C"/>
<path d="M112.733 16.4513C112.315 16.3341 111.873 16.3295 111.452 16.438C111.238 16.4912 111.033 16.5766 110.845 16.6912C110.652 16.8066 110.475 16.9456 110.318 17.105L110.308 17.1149C110.274 17.1478 110.228 17.1661 110.181 17.166C110.134 17.1658 110.088 17.1472 110.055 17.1141C110.021 17.081 110.001 17.036 110 16.9887C109.999 16.9415 110.017 16.8957 110.049 16.8611C110.218 16.6663 110.411 16.4938 110.623 16.3474C110.837 16.1982 111.073 16.0819 111.322 16.0024C111.571 15.9204 111.83 15.8728 112.092 15.8611C112.361 15.8463 112.629 15.8697 112.891 15.9305C112.961 15.947 113.022 15.9907 113.061 16.0521C113.099 16.1135 113.111 16.1875 113.094 16.2579C113.078 16.3282 113.034 16.3892 112.973 16.4273C112.912 16.4655 112.837 16.4776 112.767 16.4612L112.751 16.4569L112.733 16.4513Z" fill="#0C0C0C"/>
<path d="M114.619 10.5462C115.683 10.1153 116.031 8.49716 115.396 6.93201C114.762 5.36685 113.386 4.44738 112.322 4.87831C111.259 5.30923 110.911 6.92738 111.546 8.49253C112.18 10.0577 113.556 10.9772 114.619 10.5462Z" fill="#0C0C0C"/>
<path d="M132.868 43.5943C132.905 46.164 131.901 49.0529 131.566 52.9647C131.498 53.7582 131.337 55.5064 131.123 57.7847C130.773 61.557 130.277 66.7738 129.843 71.476C123.637 74.7333 116.65 76.209 109.657 75.7396C102.664 75.2701 95.9374 72.874 90.2225 68.8164C90.0861 68.7142 89.9497 68.615 89.8133 68.5189C89.4506 63.2029 89.0229 57.6235 88.6323 54.0991C87.8977 47.5185 86.8965 44.2421 87.4575 42.029C87.5025 41.8405 87.5626 41.656 87.6373 41.4772C89.2523 37.5592 94.3946 35.811 97.8787 35.3399C100.005 35.0516 103.204 34.8439 103.204 34.8439C103.204 34.8439 103.474 40.3241 109.93 40.6279C118.721 41.0433 118.135 34.8439 118.179 34.8439C119.601 34.8439 127.354 35.8792 129.291 37.1439C129.616 37.3547 129.926 37.5867 130.221 37.8382C131.063 38.5402 131.737 39.4213 132.195 40.4171C132.653 41.4129 132.883 42.4984 132.868 43.5943Z" fill="#383838"/>
<path d="M100.501 47.5681L90.2226 68.8165C90.0862 68.7142 89.9498 68.615 89.8134 68.5189C85.8289 65.5972 82.4496 61.9296 79.8634 57.7196L87.4576 42.029L87.7583 41.4059L100.501 47.5681Z" fill="#383838"/>
<path d="M99.5092 50.0137L90.1605 68.7699C90.0985 68.7234 90.0397 68.68 89.9777 68.6397L99.3139 49.9176C99.3273 49.8916 99.3504 49.8718 99.3782 49.8625C99.406 49.8533 99.4363 49.8552 99.4627 49.8681C99.4882 49.8812 99.5074 49.904 99.5161 49.9313C99.5248 49.9586 99.5223 49.9882 99.5092 50.0137V50.0137Z" fill="white"/>
<path d="M146.91 53.1754C145.046 57.3984 142.43 61.2468 139.188 64.5327L131.123 57.7847L120.878 49.2109L130.221 37.8382L130.249 37.8041L146.91 53.1754Z" fill="#383838"/>
<path d="M131.247 57.8674C131.274 57.8661 131.298 57.8553 131.317 57.837C131.336 57.8187 131.348 57.7942 131.35 57.7679L131.883 51.5282C131.885 51.4994 131.876 51.4708 131.857 51.4487C131.839 51.4265 131.812 51.4127 131.783 51.4101C131.755 51.4081 131.726 51.4173 131.704 51.4358C131.682 51.4543 131.668 51.4807 131.666 51.5093L131.133 57.7493C131.131 57.7781 131.14 57.8066 131.159 57.8287C131.177 57.8508 131.204 57.8646 131.233 57.8671L131.247 57.8674Z" fill="white"/>
<path d="M290.712 239.993C310.683 239.993 326.872 223.804 326.872 203.833C326.872 183.862 310.683 167.673 290.712 167.673C270.742 167.673 254.552 183.862 254.552 203.833C254.552 223.804 270.742 239.993 290.712 239.993Z" fill="white"/>
<path opacity="0.09" d="M254.552 203.832C254.552 210.984 256.673 217.975 260.646 223.921C264.619 229.868 270.266 234.502 276.874 237.239C283.481 239.976 290.751 240.692 297.766 239.297C304.78 237.902 311.223 234.458 316.28 229.401C321.337 224.344 324.781 217.901 326.176 210.887C327.571 203.873 326.855 196.602 324.118 189.995C321.382 183.388 316.747 177.74 310.8 173.767C304.854 169.794 297.863 167.673 290.711 167.673C285.958 167.656 281.248 168.579 276.853 170.39C272.458 172.201 268.465 174.864 265.104 178.225C261.743 181.586 259.08 185.579 257.269 189.974C255.458 194.369 254.535 199.079 254.552 203.832V203.832Z" fill="#367CFF"/>
<path d="M307.12 183.879C306.543 190.574 307.078 192.844 309.858 196.681C312.203 199.915 298.861 197.166 292.958 196.114L298.167 180.889C298.167 180.889 307.323 181.528 307.12 183.879Z" fill="#0A0A0A"/>
<path d="M286.754 181.093C285.012 187.584 285.208 189.592 281.799 193C278.975 195.825 289.984 196.399 295.891 197.426L296.19 181.338C296.19 181.338 287.366 178.814 286.754 181.093Z" fill="#0A0A0A"/>
<path d="M287.341 199.971C287.38 199.966 287.812 207.144 296.151 206.518C301.923 206.085 303.981 199.961 304.114 199.961C303.454 199.851 302.803 199.693 302.167 199.489C301.258 199 300.133 198.492 299.84 196.727C299.671 195.709 299.958 190.504 299.87 189.474L291.009 191.451C291.133 193.626 292.001 198.666 288.963 199.557C288.457 199.706 287.912 199.842 287.341 199.971Z" fill="#E98862"/>
<path opacity="0.5" d="M290.884 197.499C291.023 197.052 291.113 196.59 291.151 196.124C291.249 195.058 291.229 193.986 291.093 192.925C292.894 192.682 294.591 191.939 295.991 190.779C296.155 191.387 297.06 194.042 296.81 194.62C296.336 195.711 294.111 197.499 290.884 197.499Z" fill="#0C0C0C"/>
<path d="M292.03 195.263C295.524 195.601 300.044 194.203 300.98 189.551L301.825 185.353C302.762 180.701 301.077 176.437 296.697 175.556C292.317 174.674 288.283 177.788 287.347 182.439L286.973 184.299C286.614 186.083 285.797 194.66 292.03 195.263Z" fill="#E98862"/>
<path d="M306.053 186.678L302.113 186.246C294.402 184.829 292.514 178.607 292.514 178.607C292.514 178.607 289.279 182.925 286.533 181.933C286.533 181.933 287.418 171.521 299.61 173.351C304.4 174.07 307.12 178.041 307.12 183.367C307.12 187.283 306.053 186.678 306.053 186.678Z" fill="#0A0A0A"/>
<path opacity="0.1" d="M295.381 188.525C295.432 188.104 295.006 187.706 294.431 187.637C293.857 187.569 293.35 187.855 293.299 188.277C293.249 188.699 293.674 189.096 294.249 189.165C294.824 189.233 295.331 188.947 295.381 188.525Z" fill="#0C0C0C"/>
<path opacity="0.1" d="M288.178 187.48C288.126 187.901 287.62 188.187 287.045 188.12C286.945 188.108 286.847 188.085 286.753 188.053C286.726 187.551 286.724 187.068 286.739 186.621C286.899 186.581 287.064 186.571 287.227 186.592C287.801 186.66 288.226 187.058 288.178 187.48Z" fill="#0C0C0C"/>
<path opacity="0.5" d="M290.717 188.782H290.708C290.531 188.745 290.355 188.698 290.183 188.642C289.926 188.556 289.589 188.415 289.636 188.182C289.69 187.917 290.991 185.203 291.14 184.894C291.146 184.881 291.155 184.868 291.166 184.858C291.177 184.848 291.19 184.84 291.204 184.834C291.218 184.829 291.233 184.827 291.248 184.828C291.263 184.828 291.278 184.832 291.291 184.839C291.305 184.845 291.317 184.854 291.327 184.866C291.337 184.877 291.345 184.89 291.35 184.904C291.354 184.919 291.356 184.934 291.355 184.949C291.354 184.964 291.35 184.979 291.343 184.992C290.787 186.148 289.893 188.048 289.857 188.227C290.125 188.408 290.432 188.523 290.752 188.561C290.781 188.567 290.806 188.584 290.822 188.607C290.839 188.631 290.845 188.661 290.841 188.689C290.836 188.718 290.821 188.744 290.798 188.761C290.775 188.779 290.746 188.787 290.717 188.784V188.782Z" fill="#0C0C0C"/>
<path d="M300.423 190.914C301.754 191.181 303.12 189.975 303.388 188.643C303.656 187.312 302.725 186.361 301.393 186.093L300.528 186.847L299.279 190.683L300.423 190.914Z" fill="#E98862"/>
<path d="M290.196 182.729C290.031 182.612 289.852 182.518 289.663 182.45C289.471 182.378 289.27 182.333 289.066 182.315C288.862 182.296 288.656 182.307 288.456 182.349C288.253 182.39 288.057 182.457 287.871 182.547L287.865 182.55C287.845 182.557 287.823 182.556 287.803 182.548C287.783 182.54 287.767 182.525 287.758 182.506C287.749 182.486 287.747 182.464 287.754 182.444C287.76 182.423 287.773 182.406 287.792 182.395C287.989 182.291 288.198 182.212 288.415 182.16C288.633 182.107 288.858 182.087 289.082 182.101C289.536 182.126 289.975 182.273 290.353 182.526C290.38 182.545 290.399 182.575 290.405 182.608C290.41 182.641 290.403 182.676 290.384 182.704C290.365 182.731 290.336 182.751 290.303 182.758C290.27 182.764 290.235 182.758 290.207 182.74L290.204 182.738L290.196 182.729Z" fill="#0C0C0C"/>
<path d="M293.783 183.225C294.229 183.136 294.69 183.168 295.119 183.319C295.332 183.392 295.532 183.496 295.713 183.629C295.893 183.76 296.057 183.912 296.199 184.084C296.214 184.101 296.222 184.123 296.221 184.146C296.22 184.169 296.21 184.19 296.193 184.206C296.176 184.221 296.154 184.229 296.131 184.228C296.108 184.227 296.087 184.217 296.071 184.2L296.067 184.195C295.93 184.041 295.773 183.904 295.602 183.789C295.432 183.673 295.247 183.584 295.05 183.524C294.661 183.402 294.247 183.385 293.849 183.475L293.839 183.477C293.806 183.485 293.77 183.48 293.741 183.462C293.712 183.444 293.69 183.416 293.682 183.382C293.674 183.349 293.679 183.314 293.697 183.284C293.715 183.255 293.744 183.234 293.777 183.225L293.783 183.225Z" fill="#0C0C0C"/>
<path d="M273.911 235.858C272.49 235.238 271.426 234.575 268.999 232.746C267.247 231.431 265.619 229.959 264.136 228.349L276.599 204.632L277.141 203.601L288.383 209.511L278.632 228.069L278.587 228.151L278.671 228.481" fill="#EA394A"/>
<path d="M315.362 216.779C315.035 220.296 314.964 225.766 314.987 230.629C310.287 234.892 304.548 237.842 298.346 239.183C292.144 240.525 285.699 240.209 279.658 238.269C278.919 230.936 277.819 220.158 277.2 213.522C276.572 206.648 274.725 204.378 279.765 201.086C282.542 199.672 286.945 199.548 288.924 199.548C288.252 206.064 301.984 206.866 302.325 199.548C312.595 200.508 317.35 200.747 315.362 216.779Z" fill="#EA394A"/>
<path d="M289.545 189.699C290.68 190.276 291.976 190.459 293.226 190.217C293.269 190.209 293.314 190.213 293.355 190.23C293.396 190.246 293.432 190.274 293.457 190.31C293.483 190.345 293.498 190.388 293.501 190.432C293.504 190.476 293.494 190.52 293.472 190.558C293.1 191.215 292.215 192.338 290.698 191.881C289.719 191.585 289.349 190.579 289.21 189.954C289.201 189.911 289.204 189.866 289.219 189.824C289.234 189.782 289.261 189.746 289.296 189.719C289.331 189.692 289.374 189.676 289.418 189.672C289.462 189.669 289.506 189.678 289.545 189.699V189.699Z" fill="white"/>
<path d="M289.474 184.651C289.777 184.651 290.023 184.405 290.023 184.102C290.023 183.8 289.777 183.554 289.474 183.554C289.172 183.554 288.926 183.8 288.926 184.102C288.926 184.405 289.172 184.651 289.474 184.651Z" fill="#0C0C0C"/>
<path d="M294.745 185.573C295.048 185.573 295.293 185.328 295.293 185.025C295.293 184.722 295.048 184.477 294.745 184.477C294.442 184.477 294.197 184.722 294.197 185.025C294.197 185.328 294.442 185.573 294.745 185.573Z" fill="#0C0C0C"/>
<path d="M278.414 225.36H278.424C278.447 225.357 278.467 225.345 278.48 225.327C278.494 225.309 278.5 225.286 278.497 225.264L277.527 215.496C277.526 215.485 277.522 215.474 277.517 215.464C277.511 215.455 277.504 215.446 277.495 215.439C277.486 215.433 277.476 215.428 277.465 215.425C277.454 215.422 277.443 215.422 277.431 215.424C277.42 215.425 277.41 215.429 277.4 215.435C277.391 215.44 277.382 215.448 277.375 215.456C277.369 215.465 277.364 215.475 277.361 215.486C277.358 215.497 277.358 215.508 277.359 215.519L278.329 225.288C278.332 225.308 278.342 225.326 278.358 225.34C278.373 225.353 278.393 225.36 278.414 225.36V225.36Z" fill="#0C0C0C"/>
<path d="M277.146 217.921H267.249V230.059H277.146V217.921Z" fill="white"/>
<path d="M273.093 223.99C273.094 223.188 273.331 222.405 273.777 221.738C274.222 221.072 274.856 220.552 275.596 220.246C276.337 219.939 277.152 219.859 277.938 220.016C278.724 220.172 279.446 220.558 280.013 221.125C280.58 221.692 280.966 222.414 281.122 223.2C281.278 223.987 281.198 224.802 280.891 225.542C280.584 226.283 280.065 226.916 279.398 227.361C278.731 227.806 277.948 228.044 277.146 228.044C276.072 228.043 275.041 227.615 274.281 226.855C273.522 226.095 273.094 225.064 273.093 223.99V223.99ZM274.753 223.99C274.753 224.463 274.894 224.926 275.157 225.319C275.419 225.713 275.793 226.019 276.23 226.201C276.668 226.382 277.149 226.429 277.613 226.337C278.077 226.244 278.504 226.016 278.838 225.682C279.173 225.347 279.401 224.921 279.493 224.457C279.586 223.992 279.538 223.511 279.357 223.074C279.176 222.637 278.869 222.263 278.476 222C278.082 221.737 277.62 221.597 277.146 221.597C276.512 221.598 275.904 221.85 275.455 222.298C275.006 222.747 274.754 223.355 274.753 223.99V223.99Z" fill="white"/>
<path d="M277.068 225.492C277.101 225.286 277.205 225.099 277.363 224.963C277.52 224.827 277.72 224.751 277.928 224.748C277.923 224.74 277.918 224.73 277.916 224.72L277.621 224.656C277.416 224.616 277.231 224.505 277.097 224.344C276.964 224.183 276.891 223.98 276.889 223.771C276.891 223.639 276.922 223.51 276.98 223.392C277.038 223.274 277.121 223.171 277.224 223.089C277.327 223.007 277.447 222.949 277.575 222.919C277.703 222.889 277.836 222.888 277.964 222.916L278.659 223.066C278.659 223.064 278.659 223.061 278.659 223.058C278.661 223.053 278.663 223.047 278.665 223.042C278.484 222.957 278.337 222.813 278.248 222.634C278.16 222.454 278.134 222.25 278.176 222.054C278.252 221.54 278.869 221.371 279.321 221.468L281.122 221.791L280.514 221.388C280.323 221.255 280.188 221.054 280.139 220.826C280.089 220.598 280.128 220.36 280.247 220.16C280.313 220.058 280.398 219.971 280.498 219.904C280.598 219.837 280.71 219.791 280.829 219.768C280.947 219.746 281.069 219.748 281.186 219.774C281.304 219.8 281.415 219.85 281.512 219.921L288.772 228.228L287.16 227.497C286.66 228.232 285.951 228.802 285.125 229.132C284.299 229.463 283.393 229.539 282.523 229.351L278.587 228.493C278.381 228.452 278.196 228.342 278.063 228.181C277.929 228.019 277.855 227.817 277.854 227.607C277.857 227.418 277.92 227.235 278.035 227.084C278.149 226.934 278.308 226.824 278.489 226.77C278.484 226.757 278.482 226.742 278.483 226.728C278.486 226.714 278.491 226.702 278.499 226.691C278.508 226.68 278.519 226.672 278.531 226.666L277.805 226.509C277.576 226.465 277.372 226.335 277.235 226.146C277.099 225.957 277.039 225.723 277.068 225.492V225.492Z" fill="#E98862"/>
<path opacity="0.2" d="M279.974 223.359C279.993 223.355 280.01 223.344 280.022 223.329C280.034 223.314 280.04 223.295 280.04 223.276C280.04 223.256 280.033 223.238 280.02 223.223C280.007 223.208 279.99 223.198 279.971 223.195L278.755 222.989C278.744 222.987 278.733 222.987 278.722 222.989C278.711 222.991 278.7 222.995 278.691 223.002C278.682 223.008 278.674 223.016 278.668 223.026C278.662 223.035 278.657 223.046 278.656 223.057C278.654 223.068 278.654 223.079 278.657 223.09C278.659 223.101 278.664 223.111 278.671 223.12C278.677 223.129 278.686 223.137 278.696 223.143C278.705 223.148 278.716 223.152 278.727 223.153L279.943 223.359C279.953 223.361 279.964 223.361 279.974 223.359Z" fill="#0C0C0C"/>
<path opacity="0.2" d="M279.681 225.079C279.7 225.075 279.716 225.064 279.729 225.049C279.741 225.034 279.747 225.015 279.747 224.996C279.746 224.976 279.739 224.958 279.727 224.943C279.714 224.928 279.697 224.918 279.678 224.915L278.012 224.62C278.001 224.617 277.99 224.617 277.979 224.619C277.968 224.621 277.957 224.625 277.948 224.631C277.938 224.637 277.93 224.646 277.924 224.655C277.918 224.664 277.913 224.675 277.911 224.686C277.909 224.697 277.91 224.709 277.912 224.72C277.915 224.731 277.92 224.741 277.926 224.75C277.933 224.759 277.942 224.767 277.951 224.773C277.961 224.778 277.972 224.782 277.983 224.784L279.649 225.079C279.659 225.081 279.67 225.081 279.681 225.079V225.079Z" fill="#0C0C0C"/>
<path opacity="0.2" d="M279.375 226.943C279.394 226.939 279.411 226.929 279.423 226.913C279.435 226.898 279.441 226.879 279.441 226.859C279.44 226.84 279.433 226.821 279.42 226.807C279.407 226.792 279.389 226.782 279.37 226.779L278.58 226.659C278.559 226.657 278.538 226.663 278.521 226.676C278.504 226.689 278.493 226.708 278.49 226.729C278.486 226.75 278.491 226.772 278.503 226.789C278.516 226.807 278.534 226.819 278.555 226.823L279.345 226.944C279.355 226.946 279.365 226.946 279.375 226.943V226.943Z" fill="#0C0C0C"/>
<path d="M320.404 224.465C315.951 230.869 309.551 235.667 302.154 238.145L302.151 238.143C300.509 237.821 284.837 231.633 282.764 231.227L285.032 220.645C290.856 221.804 301.479 226.272 307.337 227.435L303.204 208.698C303.054 207.871 303.07 207.022 303.251 206.2C303.432 205.379 303.774 204.602 304.258 203.913C304.742 203.225 305.357 202.64 306.069 202.192C306.78 201.743 307.574 201.44 308.403 201.301C309.232 201.161 310.081 201.188 310.9 201.379C311.719 201.57 312.492 201.922 313.174 202.414C313.857 202.906 314.434 203.528 314.874 204.245C315.314 204.962 315.607 205.76 315.736 206.591L320.404 224.465Z" fill="#EA394A"/>
<path d="M311.776 228.814C311.797 228.814 311.818 228.806 311.833 228.791C311.848 228.777 311.858 228.757 311.859 228.736C311.861 228.715 311.855 228.694 311.842 228.677C311.829 228.661 311.81 228.649 311.789 228.646L307.385 227.152C307.374 227.15 307.363 227.15 307.352 227.153C307.341 227.156 307.331 227.16 307.322 227.167C307.313 227.174 307.305 227.182 307.299 227.192C307.294 227.201 307.29 227.212 307.289 227.223C307.285 227.245 307.291 227.268 307.304 227.286C307.318 227.304 307.338 227.316 307.36 227.319L311.764 228.813C311.768 228.814 311.772 228.814 311.776 228.814V228.814Z" fill="#0C0C0C"/>
<path d="M307.453 227.223C307.455 227.25 307.447 227.276 307.43 227.297C307.42 227.306 307.409 227.313 307.396 227.317C307.383 227.321 307.37 227.322 307.356 227.319L285.173 220.772L282.95 231.187L302.053 238.176C301.993 238.196 301.931 238.215 301.872 238.235C301.829 238.25 301.787 238.263 301.742 238.275L282.826 231.329C282.805 231.324 282.786 231.31 282.775 231.291C282.763 231.272 282.759 231.249 282.764 231.228L285.032 220.646C285.035 220.635 285.04 220.625 285.047 220.616C285.053 220.608 285.062 220.6 285.072 220.595C285.081 220.588 285.092 220.584 285.103 220.582C285.114 220.58 285.126 220.581 285.137 220.584L307.266 227.14L304.761 216.81C304.758 216.788 304.764 216.766 304.777 216.748C304.79 216.73 304.81 216.718 304.832 216.714C304.843 216.712 304.854 216.712 304.865 216.715C304.876 216.717 304.886 216.721 304.895 216.728C304.905 216.734 304.912 216.742 304.919 216.751C304.925 216.761 304.929 216.771 304.931 216.782L307.453 227.223Z" fill="#0C0C0C"/>
<path d="M18.185 213.725C18.1643 213.725 18.1439 213.721 18.1248 213.713C18.1061 213.705 18.089 213.694 18.0747 213.679C18.0604 213.665 18.0491 213.648 18.0414 213.629C18.0337 213.61 18.0298 213.59 18.0299 213.57C18.03 213.549 18.0342 213.529 18.0421 213.51L24.1156 199.074C24.1316 199.036 24.162 199.006 24.2001 198.991C24.2382 198.975 24.2809 198.976 24.3188 198.992C24.3567 199.008 24.3867 199.038 24.4022 199.076C24.4176 199.114 24.4174 199.157 24.4014 199.195L18.3279 213.63C18.3161 213.658 18.2962 213.683 18.2708 213.699C18.2454 213.716 18.2155 213.725 18.185 213.725Z" fill="#0C0C0C"/>
<path d="M53.9236 213.889H53.9168C53.8965 213.89 53.8761 213.887 53.857 213.88C53.8379 213.873 53.8203 213.863 53.8053 213.849C53.7902 213.835 53.7781 213.819 53.7694 213.8C53.7608 213.782 53.7559 213.762 53.755 213.742L53.078 198.977C53.0775 198.936 53.0924 198.896 53.1198 198.866C53.1472 198.836 53.185 198.818 53.2256 198.814C53.2459 198.813 53.2663 198.817 53.2854 198.823C53.3046 198.83 53.3222 198.841 53.3373 198.855C53.3523 198.868 53.3645 198.885 53.3732 198.903C53.3818 198.922 53.3868 198.942 53.3877 198.962L54.0646 213.727C54.0666 213.767 54.0531 213.807 54.0268 213.837C54.0005 213.867 53.9635 213.886 53.9236 213.889Z" fill="#0C0C0C"/>
</svg>
