<svg width="227" height="220" viewBox="0 0 227 220" fill="none" xmlns="http://www.w3.org/2000/svg">
<path d="M187.903 0H77.3397V110.563H187.903V0Z" fill="#F4F4F4"/>
<path d="M189.17 0H187.903V110.563H189.17V0Z" fill="#F4F4F4"/>
<path opacity="0.05" d="M189.17 0H187.903V110.563H189.17V0Z" fill="#292A2E"/>
<path opacity="0.05" d="M161.119 76.1874V47.2602H137.423V64.0663H100.719V93.8234H85.1189V110.563H100.719H103.724H182.585V76.1874H161.119Z" fill="#292A2E"/>
<path opacity="0.34" d="M157.72 50.401H140.465V53.5418H157.72V50.401Z" fill="#FFFFFA"/>
<path opacity="0.34" d="M157.72 56.9095H140.465V60.0504H157.72V56.9095Z" fill="#FFFFFA"/>
<path opacity="0.34" d="M157.72 63.4182H140.465V66.559H157.72V63.4182Z" fill="#FFFFFA"/>
<path opacity="0.34" d="M179.525 79.236H176.345V82.3768H179.525V79.236Z" fill="#FFFFFA"/>
<path opacity="0.34" d="M179.525 85.7446H176.345V88.8854H179.525V85.7446Z" fill="#FFFFFA"/>
<path opacity="0.34" d="M179.525 92.2529H176.345V95.3937H179.525V92.2529Z" fill="#FFFFFA"/>
<path opacity="0.34" d="M173.641 79.236H170.461V82.3768H173.641V79.236Z" fill="#FFFFFA"/>
<path opacity="0.34" d="M173.641 85.7446H170.461V88.8854H173.641V85.7446Z" fill="#FFFFFA"/>
<path opacity="0.34" d="M173.641 92.2529H170.461V95.3937H173.641V92.2529Z" fill="#FFFFFA"/>
<path opacity="0.34" d="M167.916 79.236H164.736V82.3768H167.916V79.236Z" fill="#FFFFFA"/>
<path opacity="0.34" d="M167.916 85.7446H164.736V88.8854H167.916V85.7446Z" fill="#FFFFFA"/>
<path opacity="0.34" d="M167.916 92.2529H164.736V95.3937H167.916V92.2529Z" fill="#FFFFFA"/>
<path d="M187.903 54.6615H165.656V0H163.816V54.6615H103.724V0H101.884V54.6615H77.3397V56.5014H101.884V110.563H103.724V56.5014H163.816V110.563H165.656V56.5014H187.903V54.6615Z" fill="white"/>
<path d="M192.308 110.43H72.9353V114.107H192.308V110.43Z" fill="#F4F4F4"/>
<path opacity="0.1" d="M192.308 110.43H72.9353V114.107H192.308V110.43Z" fill="#292A2E"/>
<path opacity="0.1" d="M194.031 110.43H192.308V114.107H194.031V110.43Z" fill="#292A2E"/>
<path opacity="0.1" d="M194.031 110.43H192.308V114.107H194.031V110.43Z" fill="#292A2E"/>
<path d="M189.17 1.97363H77.3397V4.70751H189.17V1.97363Z" fill="white"/>
<path d="M189.17 7.0799H77.3397V9.81377H189.17V7.0799Z" fill="white"/>
<path d="M189.17 12.1859H77.3397V14.9198H189.17V12.1859Z" fill="white"/>
<path d="M189.17 17.2922H77.3397V20.0261H189.17V17.2922Z" fill="white"/>
<path d="M189.17 22.3985H77.3397V25.1323H189.17V22.3985Z" fill="white"/>
<path d="M177.292 0H175.617V28.2154H177.292V0Z" fill="white"/>
<path d="M176.597 32.2676C177.868 32.2676 178.899 31.2368 178.899 29.9652C178.899 28.6936 177.868 27.6628 176.597 27.6628C175.325 27.6628 174.294 28.6936 174.294 29.9652C174.294 31.2368 175.325 32.2676 176.597 32.2676Z" fill="white"/>
<path d="M219.834 220H0.178702C0.155234 220 0.131997 219.995 0.110315 219.986C0.0886344 219.977 0.0689345 219.964 0.0523405 219.948C0.0357465 219.931 0.0225835 219.911 0.0136029 219.89C0.00462226 219.868 0 219.845 0 219.821C0 219.798 0.00462226 219.775 0.0136029 219.753C0.0225835 219.731 0.0357465 219.712 0.0523405 219.695C0.0689345 219.678 0.0886344 219.665 0.110315 219.656C0.131997 219.647 0.155234 219.643 0.178702 219.643H219.834C219.881 219.643 219.926 219.661 219.96 219.695C219.993 219.728 220.012 219.774 220.012 219.821C220.012 219.869 219.993 219.914 219.96 219.948C219.926 219.981 219.881 220 219.834 220H219.834Z" fill="#292A2E"/>
<g opacity="0.65">
<path d="M219.834 220H0.178702C0.155234 220 0.131997 219.995 0.110315 219.986C0.0886344 219.977 0.0689345 219.964 0.0523405 219.948C0.0357465 219.931 0.0225835 219.911 0.0136029 219.89C0.00462226 219.868 0 219.845 0 219.821C0 219.798 0.00462226 219.775 0.0136029 219.753C0.0225835 219.731 0.0357465 219.712 0.0523405 219.695C0.0689345 219.678 0.0886344 219.665 0.110315 219.656C0.131997 219.647 0.155234 219.643 0.178702 219.643H219.834C219.881 219.643 219.926 219.661 219.96 219.695C219.993 219.728 220.012 219.774 220.012 219.821C220.012 219.869 219.993 219.914 219.96 219.948C219.926 219.981 219.881 220 219.834 220H219.834Z" fill="#292A2E"/>
</g>
<path d="M15.4712 219.686L14.9698 219.589L22.8062 141.718L23.3075 141.815L15.4712 219.686Z" fill="#494949"/>
<path d="M44.6501 219.686L44.1487 219.589L51.985 141.718L52.4862 141.815L44.6501 219.686Z" fill="#494949"/>
<path d="M109.148 219.686L109.649 219.589L101.813 141.718L101.312 141.815L109.148 219.686Z" fill="#494949"/>
<path d="M79.9695 219.686L80.4706 219.589L72.6345 141.718L72.1331 141.815L79.9695 219.686Z" fill="#494949"/>
<path d="M69.577 107.447L69.0709 107.515L73.6487 141.801L74.1548 141.733L69.577 107.447Z" fill="#494949"/>
<path d="M17.0325 107.447L16.5264 107.514L21.1042 141.801L21.6103 141.733L17.0325 107.447Z" fill="#494949"/>
<path d="M74.1111 139.256H22.7165C21.3299 139.256 20.2058 140.38 20.2058 141.767V141.767C20.2058 143.153 21.3299 144.278 22.7165 144.278H74.1111C75.4978 144.278 76.6219 143.153 76.6219 141.767V141.767C76.6219 140.38 75.4978 139.256 74.1111 139.256Z" fill="#292A2E"/>
<path opacity="0.8" d="M74.1111 139.256H22.7165C21.3299 139.256 20.2058 140.38 20.2058 141.767V141.767C20.2058 143.153 21.3299 144.278 22.7165 144.278H74.1111C75.4978 144.278 76.6219 143.153 76.6219 141.767V141.767C76.6219 140.38 75.4978 139.256 74.1111 139.256Z" fill="white"/>
<path d="M74.1101 144.533H22.7165C21.9875 144.526 21.2907 144.231 20.7777 143.713C20.2646 143.195 19.9768 142.496 19.9768 141.767C19.9768 141.038 20.2646 140.338 20.7777 139.82C21.2907 139.302 21.9875 139.007 22.7165 139H74.1101C74.8391 139.007 75.5359 139.302 76.049 139.82C76.562 140.338 76.8498 141.038 76.8498 141.767C76.8498 142.496 76.562 143.195 76.049 143.713C75.5359 144.231 74.8391 144.526 74.1101 144.533ZM22.7165 139.511C22.1225 139.517 21.5549 139.758 21.137 140.18C20.7192 140.602 20.4848 141.173 20.4848 141.767C20.4848 142.361 20.7192 142.931 21.137 143.353C21.5549 143.776 22.1225 144.016 22.7165 144.022H74.1101C74.7042 144.016 75.2717 143.776 75.6896 143.353C76.1074 142.931 76.3418 142.361 76.3418 141.767C76.3418 141.173 76.1074 140.602 75.6896 140.18C75.2717 139.758 74.7042 139.517 74.1101 139.511H22.7165Z" fill="#292A2E"/>
<path d="M102.319 139.256H50.9246C49.5379 139.256 48.4138 140.38 48.4138 141.767V141.767C48.4138 143.153 49.5379 144.278 50.9246 144.278H102.319C103.706 144.278 104.83 143.153 104.83 141.767V141.767C104.83 140.38 103.706 139.256 102.319 139.256Z" fill="white"/>
<path d="M102.319 144.533H50.9248C50.5593 144.536 50.1968 144.467 49.8581 144.33C49.5194 144.193 49.2113 143.989 48.9516 143.732C48.6919 143.475 48.4858 143.169 48.3451 142.831C48.2044 142.494 48.132 142.132 48.132 141.767C48.132 141.401 48.2044 141.039 48.3451 140.702C48.4858 140.365 48.6919 140.058 48.9516 139.801C49.2113 139.544 49.5194 139.341 49.8581 139.203C50.1968 139.066 50.5593 138.997 50.9248 139H102.319C102.685 138.997 103.047 139.066 103.386 139.203C103.725 139.341 104.033 139.544 104.293 139.801C104.552 140.058 104.758 140.365 104.899 140.702C105.04 141.039 105.112 141.401 105.112 141.767C105.112 142.132 105.04 142.494 104.899 142.831C104.758 143.169 104.552 143.475 104.293 143.732C104.033 143.989 103.725 144.193 103.386 144.33C103.047 144.467 102.685 144.536 102.319 144.533ZM50.9248 139.511C50.6266 139.508 50.3307 139.564 50.0543 139.676C49.7778 139.788 49.5263 139.953 49.3143 140.163C49.1023 140.373 48.934 140.623 48.8191 140.898C48.7043 141.173 48.6451 141.468 48.6451 141.767C48.6451 142.065 48.7043 142.36 48.8191 142.635C48.934 142.911 49.1023 143.16 49.3143 143.37C49.5263 143.58 49.7778 143.746 50.0543 143.858C50.3307 143.969 50.6266 144.025 50.9248 144.022H102.319C102.618 144.025 102.914 143.969 103.19 143.858C103.466 143.746 103.718 143.58 103.93 143.37C104.142 143.16 104.31 142.911 104.425 142.635C104.54 142.36 104.599 142.065 104.599 141.767C104.599 141.468 104.54 141.173 104.425 140.898C104.31 140.623 104.142 140.373 103.93 140.163C103.718 139.953 103.466 139.788 103.19 139.676C102.914 139.564 102.618 139.508 102.319 139.511H50.9248Z" fill="#292A2E"/>
<path d="M66.7616 107.48H16.9174C16.1025 107.48 15.3155 107.184 14.7032 106.646C14.0909 106.108 13.6952 105.366 13.59 104.558L10.293 79.2386C10.2313 78.7653 10.2713 78.2843 10.4103 77.8277C10.5494 77.3711 10.7842 76.9495 11.0991 76.5908C11.4141 76.2322 11.8019 75.9449 12.2367 75.7481C12.6716 75.5513 13.1434 75.4495 13.6206 75.4496H63.4646C64.2795 75.4496 65.0665 75.7461 65.6788 76.2839C66.2911 76.8216 66.6868 77.5638 66.792 78.3719L70.0891 103.691C70.1507 104.165 70.1106 104.646 69.9716 105.102C69.8326 105.559 69.5978 105.98 69.2829 106.339C68.9679 106.697 68.5802 106.985 68.1454 107.182C67.7106 107.378 67.2389 107.48 66.7616 107.48Z" fill="#292A2E"/>
<path opacity="0.8" d="M66.7616 107.48H16.9174C16.1025 107.48 15.3155 107.184 14.7032 106.646C14.0909 106.108 13.6952 105.366 13.59 104.558L10.293 79.2386C10.2313 78.7653 10.2713 78.2843 10.4103 77.8277C10.5494 77.3711 10.7842 76.9495 11.0991 76.5908C11.4141 76.2322 11.8019 75.9449 12.2367 75.7481C12.6716 75.5513 13.1434 75.4495 13.6206 75.4496H63.4646C64.2795 75.4496 65.0665 75.7461 65.6788 76.2839C66.2911 76.8216 66.6868 77.5638 66.792 78.3719L70.0891 103.691C70.1507 104.165 70.1106 104.646 69.9716 105.102C69.8326 105.559 69.5978 105.98 69.2829 106.339C68.9679 106.697 68.5802 106.985 68.1454 107.182C67.7106 107.378 67.2389 107.48 66.7616 107.48Z" fill="white"/>
<path d="M66.7616 107.736H16.9174C16.0411 107.734 15.1953 107.414 14.5369 106.836C13.8784 106.258 13.452 105.46 13.3368 104.591L10.0397 79.272C9.97337 78.7628 10.0164 78.2452 10.166 77.7539C10.3156 77.2626 10.5683 76.8088 10.9072 76.423C11.2461 76.0371 11.6634 75.7279 12.1313 75.5161C12.5991 75.3043 13.1068 75.1948 13.6204 75.1948H63.4646C64.341 75.1968 65.187 75.5166 65.8455 76.095C66.504 76.6733 66.9304 77.4709 67.0455 78.3397L70.3425 103.659C70.4088 104.168 70.3657 104.686 70.216 105.177C70.0664 105.668 69.8137 106.122 69.4748 106.508C69.1359 106.894 68.7186 107.203 68.2507 107.415C67.7829 107.627 67.2752 107.736 66.7616 107.736V107.736ZM13.6204 75.7049C13.1794 75.7049 12.7436 75.799 12.3419 75.9808C11.9402 76.1627 11.5819 76.4281 11.2909 76.7595C11 77.0908 10.783 77.4804 10.6546 77.9022C10.5262 78.324 10.4892 78.7684 10.5462 79.2057L13.843 104.525C13.9419 105.271 14.308 105.956 14.8734 106.452C15.4387 106.949 16.165 107.223 16.9174 107.225H66.7616C67.2027 107.225 67.6386 107.131 68.0404 106.949C68.4422 106.767 68.8005 106.502 69.0915 106.17C69.3825 105.839 69.5994 105.449 69.7278 105.027C69.8562 104.605 69.8931 104.161 69.8361 103.724L66.539 78.4043C66.4401 77.6585 66.074 76.9738 65.5086 76.4774C64.9432 75.981 64.217 75.7065 63.4646 75.7049H13.6204Z" fill="#292A2E"/>
<path d="M69.5803 107.48H19.7361C18.9211 107.48 18.134 107.184 17.5217 106.646C16.9094 106.108 16.5136 105.366 16.4084 104.558L13.1113 79.2386C13.0498 78.7653 13.0898 78.2843 13.2289 77.8278C13.3679 77.3712 13.6028 76.9496 13.9177 76.591C14.2326 76.2324 14.6204 75.9451 15.0552 75.7483C15.49 75.5515 15.9618 75.4496 16.439 75.4496H66.2832C67.0981 75.4496 67.8852 75.7461 68.4976 76.2839C69.1099 76.8216 69.5056 77.5638 69.6109 78.3719L72.9079 103.691C72.9695 104.165 72.9294 104.646 72.7904 105.102C72.6513 105.559 72.4165 105.98 72.1016 106.339C71.7866 106.697 71.3988 106.985 70.9641 107.182C70.5293 107.378 70.0575 107.48 69.5803 107.48Z" fill="white"/>
<path d="M69.5803 107.736H19.7361C18.8598 107.734 18.0139 107.414 17.3554 106.836C16.697 106.258 16.2706 105.46 16.1554 104.591L12.8583 79.272C12.792 78.7628 12.8351 78.2452 12.9847 77.7539C13.1342 77.2626 13.3869 76.8088 13.7258 76.423C14.0647 76.0371 14.482 75.7279 14.9499 75.5161C15.4178 75.3043 15.9254 75.1948 16.439 75.1948H66.2832C67.1596 75.1968 68.0056 75.5166 68.6641 76.0949C69.3226 76.6733 69.7489 77.4709 69.8639 78.3397L73.1609 103.659C73.2273 104.168 73.1842 104.686 73.0346 105.177C72.885 105.668 72.6324 106.122 72.2935 106.508C71.9546 106.894 71.5372 107.203 71.0694 107.415C70.6015 107.627 70.0938 107.736 69.5803 107.736V107.736ZM16.439 75.7049C15.9981 75.7049 15.5622 75.799 15.1605 75.9808C14.7588 76.1627 14.4005 76.4281 14.1095 76.7594C13.8185 77.0908 13.6016 77.4803 13.4731 77.9022C13.3446 78.324 13.3077 78.7684 13.3646 79.2057L16.6616 104.525C16.7604 105.271 17.1265 105.956 17.6919 106.452C18.2573 106.949 18.9836 107.223 19.7361 107.225H69.5803C70.0213 107.225 70.4573 107.131 70.8591 106.949C71.2609 106.767 71.6193 106.502 71.9103 106.17C72.2013 105.839 72.4183 105.449 72.5467 105.027C72.6751 104.605 72.712 104.161 72.6549 103.724L69.3579 78.4043C69.2591 77.6583 68.893 76.9735 68.3276 76.477C67.7623 75.9804 67.0359 75.7058 66.2835 75.7041L16.439 75.7049Z" fill="#292A2E"/>
<path d="M139.878 206.662C139.878 206.662 141.246 213.757 147.89 214.153C154.533 214.548 153.092 219.84 153.092 219.84H127.705V207.157L139.878 206.662Z" fill="#367CFF"/>
<path d="M91.5802 202.182C91.5802 202.182 89.6765 209.153 95.4631 212.44C101.25 215.728 97.6208 219.84 97.6208 219.84L74.841 208.633L80.4397 197.252L91.5802 202.182Z" fill="#367CFF"/>
<path d="M71.1383 36.8508C71.1383 36.8508 74.4504 34.3508 75.2711 28.5961C75.9065 24.1403 71.7964 27.0268 71.7964 27.0268C71.7964 27.0268 72.2227 23.8143 69.8817 24.1329C67.5408 24.4515 66.2311 27.8269 66.2311 27.8269" fill="#0C0C0C"/>
<path d="M57.7839 24.5089C57.7839 24.5089 46.1696 25.7542 50.3681 41.4922L51.3958 41.5609L53.4821 41.7008" fill="#0C0C0C"/>
<path d="M69.193 57.9281C69.1419 57.9215 68.5752 67.3227 57.6524 66.5038C50.0908 65.9376 47.3947 57.9149 47.2214 57.9149C48.0368 57.7415 49.0441 57.4786 49.4447 57.3882C50.3173 57.1856 51.1076 56.7222 51.7104 56.0595C52.3131 55.3968 52.6999 54.5662 52.8191 53.6784C53.0404 52.3458 52.6659 45.5275 52.7805 44.1791L64.3877 46.77C64.2256 49.6178 63.0903 56.2198 67.0682 57.3882C67.7312 57.5815 68.4442 57.7591 69.193 57.9281Z" fill="#E98862"/>
<path opacity="0.52" d="M64.5508 54.6901C64.369 54.1042 64.2519 53.5001 64.2016 52.8888C64.0742 51.4935 64.0999 50.0884 64.2782 48.6987C61.919 48.3803 59.6964 47.4065 57.8631 45.888C57.6476 46.684 56.4623 50.162 56.7908 50.9187C57.4099 52.3486 60.3245 54.6901 64.5508 54.6901Z" fill="#0C0C0C"/>
<path d="M62.1552 52.8293C57.5758 52.4185 52.0951 49.5253 52.0162 43.3093L51.9447 37.7009C51.8658 31.4849 55.0664 26.4044 60.9191 26.3301C66.7716 26.2556 71.2103 31.2391 71.2892 37.4548L71.3208 39.9378C71.3167 40.7905 71.2546 41.642 71.1347 42.4863C70.8345 44.7201 70.3688 48.1162 68.8532 50.4137C67.4215 52.5824 65.0805 53.0917 62.1552 52.8293Z" fill="#E98862"/>
<path d="M64.2797 47.1476C65.2247 47.1904 66.1665 47.0105 67.0292 46.6225C67.047 46.6149 67.0632 46.6038 67.0767 46.59C67.0903 46.5761 67.101 46.5597 67.1082 46.5417C67.1154 46.5237 67.1191 46.5045 67.1189 46.4851C67.1187 46.4657 67.1146 46.4465 67.107 46.4287C67.0994 46.4109 67.0884 46.3947 67.0745 46.3811C67.0607 46.3676 67.0443 46.3569 67.0263 46.3496C67.0083 46.3424 66.989 46.3388 66.9696 46.339C66.9503 46.3392 66.9311 46.3432 66.9133 46.3508C65.0548 47.1435 63.3671 47.0274 62.0329 46.0151C62.006 45.9939 61.9779 45.974 61.9489 45.9557C61.9154 45.9401 61.8773 45.9377 61.842 45.9489C61.8068 45.9601 61.7771 45.984 61.7586 46.0161C61.7402 46.0481 61.7345 46.0859 61.7425 46.122C61.7506 46.158 61.7718 46.1898 61.8021 46.2109C61.8129 46.2176 61.83 46.2311 61.8532 46.2497C62.5546 46.784 63.3995 47.0966 64.2797 47.1476Z" fill="#0C0C0C"/>
<path d="M64.2355 48.5479C64.4063 48.5585 64.5776 48.5544 64.7477 48.5356C64.7866 48.5315 64.8223 48.5121 64.8469 48.4816C64.8715 48.4512 64.883 48.4122 64.8789 48.3732C64.8747 48.3343 64.8553 48.2986 64.8249 48.274C64.7944 48.2494 64.7554 48.2379 64.7165 48.242C63.6936 48.3508 63.2055 47.8821 63.1848 47.8619C63.1568 47.8355 63.1197 47.821 63.0812 47.8215C63.0427 47.822 63.006 47.8375 62.9788 47.8647C62.9515 47.8919 62.936 47.9286 62.9354 47.9671C62.9348 48.0056 62.9493 48.0427 62.9757 48.0707C63.328 48.3704 63.7731 48.539 64.2355 48.5479Z" fill="#0C0C0C"/>
<path d="M69.3564 41.133C69.7545 41.133 70.0773 40.8103 70.0773 40.4121C70.0773 40.0139 69.7545 39.6912 69.3564 39.6912C68.9582 39.6912 68.6354 40.0139 68.6354 40.4121C68.6354 40.8103 68.9582 41.133 69.3564 41.133Z" fill="#0C0C0C"/>
<path d="M62.3135 40.6911C62.7116 40.6911 63.0344 40.3683 63.0344 39.9702C63.0344 39.572 62.7116 39.2492 62.3135 39.2492C61.9153 39.2492 61.5926 39.572 61.5926 39.9702C61.5926 40.3683 61.9153 40.6911 62.3135 40.6911Z" fill="#0C0C0C"/>
<path d="M52.4037 45.1985C50.6251 45.2212 49.1593 43.3367 49.136 41.5581C49.1128 39.7795 50.5427 38.7805 52.3213 38.7578L53.2528 39.9378L53.9324 45.1791L52.4037 45.1985Z" fill="#E98862"/>
<path d="M54.1721 42.3405C54.1721 42.3405 54.7728 33.5451 57.4398 33.0021C59.2161 32.6404 63.5236 35.1598 67.5132 34.3988C69.2588 34.0669 70.9159 34.4981 71.0844 35.3224C71.151 35.6489 72.2386 30.957 69.5052 27.3972C67.3289 24.5636 60.2068 23.7619 56.9667 24.6912C47.9951 27.265 51.9542 39.1451 51.9542 39.1451L52.3542 42.1771L54.1721 42.3405Z" fill="#0C0C0C"/>
<path d="M65.3537 45.0719C65.3575 45.0721 65.3614 45.0721 65.3652 45.0719C65.9383 45.066 66.899 44.9925 66.8951 44.5636C66.8913 44.2082 65.8804 40.3832 65.7647 39.9482C65.752 39.9143 65.7271 39.8864 65.6949 39.8698C65.6627 39.8532 65.6254 39.8492 65.5905 39.8585C65.5555 39.8679 65.5252 39.8898 65.5055 39.9202C65.4858 39.9506 65.4781 39.9873 65.4839 40.023C65.933 41.7171 66.6018 44.3251 66.6046 44.5672C66.5492 44.6693 65.9572 44.7742 65.3637 44.7803C65.3262 44.7811 65.2905 44.7963 65.264 44.8226C65.2374 44.849 65.2219 44.8845 65.2208 44.922C65.2197 44.9594 65.233 44.9958 65.258 45.0237C65.2829 45.0516 65.3177 45.0688 65.355 45.0719H65.3537Z" fill="#0C0C0C"/>
<path d="M67.3102 36.5031C67.9126 36.3373 68.5485 36.3373 69.1509 36.5031C69.4468 36.5827 69.7291 36.7062 69.9882 36.8697C70.2444 37.0298 70.4794 37.2216 70.6874 37.4405C70.7273 37.4792 70.7505 37.5319 70.752 37.5874C70.7535 37.6429 70.7332 37.6968 70.6954 37.7375C70.6577 37.7782 70.6055 37.8025 70.55 37.8053C70.4946 37.808 70.4402 37.7888 70.3987 37.752L70.3857 37.7408C70.1929 37.5624 69.9785 37.409 69.7475 37.2841C69.5208 37.1599 69.2766 37.0708 69.0232 37.0198C68.5245 36.915 68.0069 36.9439 67.5229 37.1036L67.5025 37.1107C67.4226 37.1389 67.3348 37.1343 67.2584 37.0978C67.1819 37.0613 67.1231 36.9959 67.0949 36.9161C67.0667 36.8362 67.0713 36.7484 67.1078 36.672C67.1443 36.5955 67.2097 36.5367 67.2896 36.5085L67.3102 36.5031Z" fill="#0C0C0C"/>
<path d="M63.0449 36.8649C62.5866 36.6421 62.0775 36.5445 61.5693 36.5818C61.3114 36.5985 61.0575 36.6543 60.8162 36.7472C60.571 36.8403 60.3384 36.9638 60.1239 37.1148L60.1101 37.124C60.064 37.1535 60.0084 37.1641 59.9547 37.1537C59.901 37.1432 59.8534 37.1125 59.8218 37.0679C59.7902 37.0232 59.777 36.9681 59.7849 36.914C59.7929 36.8599 59.8214 36.811 59.8645 36.7773C60.1 36.588 60.3585 36.4292 60.6337 36.3045C60.9124 36.1772 61.2086 36.0924 61.5124 36.0528C61.8167 36.01 62.1254 36.0093 62.4299 36.0505C62.7424 36.0894 63.0478 36.1725 63.3369 36.2974C63.4148 36.3312 63.476 36.3946 63.5071 36.4736C63.5383 36.5526 63.5367 36.6407 63.5029 36.7186C63.469 36.7965 63.4056 36.8577 63.3266 36.8888C63.2476 36.9199 63.1595 36.9184 63.0816 36.8845C63.0758 36.882 63.0696 36.8792 63.064 36.8761L63.0449 36.8649Z" fill="#0C0C0C"/>
<path d="M66.4531 30.4482C67.7696 30.1731 68.5087 28.3794 68.1038 26.4417C67.699 24.504 66.3036 23.1562 64.9871 23.4312C63.6706 23.7063 62.9316 25.5001 63.3364 27.4377C63.7412 29.3754 65.1366 30.7233 66.4531 30.4482Z" fill="#0C0C0C"/>
<path d="M77.4712 200.213L96.6814 139.61H61.8601C54.8652 139.61 51.9493 133.679 51.9493 126.684C51.9493 119.69 58.8257 113.558 65.8201 113.558H112.816C117.082 113.558 121.866 116.168 124.207 119.734C126.549 123.3 125.916 128.826 124.219 132.741L93.4571 207.455" fill="#262626"/>
<path opacity="0.8" d="M77.4712 200.213L96.6814 139.61H61.8601C54.8652 139.61 51.9493 133.679 51.9493 126.684C51.9493 119.69 58.8257 113.558 65.8201 113.558H112.816C117.082 113.558 121.866 116.168 124.207 119.734C126.549 123.3 125.916 128.826 124.219 132.741L93.4571 207.455" fill="#0A0A0A"/>
<path d="M126.246 213.251L94.1247 139.61L51.9488 139.608C42.0663 138.833 37.5404 133.417 37.6843 126.424C37.8263 119.52 41.3222 112.7 48.1953 112.7H105.041C110.126 112.805 114.127 118.425 116.014 123.148L142.717 208.743" fill="#262626"/>
<path d="M34.8077 112.785C34.8077 112.785 32.9347 124.999 35.9037 131.79C39.6102 140.268 53.505 139.608 53.505 139.608L52.7221 112.7L34.8077 112.785Z" fill="#262626"/>
<path d="M117.222 112.544L87.43 106.371C86.1886 106.114 85.0321 105.548 84.0675 104.725C83.1029 103.902 82.3614 102.849 81.9117 101.664L70.194 70.7863C69.8372 69.8596 69.667 68.8715 69.6932 67.8788C69.7194 66.8862 69.9414 65.9085 70.3466 65.0019C70.7517 64.0953 71.332 63.2776 72.0541 62.596C72.7762 61.9143 73.6259 61.382 74.5543 61.0297C75.4827 60.6774 76.4715 60.5119 77.4641 60.5429C78.4566 60.5739 79.4332 60.8007 80.3379 61.2102C81.2425 61.6197 82.0573 62.2039 82.7355 62.9293C83.4137 63.6547 83.9418 64.5069 84.2897 65.437L94.54 92.4464L120.282 97.7804C120.282 97.7804 117.739 112.651 117.222 112.544Z" fill="#367CFF"/>
<path d="M82.7644 78.6287C82.4205 82.6707 79.9817 107.887 79.6498 112.866H34.8274C34.5698 108.376 33.4134 88.7412 32.4369 79.9593C31.5046 71.5805 30.1978 67.7675 31.2715 65.1635C33.1652 60.5712 39.1931 58.5202 43.2751 57.9677C45.7675 57.6303 49.5164 57.3882 49.5164 57.3882C49.5164 57.3882 49.834 63.8095 57.4028 64.1669C67.7059 64.652 67.0179 57.3882 67.069 57.3882C68.7381 57.3882 77.8238 58.6021 80.0956 60.0828C83.3045 62.1744 84.2527 65.0244 84.2902 67.6432C84.3334 70.6581 83.1544 74.0435 82.7644 78.6287Z" fill="#367CFF"/>
<path d="M81.0029 99.2322H80.9921C80.9754 99.2308 80.9591 99.2261 80.9442 99.2185C80.9293 99.2108 80.9161 99.2002 80.9052 99.1874C80.8944 99.1746 80.8862 99.1598 80.8811 99.1439C80.876 99.1279 80.8741 99.111 80.8755 99.0943L82.0391 85.1163C82.04 85.0994 82.0444 85.083 82.0519 85.0678C82.0594 85.0527 82.0699 85.0393 82.0828 85.0284C82.0957 85.0175 82.1106 85.0093 82.1268 85.0044C82.1429 84.9994 82.1599 84.9978 82.1767 84.9996C82.1934 85.001 82.2097 85.0057 82.2246 85.0134C82.2395 85.021 82.2527 85.0316 82.2636 85.0444C82.2744 85.0572 82.2826 85.072 82.2877 85.088C82.2928 85.1039 82.2947 85.1208 82.2933 85.1375L81.1297 99.1155C81.127 99.1473 81.1125 99.1769 81.089 99.1985C81.0655 99.2201 81.0348 99.2321 81.0029 99.2322Z" fill="#0C0C0C"/>
<path d="M88.2089 110.094L98.0436 79.8617C98.2164 79.3305 98.553 78.8676 99.005 78.5393C99.457 78.211 100.001 78.0341 100.56 78.0341H140.628C141.046 78.0341 141.457 78.133 141.829 78.3226C142.202 78.5122 142.524 78.7873 142.769 79.1252C143.014 79.4632 143.176 79.8545 143.242 80.267C143.307 80.6796 143.274 81.1017 143.144 81.4989L133.31 111.731C133.137 112.262 132.8 112.725 132.348 113.053C131.896 113.382 131.352 113.558 130.793 113.558H90.7253C90.3076 113.558 89.8958 113.46 89.5237 113.27C89.1515 113.08 88.8296 112.805 88.5841 112.467C88.3387 112.129 88.1767 111.738 88.1115 111.326C88.0463 110.913 88.0796 110.491 88.2089 110.094Z" fill="#292A2E"/>
<path opacity="0.2" d="M88.2089 110.094L98.0436 79.8617C98.2164 79.3305 98.553 78.8676 99.005 78.5393C99.457 78.211 100.001 78.0341 100.56 78.0341H140.628C141.046 78.0341 141.457 78.133 141.829 78.3226C142.202 78.5122 142.524 78.7873 142.769 79.1252C143.014 79.4632 143.176 79.8545 143.242 80.267C143.307 80.6796 143.274 81.1017 143.144 81.4989L133.31 111.731C133.137 112.262 132.8 112.725 132.348 113.053C131.896 113.382 131.352 113.558 130.793 113.558H90.7253C90.3076 113.558 89.8958 113.46 89.5237 113.27C89.1515 113.08 88.8296 112.805 88.5841 112.467C88.3387 112.129 88.1767 111.738 88.1115 111.326C88.0463 110.913 88.0796 110.491 88.2089 110.094Z" fill="white"/>
<path d="M96.2316 111.107H69.41C68.7417 111.107 68.1999 111.649 68.1999 112.317V112.348C68.1999 113.017 68.7417 113.558 69.41 113.558H96.2316C96.8999 113.558 97.4416 113.017 97.4416 112.348V112.317C97.4416 111.649 96.8999 111.107 96.2316 111.107Z" fill="#292A2E"/>
<path opacity="0.2" d="M96.2316 111.107H69.41C68.7417 111.107 68.1999 111.649 68.1999 112.317V112.348C68.1999 113.017 68.7417 113.558 69.41 113.558H96.2316C96.8999 113.558 97.4416 113.017 97.4416 112.348V112.317C97.4416 111.649 96.8999 111.107 96.2316 111.107Z" fill="white"/>
<path d="M115.677 101.473C117.997 101.473 119.879 99.5919 119.879 97.2711C119.879 94.9502 117.997 93.0688 115.677 93.0688C113.356 93.0688 111.474 94.9502 111.474 97.2711C111.474 99.5919 113.356 101.473 115.677 101.473Z" fill="white"/>
<path d="M83.1705 72.9935H72.5161V86.0601H83.1705V72.9935Z" fill="white"/>
<path d="M72.5161 83.8896C71.6531 83.8896 70.8096 83.6338 70.0921 83.1543C69.3745 82.6749 68.8153 81.9935 68.4851 81.1962C68.1548 80.399 68.0684 79.5217 68.2368 78.6753C68.4051 77.829 68.8207 77.0515 69.4309 76.4413C70.0411 75.8311 70.8185 75.4156 71.6649 75.2472C72.5112 75.0789 73.3885 75.1653 74.1858 75.4955C74.983 75.8258 75.6645 76.385 76.1439 77.1025C76.6233 77.82 76.8792 78.6636 76.8792 79.5265C76.8779 80.6833 76.4178 81.7923 75.5999 82.6103C74.7819 83.4283 73.6729 83.8884 72.5161 83.8896ZM72.5161 76.9507C72.0066 76.9507 71.5085 77.1018 71.0848 77.3848C70.6612 77.6679 70.331 78.0703 70.136 78.541C69.9411 79.0117 69.8901 79.5297 69.9895 80.0294C70.0889 80.5292 70.3343 80.9882 70.6946 81.3485C71.0549 81.7087 71.5139 81.954 72.0137 82.0534C72.5134 82.1528 73.0314 82.1017 73.5021 81.9067C73.9728 81.7117 74.3751 81.3815 74.6582 80.9578C74.9412 80.5341 75.0922 80.036 75.0922 79.5265C75.0915 78.8435 74.8199 78.1887 74.3369 77.7058C73.8539 77.2228 73.1991 76.9513 72.5161 76.9507Z" fill="white"/>
<path d="M73.1306 81.4624C73.0335 81.21 72.8506 80.9999 72.6141 80.8687C72.3776 80.7376 72.1025 80.6939 71.837 80.7453C71.8421 80.7331 71.8447 80.72 71.8449 80.7067L72.2023 80.5469C72.4527 80.4405 72.6586 80.2508 72.7852 80.0099C72.9118 79.7691 72.9513 79.4919 72.897 79.2253C72.8594 79.0589 72.7854 78.9028 72.6803 78.7684C72.5751 78.634 72.4415 78.5246 72.289 78.4481C72.1364 78.3716 71.9688 78.3299 71.7982 78.326C71.6277 78.3221 71.4583 78.356 71.3024 78.4255L70.4595 78.8026C70.4595 78.7992 70.4595 78.7959 70.4577 78.7926C70.4544 78.7858 70.4503 78.7795 70.4454 78.7737C70.6531 78.6172 70.8016 78.3949 70.8668 78.1431C70.9319 77.8913 70.9098 77.6249 70.8041 77.3872C70.57 76.7539 69.7403 76.7033 69.1917 76.9481L66.9876 77.8373L67.6528 77.1626C67.8613 76.9426 67.9784 76.6517 67.9806 76.3486C67.9828 76.0456 67.8698 75.753 67.6646 75.53C67.5545 75.4187 67.423 75.3309 67.2779 75.2721C67.1328 75.2133 66.9772 75.1846 66.8207 75.1879C66.6642 75.1912 66.51 75.2264 66.3675 75.2913C66.225 75.3561 66.0972 75.4494 65.9919 75.5652L58.1546 84.1245L60.8351 86.706C61.6674 87.5079 62.7203 88.0428 63.8587 88.2424C64.997 88.4419 66.1691 88.2969 67.2245 87.826L72.0014 85.6843C72.2518 85.5779 72.4578 85.3882 72.5844 85.1474C72.7109 84.9065 72.7504 84.6293 72.6961 84.3627C72.6418 84.1234 72.5126 83.9077 72.3271 83.7469C72.1417 83.5862 71.9098 83.4889 71.6652 83.4692C71.6679 83.456 71.668 83.4423 71.6654 83.429C71.6627 83.4158 71.6575 83.4032 71.65 83.3919C71.6425 83.3807 71.6328 83.3711 71.6215 83.3636C71.6102 83.3561 71.5976 83.351 71.5843 83.3485L72.4663 82.9548C72.7456 82.8366 72.9695 82.6167 73.0928 82.3396C73.2161 82.0626 73.2296 81.749 73.1306 81.4624Z" fill="#E98862"/>
<path opacity="0.2" d="M68.8657 79.5268C68.8404 79.5269 68.8159 79.5182 68.7964 79.5021C68.7769 79.486 68.7636 79.4636 68.7589 79.4388C68.7542 79.414 68.7583 79.3883 68.7705 79.3662C68.7828 79.344 68.8023 79.3269 68.8259 79.3177L70.3168 78.7306C70.33 78.7253 70.3441 78.7228 70.3583 78.723C70.3725 78.7233 70.3866 78.7263 70.3996 78.732C70.4127 78.7377 70.4244 78.7458 70.4343 78.7561C70.4442 78.7663 70.452 78.7783 70.4572 78.7916C70.4624 78.8048 70.4649 78.8189 70.4647 78.8331C70.4645 78.8474 70.4614 78.8614 70.4558 78.8744C70.4501 78.8875 70.4419 78.8992 70.4317 78.9091C70.4215 78.919 70.4094 78.9268 70.3962 78.932L68.9053 79.5191C68.8927 79.5241 68.8793 79.5267 68.8657 79.5268Z" fill="#0C0C0C"/>
<path opacity="0.2" d="M69.6977 81.6349C69.6726 81.6349 69.6483 81.6261 69.629 81.6101C69.6097 81.5941 69.5965 81.5719 69.5917 81.5473C69.587 81.5226 69.5909 81.4971 69.6029 81.475C69.6148 81.453 69.6341 81.4358 69.6574 81.4264L71.6966 80.6061C71.7229 80.5969 71.7517 80.5982 71.7771 80.6097C71.8025 80.6212 71.8225 80.642 71.8329 80.6679C71.8432 80.6938 71.8433 80.7226 71.8329 80.7485C71.8226 80.7744 71.8026 80.7952 71.7773 80.8068L69.7383 81.6273C69.7253 81.6323 69.7116 81.6349 69.6977 81.6349Z" fill="#0C0C0C"/>
<path opacity="0.2" d="M70.5871 83.9239C70.5618 83.9239 70.5372 83.915 70.5177 83.8988C70.4983 83.8825 70.4851 83.86 70.4806 83.835C70.4761 83.8101 70.4804 83.7843 70.493 83.7622C70.5055 83.7402 70.5254 83.7232 70.5491 83.7143L71.5212 83.3495C71.5481 83.3394 71.5779 83.3403 71.6041 83.3521C71.6303 83.364 71.6507 83.3857 71.6609 83.4126C71.671 83.4395 71.6701 83.4693 71.6583 83.4955C71.6464 83.5216 71.6247 83.5421 71.5978 83.5522L70.6257 83.917C70.6133 83.9216 70.6003 83.9239 70.5871 83.9239Z" fill="#0C0C0C"/>
<path d="M75.3975 64.6821C75.3505 64.6821 75.3044 64.6692 75.2642 64.6447C75.2241 64.6202 75.1915 64.5851 75.17 64.5432C74.5888 63.41 73.8655 61.9993 73.9472 60.5204C74.0121 59.3443 74.5635 58.2994 75.096 57.2902C75.4402 56.6802 75.7335 56.0429 75.9729 55.3847C76.2651 54.4766 76.3388 53.5122 76.188 52.5702C76.0372 51.6281 75.6661 50.735 75.1049 49.9634C75.0839 49.9366 75.0685 49.9058 75.0596 49.8728C75.0507 49.8399 75.0485 49.8055 75.0531 49.7717C75.0577 49.7379 75.069 49.7054 75.0864 49.676C75.1038 49.6467 75.1269 49.6211 75.1544 49.6009C75.1818 49.5806 75.213 49.566 75.2462 49.558C75.2793 49.55 75.3138 49.5487 75.3474 49.5543C75.3811 49.5598 75.4133 49.572 75.4422 49.5902C75.471 49.6084 75.4959 49.6322 75.5154 49.6602C76.125 50.4974 76.5282 51.4668 76.6924 52.4894C76.8565 53.512 76.7769 54.5588 76.46 55.5448C76.212 56.2302 75.9075 56.8937 75.5497 57.5287C75.0187 58.5342 74.5173 59.4839 74.4586 60.5487C74.3845 61.8892 75.0442 63.1756 75.626 64.3104C75.6459 64.3493 75.6555 64.3926 75.6539 64.4363C75.6523 64.48 75.6394 64.5225 75.6167 64.5598C75.5939 64.5971 75.5619 64.628 75.5238 64.6494C75.4857 64.6708 75.4427 64.682 75.399 64.6821H75.3975Z" fill="white"/>
<path d="M79.4967 68.6666C79.4401 68.6666 79.3851 68.6478 79.3404 68.6131C79.2956 68.5785 79.2637 68.5299 79.2495 68.4751C79.2354 68.4203 79.2398 68.3624 79.2622 68.3104C79.2846 68.2584 79.3236 68.2153 79.3731 68.1879C80.3192 67.6661 80.4251 66.2138 79.9807 65.1112C79.7602 64.6044 79.5023 64.1148 79.209 63.6464C78.8169 63.0394 78.4981 62.3882 78.2593 61.7062C78.0155 60.8747 78.0002 59.9929 78.215 59.1535C78.4298 58.314 78.8668 57.548 79.4801 56.9359C79.5288 56.8894 79.5939 56.8641 79.6612 56.8654C79.7285 56.8667 79.7925 56.8945 79.8394 56.9428C79.8863 56.9911 79.9122 57.056 79.9115 57.1233C79.9108 57.1906 79.8836 57.2549 79.8357 57.3022C79.2889 57.8481 78.8992 58.5312 78.7077 59.2798C78.5161 60.0283 78.5298 60.8146 78.7471 61.5561C78.9741 62.1995 79.2766 62.8137 79.6481 63.386C79.9552 63.8762 80.2246 64.389 80.454 64.92C80.9745 66.211 80.8586 67.9515 79.6195 68.6347C79.5819 68.6555 79.5396 68.6665 79.4967 68.6666Z" fill="white"/>
<path d="M67.1407 90.9195L29.5496 106.477C28.1943 107.032 26.7067 107.18 25.2686 106.903C23.8305 106.626 22.5043 105.936 21.4518 104.918C20.3994 103.899 19.6663 102.596 19.3423 101.168C19.0182 99.7401 19.1172 98.2485 19.627 96.8756L30.8388 66.2528C32.2883 62.35 36.3716 60.1057 40.2747 61.5555C42.1489 62.2516 43.6698 63.6637 44.5028 65.4812C45.3359 67.2986 45.4128 69.3726 44.7167 71.2468L39.6028 85.7407L61.6342 77.2471" fill="#367CFF"/>
<path d="M67.0491 91.0584C67.0291 91.0582 67.0095 91.0522 66.9929 91.041C66.9763 91.0299 66.9633 91.0141 66.9556 90.9956L61.4861 77.4143L39.5285 85.8883C39.5104 85.8954 39.4905 85.897 39.4715 85.8929C39.4524 85.8889 39.4349 85.8794 39.4211 85.8656C39.4074 85.8518 39.398 85.8342 39.394 85.8152C39.39 85.7961 39.3917 85.7763 39.3988 85.7581L42.7942 77.0436C42.8039 77.0188 42.823 76.9988 42.8474 76.9881C42.8718 76.9774 42.8994 76.9769 42.9242 76.9865C42.9491 76.9962 42.969 77.0154 42.9797 77.0398C42.9904 77.0642 42.991 77.0918 42.9813 77.1166L39.6687 85.6185L61.5063 77.1906C61.5309 77.1812 61.5583 77.1817 61.5825 77.1922C61.6067 77.2027 61.6258 77.2223 61.6357 77.2468L67.1423 90.9203C67.1518 90.9451 67.1514 90.9726 67.141 90.9971C67.1306 91.0215 67.1111 91.041 67.0866 91.0513C67.0747 91.056 67.0619 91.0584 67.0491 91.0584Z" fill="#0C0C0C"/>
<path d="M32.6324 88.5849C32.6089 88.5851 32.5861 88.5771 32.5679 88.5622C32.5497 88.5472 32.5374 88.5264 32.533 88.5033C32.5286 88.4802 32.5325 88.4563 32.5439 88.4357C32.5554 88.4152 32.5737 88.3993 32.5957 88.3909L39.4729 85.6849C39.4852 85.6798 39.4984 85.6772 39.5118 85.6773C39.5251 85.6774 39.5383 85.6801 39.5505 85.6853C39.5628 85.6906 39.5739 85.6982 39.5832 85.7077C39.5925 85.7173 39.5998 85.7286 39.6047 85.741C39.6096 85.7534 39.612 85.7667 39.6117 85.78C39.6114 85.7933 39.6085 85.8065 39.6031 85.8186C39.5977 85.8308 39.5899 85.8418 39.5802 85.851C39.5705 85.8601 39.5591 85.8673 39.5467 85.872L32.6692 88.578C32.6575 88.5826 32.645 88.5849 32.6324 88.5849Z" fill="#0C0C0C"/>
<path d="M34.2341 104.66C34.2108 104.66 34.1882 104.652 34.1702 104.637C34.1521 104.623 34.1398 104.602 34.1352 104.579C34.1307 104.556 34.1343 104.533 34.1453 104.512C34.1564 104.492 34.1742 104.476 34.1958 104.467L67.0118 90.8651C67.024 90.8601 67.0371 90.8575 67.0502 90.8575C67.0634 90.8576 67.0765 90.8602 67.0886 90.8652C67.1008 90.8703 67.1119 90.8777 67.1212 90.887C67.1305 90.8964 67.1379 90.9075 67.1429 90.9196C67.1479 90.9318 67.1505 90.9449 67.1505 90.9581C67.1505 90.9713 67.1479 90.9843 67.1428 90.9965C67.1377 91.0086 67.1303 91.0197 67.121 91.029C67.1117 91.0383 67.1006 91.0457 67.0884 91.0507L34.2724 104.652C34.2603 104.658 34.2473 104.66 34.2341 104.66Z" fill="#0C0C0C"/>
<path d="M200.838 186.521C200.77 186.521 200.705 186.494 200.657 186.446C200.298 186.087 199.711 179.488 198.132 159.84C197.486 151.8 196.876 144.206 196.43 139.591C196.398 139.262 196.271 139.223 196.229 139.211C195.619 139.027 193.765 140.489 192.729 141.769C192.687 141.822 192.625 141.856 192.558 141.863C192.49 141.87 192.423 141.85 192.37 141.807C192.318 141.765 192.284 141.703 192.277 141.636C192.27 141.569 192.29 141.501 192.332 141.448C193.017 140.602 195.248 138.382 196.375 138.722C196.603 138.79 196.886 138.988 196.939 139.542C197.384 144.161 197.995 151.757 198.641 159.799C199.601 171.738 200.688 185.265 201.045 186.117C201.073 186.155 201.089 186.2 201.092 186.247C201.096 186.294 201.087 186.341 201.065 186.382C201.044 186.424 201.011 186.459 200.971 186.484C200.931 186.508 200.885 186.521 200.838 186.521Z" fill="#494949"/>
<path d="M195.774 148.059C200.011 144.664 201.415 139.378 198.91 136.254C196.406 133.13 190.942 133.35 186.706 136.746C182.47 140.142 181.066 145.427 183.57 148.551C186.074 151.675 191.538 151.455 195.774 148.059Z" fill="#0CBC8B"/>
<path opacity="0.2" d="M195.774 148.059C200.011 144.664 201.415 139.378 198.91 136.254C196.406 133.13 190.942 133.35 186.706 136.746C182.47 140.142 181.066 145.427 183.57 148.551C186.074 151.675 191.538 151.455 195.774 148.059Z" fill="white"/>
<path d="M184.757 149.346C184.733 149.346 184.709 149.339 184.689 149.326C184.668 149.313 184.652 149.294 184.642 149.272C184.631 149.251 184.628 149.226 184.631 149.202C184.634 149.178 184.644 149.155 184.659 149.137L196.732 134.578C196.743 134.565 196.756 134.554 196.771 134.546C196.786 134.537 196.802 134.532 196.819 134.531C196.836 134.529 196.853 134.531 196.869 134.536C196.885 134.541 196.9 134.549 196.913 134.56C196.926 134.57 196.937 134.584 196.945 134.599C196.953 134.614 196.957 134.63 196.959 134.647C196.96 134.664 196.958 134.681 196.953 134.697C196.948 134.713 196.939 134.728 196.928 134.741L184.856 149.3C184.844 149.314 184.829 149.326 184.812 149.334C184.795 149.342 184.776 149.346 184.757 149.346Z" fill="white"/>
<path d="M203.471 183.4C203.43 183.4 203.39 183.39 203.354 183.372C203.318 183.353 203.287 183.326 203.263 183.293C203.239 183.26 203.224 183.221 203.218 183.181C203.212 183.14 203.216 183.099 203.23 183.061L207.765 170.019C207.898 169.636 208.126 169.292 208.427 169.02C208.727 168.747 209.092 168.555 209.486 168.459C209.881 168.364 210.293 168.369 210.684 168.475C211.076 168.58 211.436 168.782 211.729 169.062L214.127 171.353C214.176 171.399 214.204 171.464 214.205 171.531C214.207 171.599 214.182 171.665 214.135 171.714C214.088 171.762 214.024 171.791 213.956 171.792C213.888 171.794 213.823 171.768 213.774 171.722L211.376 169.432C211.145 169.21 210.861 169.051 210.552 168.968C210.242 168.885 209.917 168.881 209.606 168.956C209.294 169.031 209.007 169.183 208.77 169.398C208.532 169.613 208.353 169.884 208.247 170.187L203.712 183.229C203.695 183.279 203.662 183.322 203.619 183.353C203.576 183.384 203.524 183.4 203.471 183.4Z" fill="#494949"/>
<path d="M220.825 178.573C223.965 176.088 223.778 170.623 220.409 166.366C217.039 162.109 211.762 160.673 208.623 163.158C205.484 165.643 205.67 171.108 209.04 175.365C212.409 179.622 217.686 181.058 220.825 178.573Z" fill="#0CBC8B"/>
<path d="M198.778 185.69C198.72 185.69 198.665 185.67 198.62 185.635C198.575 185.599 198.543 185.549 198.53 185.494L190.919 153.673C190.867 153.457 190.757 153.258 190.599 153.1C190.442 152.942 190.244 152.831 190.027 152.778C189.81 152.725 189.583 152.733 189.371 152.801C189.158 152.869 188.969 152.994 188.823 153.163L186.477 155.874C186.455 155.899 186.428 155.92 186.398 155.935C186.368 155.95 186.336 155.959 186.302 155.961C186.269 155.964 186.235 155.96 186.203 155.949C186.171 155.938 186.142 155.922 186.117 155.9C186.091 155.878 186.071 155.851 186.055 155.821C186.04 155.791 186.031 155.759 186.029 155.725C186.027 155.692 186.031 155.658 186.041 155.626C186.052 155.594 186.069 155.565 186.091 155.54L188.437 152.829C188.644 152.589 188.914 152.412 189.216 152.316C189.517 152.219 189.84 152.208 190.148 152.283C190.455 152.358 190.737 152.517 190.96 152.741C191.184 152.966 191.341 153.248 191.415 153.556L199.025 185.376C199.041 185.442 199.03 185.511 198.994 185.569C198.959 185.626 198.902 185.668 198.836 185.683C198.817 185.688 198.797 185.69 198.778 185.69Z" fill="#494949"/>
<path d="M195.971 162.942C196.896 157.593 194.448 152.703 190.502 152.021C186.557 151.338 182.609 155.122 181.683 160.472C180.758 165.822 183.207 170.711 187.152 171.394C191.097 172.076 195.046 168.292 195.971 162.942Z" fill="#0CBC8B"/>
<path d="M200.838 186.521C200.828 186.521 200.817 186.521 200.807 186.519C200.74 186.511 200.678 186.476 200.637 186.423C200.595 186.37 200.576 186.302 200.584 186.235L205.444 146.778C205.497 146.348 205.673 145.942 205.951 145.61C206.229 145.278 206.597 145.033 207.011 144.905C207.425 144.776 207.867 144.771 208.284 144.888C208.701 145.005 209.075 145.24 209.362 145.565L214.916 151.856C214.961 151.907 214.984 151.974 214.98 152.041C214.975 152.109 214.945 152.172 214.894 152.217C214.843 152.262 214.776 152.284 214.709 152.28C214.641 152.276 214.578 152.245 214.533 152.194L208.979 145.903C208.757 145.652 208.468 145.47 208.145 145.379C207.823 145.289 207.481 145.294 207.161 145.393C206.841 145.492 206.557 145.681 206.342 145.938C206.127 146.196 205.992 146.509 205.951 146.842L201.09 186.297C201.083 186.359 201.053 186.415 201.007 186.457C200.96 186.498 200.9 186.521 200.838 186.521Z" fill="#494949"/>
<path d="M220.612 155.352C222.55 151.848 220.27 146.878 215.519 144.25C210.768 141.622 205.346 142.332 203.408 145.836C201.47 149.339 203.75 154.31 208.501 156.938C213.252 159.566 218.674 158.856 220.612 155.352Z" fill="#0CBC8B"/>
<path opacity="0.2" d="M220.825 178.573C223.965 176.088 223.778 170.623 220.409 166.366C217.039 162.109 211.762 160.673 208.623 163.158C205.484 165.643 205.67 171.108 209.04 175.365C212.409 179.622 217.686 181.058 220.825 178.573Z" fill="white"/>
<path opacity="0.5" d="M195.971 162.942C196.896 157.593 194.448 152.703 190.502 152.021C186.557 151.338 182.609 155.122 181.683 160.472C180.758 165.822 183.207 170.711 187.152 171.394C191.097 172.076 195.046 168.292 195.971 162.942Z" fill="white"/>
<path opacity="0.5" d="M220.612 155.352C222.55 151.848 220.27 146.878 215.519 144.25C210.768 141.622 205.346 142.332 203.408 145.836C201.47 149.339 203.75 154.31 208.501 156.938C213.252 159.566 218.674 158.856 220.612 155.352Z" fill="white"/>
<path d="M207.054 220H194.622L192.562 180.225H209.114L207.054 220Z" fill="#292A2E"/>
<path opacity="0.3" d="M207.054 220H194.622L192.562 180.225H209.114L207.054 220Z" fill="white"/>
<path d="M220.825 178.7C220.806 178.7 220.787 178.695 220.77 178.687C220.752 178.679 220.737 178.666 220.725 178.651L208.522 163.235C208.501 163.209 208.492 163.175 208.496 163.141C208.499 163.108 208.517 163.077 208.543 163.056C208.57 163.035 208.603 163.025 208.637 163.029C208.671 163.033 208.701 163.05 208.722 163.077L220.925 178.492C220.94 178.511 220.949 178.534 220.952 178.558C220.955 178.582 220.951 178.606 220.94 178.627C220.93 178.649 220.913 178.667 220.893 178.68C220.873 178.693 220.849 178.699 220.825 178.7Z" fill="white"/>
<path d="M219.801 156.587C219.774 156.587 219.747 156.578 219.726 156.562L204.11 145.161C204.097 145.151 204.085 145.138 204.077 145.124C204.068 145.11 204.062 145.094 204.06 145.077C204.057 145.061 204.058 145.044 204.062 145.028C204.066 145.011 204.073 144.996 204.083 144.982C204.092 144.969 204.105 144.957 204.119 144.949C204.134 144.94 204.149 144.934 204.166 144.932C204.183 144.929 204.199 144.93 204.216 144.934C204.232 144.938 204.247 144.945 204.261 144.955L219.876 156.356C219.897 156.372 219.913 156.395 219.921 156.42C219.929 156.446 219.929 156.473 219.921 156.498C219.912 156.524 219.896 156.546 219.875 156.562C219.853 156.577 219.827 156.586 219.801 156.586V156.587Z" fill="white"/>
<path d="M186.517 171.228C186.506 171.228 186.495 171.226 186.485 171.223C186.452 171.214 186.424 171.193 186.407 171.164C186.39 171.134 186.385 171.1 186.394 171.067L191.365 152.443C191.369 152.426 191.377 152.411 191.387 152.397C191.397 152.384 191.41 152.372 191.424 152.364C191.439 152.355 191.455 152.35 191.472 152.347C191.488 152.345 191.506 152.346 191.522 152.35C191.538 152.355 191.554 152.362 191.567 152.373C191.58 152.383 191.592 152.396 191.6 152.411C191.608 152.426 191.614 152.442 191.616 152.459C191.618 152.475 191.616 152.492 191.612 152.509L186.641 171.133C186.634 171.16 186.618 171.184 186.595 171.201C186.573 171.218 186.546 171.228 186.517 171.228Z" fill="white"/>
</svg>
