<svg width="254" height="240" viewBox="0 0 254 240" fill="none" xmlns="http://www.w3.org/2000/svg">
<path d="M65.8711 160.276H45.3412V166.249H65.8711V160.276Z" fill="#F4F4F4"/>
<path opacity="0.05" d="M50.7882 160.276H48.0981V166.249H50.7882V160.276Z" fill="#292A2E"/>
<path d="M63.2478 161.574H52.0625V165.114H63.2478V161.574Z" fill="white"/>
<path d="M82.2465 161.055L63.1707 152.723L60.7797 158.198L79.8556 166.529L82.2465 161.055Z" fill="#F4F4F4"/>
<path opacity="0.05" d="M82.2465 161.055L63.1707 152.723L60.7797 158.198L79.8556 166.529L82.2465 161.055Z" fill="#292A2E"/>
<path d="M79.6849 159.936L77.1853 158.844L74.7944 164.318L77.294 165.41L79.6849 159.936Z" fill="white"/>
<path d="M75.4814 159.517L65.0885 154.978L63.6717 158.221L74.0646 162.761L75.4814 159.517Z" fill="white"/>
<path opacity="0.05" d="M82.2824 235.948H77.1232V239.393H82.2824V235.948Z" fill="#292A2E"/>
<path opacity="0.05" d="M29.5352 235.948H24.376V239.393H29.5352V235.948Z" fill="#292A2E"/>
<path d="M87.0116 166.529H19.6466V235.831H87.0116V166.529Z" fill="#F4F4F4"/>
<path opacity="0.03" d="M87.0116 166.529H19.6466V235.831H87.0116V166.529Z" fill="#292A2E"/>
<path d="M99.4954 166.529H32.1304V235.831H99.4954V166.529Z" fill="#F4F4F4"/>
<path opacity="0.05" d="M94.766 235.948H89.6068V239.393H94.766V235.948Z" fill="#292A2E"/>
<path opacity="0.05" d="M42.0188 235.948H36.8596V239.393H42.0188V235.948Z" fill="#292A2E"/>
<path opacity="0.7" d="M96.9668 169.775H34.6593V183.089H96.9668V169.775Z" fill="white"/>
<path opacity="0.7" d="M96.9668 186.348H34.6593V199.663H96.9668V186.348Z" fill="white"/>
<path opacity="0.7" d="M96.9668 202.921H34.6593V216.235H96.9668V202.921Z" fill="white"/>
<path opacity="0.05" d="M65.8131 178.295C66.842 178.295 67.6761 177.461 67.6761 176.432C67.6761 175.403 66.842 174.569 65.8131 174.569C64.7843 174.569 63.9502 175.403 63.9502 176.432C63.9502 177.461 64.7843 178.295 65.8131 178.295Z" fill="#292A2E"/>
<path opacity="0.05" d="M65.8131 194.868C66.842 194.868 67.6761 194.034 67.6761 193.005C67.6761 191.977 66.842 191.142 65.8131 191.142C64.7843 191.142 63.9502 191.977 63.9502 193.005C63.9502 194.034 64.7843 194.868 65.8131 194.868Z" fill="#292A2E"/>
<path opacity="0.05" d="M65.8131 211.441C66.842 211.441 67.6761 210.607 67.6761 209.578C67.6761 208.55 66.842 207.715 65.8131 207.715C64.7843 207.715 63.9502 208.55 63.9502 209.578C63.9502 210.607 64.7843 211.441 65.8131 211.441Z" fill="#292A2E"/>
<path opacity="0.7" d="M96.9668 219.868H34.6593V233.182H96.9668V219.868Z" fill="white"/>
<path opacity="0.05" d="M65.8131 228.388C66.842 228.388 67.6761 227.554 67.6761 226.525C67.6761 225.496 66.842 224.662 65.8131 224.662C64.7843 224.662 63.9502 225.496 63.9502 226.525C63.9502 227.554 64.7843 228.388 65.8131 228.388Z" fill="#292A2E"/>
<path d="M0.178908 239.871H253.313C253.361 239.871 253.406 239.852 253.44 239.818C253.473 239.785 253.492 239.739 253.492 239.692C253.492 239.644 253.473 239.599 253.44 239.565C253.406 239.532 253.361 239.513 253.313 239.513H0.178908C0.131459 239.513 0.0859527 239.532 0.0524009 239.565C0.0188492 239.599 0 239.644 0 239.692C0 239.739 0.0188492 239.785 0.0524009 239.818C0.0859527 239.852 0.131459 239.871 0.178908 239.871V239.871Z" fill="#292A2E"/>
<g opacity="0.65">
<path d="M0.178908 239.871H253.313C253.361 239.871 253.406 239.852 253.44 239.818C253.473 239.785 253.492 239.739 253.492 239.692C253.492 239.644 253.473 239.599 253.44 239.565C253.406 239.532 253.361 239.513 253.313 239.513H0.178908C0.131459 239.513 0.0859527 239.532 0.0524009 239.565C0.0188492 239.599 0 239.644 0 239.692C0 239.739 0.0188492 239.785 0.0524009 239.818C0.0859527 239.852 0.131459 239.871 0.178908 239.871V239.871Z" fill="#292A2E"/>
</g>
<path d="M236.184 239.766L236.686 239.67L228.841 161.709L228.339 161.806L236.184 239.766Z" fill="#494949"/>
<path d="M206.972 239.766L207.474 239.67L199.629 161.709L199.127 161.806L206.972 239.766Z" fill="#494949"/>
<path d="M142.399 239.766L141.897 239.67L149.743 161.709L150.245 161.806L142.399 239.766Z" fill="#494949"/>
<path d="M171.612 239.766L171.11 239.67L178.955 161.709L179.457 161.806L171.612 239.766Z" fill="#494949"/>
<path d="M182.014 127.396L177.431 161.722L177.937 161.79L182.52 127.464L182.014 127.396Z" fill="#494949"/>
<path d="M234.618 127.396L230.035 161.722L230.542 161.79L235.125 127.464L234.618 127.396Z" fill="#494949"/>
<path d="M177.477 164.271H228.931C230.319 164.271 231.444 163.146 231.444 161.757V161.757C231.444 160.369 230.319 159.243 228.931 159.243H177.477C176.088 159.243 174.963 160.369 174.963 161.757V161.757C174.963 163.146 176.088 164.271 177.477 164.271Z" fill="#292A2E"/>
<path opacity="0.8" d="M177.477 164.271H228.931C230.319 164.271 231.444 163.146 231.444 161.757V161.757C231.444 160.369 230.319 159.243 228.931 159.243H177.477C176.088 159.243 174.963 160.369 174.963 161.757V161.757C174.963 163.146 176.088 164.271 177.477 164.271Z" fill="white"/>
<path d="M174.708 161.758C174.708 161.024 175 160.32 175.519 159.801C176.038 159.281 176.742 158.989 177.477 158.988H228.931C229.665 158.988 230.37 159.28 230.889 159.799C231.408 160.319 231.7 161.023 231.7 161.757C231.7 162.492 231.408 163.196 230.889 163.716C230.37 164.235 229.665 164.527 228.931 164.527H177.477C176.743 164.526 176.039 164.234 175.52 163.715C175.001 163.196 174.709 162.492 174.708 161.758ZM177.477 159.5C176.878 159.5 176.304 159.738 175.88 160.162C175.457 160.585 175.219 161.16 175.219 161.758C175.219 162.357 175.457 162.932 175.88 163.355C176.304 163.779 176.878 164.016 177.477 164.016H228.931C229.53 164.016 230.104 163.779 230.527 163.355C230.951 162.932 231.189 162.357 231.189 161.758C231.189 161.16 230.951 160.585 230.527 160.162C230.104 159.738 229.53 159.5 228.931 159.5H177.477Z" fill="#292A2E"/>
<path d="M149.236 164.271H200.69C202.078 164.271 203.204 163.146 203.204 161.757V161.757C203.204 160.369 202.078 159.243 200.69 159.243H149.236C147.848 159.243 146.722 160.369 146.722 161.757V161.757C146.722 163.146 147.848 164.271 149.236 164.271Z" fill="white"/>
<path d="M146.467 161.758C146.467 161.024 146.76 160.32 147.279 159.801C147.798 159.282 148.502 158.99 149.236 158.989H200.69C201.424 158.989 202.129 159.281 202.648 159.8C203.167 160.32 203.459 161.024 203.459 161.758C203.459 162.493 203.167 163.197 202.648 163.717C202.129 164.236 201.424 164.528 200.69 164.528H149.236C148.502 164.527 147.798 164.235 147.279 163.716C146.76 163.196 146.467 162.493 146.467 161.758V161.758ZM149.236 159.5C148.637 159.5 148.063 159.738 147.639 160.162C147.216 160.585 146.978 161.16 146.978 161.758C146.978 162.357 147.216 162.932 147.639 163.355C148.063 163.779 148.637 164.016 149.236 164.016H200.69C201.289 164.016 201.863 163.779 202.287 163.355C202.71 162.932 202.948 162.357 202.948 161.758C202.948 161.16 202.71 160.585 202.287 160.162C201.863 159.738 201.289 159.5 200.69 159.5H149.236Z" fill="#292A2E"/>
<path d="M184.835 127.431H234.736C235.552 127.431 236.34 127.134 236.953 126.596C237.566 126.058 237.963 125.315 238.068 124.506L241.369 99.1569C241.43 98.6831 241.39 98.2016 241.251 97.7445C241.112 97.2874 240.877 96.8652 240.562 96.5062C240.246 96.1472 239.858 95.8595 239.423 95.6625C238.987 95.4654 238.515 95.3635 238.037 95.3635H188.134C187.319 95.3636 186.531 95.6605 185.918 96.1989C185.305 96.7373 184.908 97.4804 184.803 98.2894L181.502 123.638C181.44 124.112 181.481 124.593 181.62 125.051C181.759 125.508 181.994 125.93 182.31 126.289C182.625 126.648 183.013 126.936 183.449 127.133C183.884 127.33 184.357 127.431 184.835 127.431V127.431Z" fill="#292A2E"/>
<path opacity="0.8" d="M184.835 127.431H234.736C235.552 127.431 236.34 127.134 236.953 126.596C237.566 126.058 237.963 125.315 238.068 124.506L241.369 99.1569C241.43 98.6831 241.39 98.2016 241.251 97.7445C241.112 97.2874 240.877 96.8652 240.562 96.5062C240.246 96.1472 239.858 95.8595 239.423 95.6625C238.987 95.4654 238.515 95.3635 238.037 95.3635H188.134C187.319 95.3636 186.531 95.6605 185.918 96.1989C185.305 96.7373 184.908 97.4804 184.803 98.2894L181.502 123.638C181.44 124.112 181.481 124.593 181.62 125.051C181.759 125.508 181.994 125.93 182.31 126.289C182.625 126.648 183.013 126.936 183.449 127.133C183.884 127.33 184.357 127.431 184.835 127.431V127.431Z" fill="white"/>
<path d="M182.118 126.457C181.779 126.071 181.526 125.617 181.376 125.125C181.226 124.633 181.183 124.115 181.249 123.605L184.55 98.2566C184.665 97.3868 185.092 96.5883 185.751 96.0093C186.41 95.4303 187.257 95.1101 188.134 95.108H238.037C238.551 95.108 239.06 95.2177 239.528 95.4297C239.997 95.6417 240.414 95.9512 240.754 96.3376C241.093 96.7239 241.346 97.1782 241.496 97.6701C241.645 98.1619 241.688 98.6801 241.622 99.1899L238.321 124.539C238.206 125.408 237.779 126.207 237.12 126.786C236.461 127.365 235.614 127.685 234.736 127.687H184.835C184.32 127.687 183.812 127.577 183.344 127.365C182.875 127.153 182.458 126.844 182.118 126.457V126.457ZM188.134 95.6192C187.381 95.6211 186.654 95.8962 186.088 96.3933C185.523 96.8905 185.156 97.576 185.057 98.3228L181.757 123.671C181.7 124.109 181.737 124.554 181.865 124.976C181.994 125.399 182.211 125.789 182.502 126.12C182.794 126.452 183.152 126.718 183.555 126.9C183.957 127.082 184.393 127.176 184.835 127.176H234.736C235.49 127.174 236.217 126.9 236.783 126.402C237.349 125.905 237.716 125.22 237.814 124.473L241.115 99.1243C241.172 98.6865 241.135 98.2416 241.006 97.8193C240.878 97.397 240.661 97.0069 240.369 96.6752C240.078 96.3435 239.719 96.0778 239.317 95.8957C238.915 95.7136 238.479 95.6195 238.037 95.6194L188.134 95.6192Z" fill="#292A2E"/>
<path d="M182.013 127.431H231.916C232.732 127.431 233.52 127.134 234.133 126.596C234.746 126.058 235.142 125.315 235.247 124.506L238.548 99.1569C238.61 98.6831 238.57 98.2015 238.431 97.7444C238.291 97.2873 238.056 96.8652 237.741 96.5062C237.426 96.1472 237.037 95.8595 236.602 95.6625C236.167 95.4654 235.694 95.3635 235.217 95.3635H185.314C184.498 95.3636 183.71 95.6605 183.097 96.1989C182.484 96.7373 182.088 97.4804 181.982 98.2894L178.681 123.638C178.62 124.112 178.66 124.593 178.799 125.05C178.938 125.507 179.173 125.93 179.488 126.289C179.804 126.648 180.192 126.935 180.627 127.132C181.063 127.329 181.535 127.431 182.013 127.431V127.431Z" fill="white"/>
<path d="M179.296 126.457C178.957 126.071 178.704 125.617 178.554 125.125C178.404 124.633 178.361 124.115 178.427 123.605L181.728 98.2566C181.844 97.3867 182.27 96.5882 182.93 96.0092C183.589 95.4302 184.436 95.11 185.313 95.108H235.215C235.73 95.108 236.238 95.2177 236.706 95.4297C237.175 95.6417 237.592 95.9512 237.932 96.3376C238.271 96.7239 238.524 97.1782 238.674 97.6701C238.824 98.1619 238.867 98.6801 238.8 99.1899L235.5 124.539C235.384 125.408 234.958 126.207 234.299 126.785C233.64 127.364 232.793 127.685 231.916 127.687H182.013C181.499 127.687 180.99 127.577 180.522 127.365C180.054 127.153 179.636 126.844 179.296 126.457V126.457ZM185.314 95.6192C184.56 95.621 183.833 95.8959 183.267 96.3931C182.701 96.8903 182.335 97.5759 182.236 98.3228L178.935 123.671C178.878 124.109 178.915 124.554 179.043 124.976C179.172 125.399 179.389 125.789 179.681 126.12C179.972 126.452 180.331 126.718 180.733 126.9C181.135 127.082 181.571 127.176 182.013 127.176H231.916C232.669 127.174 233.396 126.9 233.962 126.402C234.528 125.905 234.895 125.22 234.994 124.473L238.295 99.1245C238.352 98.6867 238.315 98.2418 238.186 97.8195C238.057 97.3972 237.84 97.0071 237.549 96.6754C237.258 96.3437 236.899 96.0779 236.497 95.8958C236.095 95.7137 235.658 95.6195 235.217 95.6194L185.314 95.6192Z" fill="#292A2E"/>
<path d="M189.099 54.5547C189.099 54.5547 186.153 51.6249 186.121 45.8056C186.096 41.2997 189.781 44.7211 189.781 44.7211C189.781 44.7211 189.794 41.4765 192.072 42.1109C194.349 42.7452 195.192 46.2707 195.192 46.2707" fill="#0C0C0C"/>
<path d="M204.022 44.1277C204.022 44.1277 215.373 46.9407 209.07 61.9807L208.041 61.9094L205.953 61.7645" fill="#0C0C0C"/>
<path d="M189.453 77.6116C189.504 77.6047 190.071 87.0171 201.007 86.1971C208.577 85.63 211.276 77.5981 211.45 77.5981C210.633 77.4248 209.625 77.1615 209.224 77.071C208.35 76.8681 207.559 76.404 206.956 75.7405C206.353 75.0771 205.966 74.2457 205.846 73.3569C205.625 72.0228 206 65.1967 205.885 63.8467L194.264 66.4406C194.427 69.2916 195.563 75.9012 191.581 77.071C190.916 77.2645 190.202 77.4416 189.453 77.6116Z" fill="#E98862"/>
<path opacity="0.52" d="M194.1 74.3697C194.282 73.7831 194.399 73.1783 194.45 72.5661C194.577 71.1693 194.552 69.7627 194.373 68.3715C196.735 68.0527 198.96 67.0777 200.796 65.5575C201.011 66.3544 202.198 69.8365 201.869 70.5925C201.249 72.0255 198.331 74.3697 194.1 74.3697Z" fill="#0C0C0C"/>
<path d="M195.838 71.6242C200.436 71.8392 206.266 69.714 207.188 63.5593L208.021 58.0058C208.944 51.8511 206.46 46.3767 200.665 45.5078C194.87 44.6388 189.79 48.9788 188.867 55.1335L188.499 57.592C188.387 58.4384 188.333 59.2915 188.337 60.1452C188.331 62.4015 188.331 65.8335 189.523 68.3183C190.648 70.664 192.901 71.4865 195.838 71.6242Z" fill="#E98862"/>
<path d="M194.503 65.7001C193.56 65.6141 192.65 65.3077 191.847 64.8056C191.829 64.796 191.814 64.7831 191.802 64.7674C191.789 64.7518 191.78 64.7338 191.775 64.7146C191.77 64.6954 191.768 64.6753 191.771 64.6556C191.774 64.6358 191.781 64.6168 191.791 64.5997C191.801 64.5826 191.815 64.5678 191.831 64.556C191.847 64.5443 191.865 64.536 191.885 64.5315C191.904 64.527 191.924 64.5265 191.944 64.53C191.963 64.5335 191.982 64.5409 191.999 64.5518C193.735 65.5907 195.423 65.7047 196.885 64.8823C196.915 64.8647 196.945 64.8487 196.976 64.8345C197.012 64.8212 197.052 64.8224 197.087 64.838C197.123 64.8535 197.15 64.8822 197.165 64.9178C197.179 64.9535 197.179 64.9933 197.165 65.029C197.15 65.0646 197.123 65.0932 197.087 65.1087C197.076 65.1138 197.057 65.1251 197.03 65.1399C196.262 65.5741 195.382 65.7691 194.503 65.7001V65.7001Z" fill="#0C0C0C"/>
<path d="M194.356 67.0951C194.185 67.0822 194.016 67.0549 193.85 67.0133C193.831 67.0087 193.813 67.0004 193.798 66.9888C193.782 66.9773 193.769 66.9629 193.759 66.9463C193.749 66.9296 193.742 66.9112 193.739 66.892C193.736 66.8728 193.737 66.8533 193.742 66.8344C193.746 66.8156 193.755 66.7978 193.766 66.7822C193.778 66.7666 193.792 66.7533 193.809 66.7433C193.825 66.7333 193.844 66.7266 193.863 66.7237C193.882 66.7208 193.902 66.7217 193.921 66.7263C194.92 66.9729 195.468 66.5745 195.491 66.5574C195.523 66.5336 195.562 66.5233 195.601 66.5286C195.64 66.5339 195.675 66.5544 195.699 66.5856C195.722 66.6168 195.733 66.6562 195.727 66.695C195.722 66.7339 195.702 66.769 195.67 66.7927C195.28 67.0423 194.816 67.1492 194.356 67.0951V67.0951Z" fill="#0C0C0C"/>
<path d="M190.52 57.8203C190.918 57.8203 191.242 57.4971 191.242 57.0985C191.242 56.6999 190.918 56.3767 190.52 56.3767C190.121 56.3767 189.798 56.6999 189.798 57.0985C189.798 57.4971 190.121 57.8203 190.52 57.8203Z" fill="#0C0C0C"/>
<path d="M197.231 58.2677C197.63 58.2677 197.953 57.9446 197.953 57.546C197.953 57.1474 197.63 56.8242 197.231 56.8242C196.833 56.8242 196.51 57.1474 196.51 57.546C196.51 57.9446 196.833 58.2677 197.231 58.2677Z" fill="#0C0C0C"/>
<path d="M206.547 65.3804C208.308 65.6444 210.019 63.9747 210.283 62.2135C210.547 60.4522 209.265 59.2671 207.504 59.0031L206.419 60.0469L205.033 65.1534L206.547 65.3804Z" fill="#E98862"/>
<path d="M205.18 62.3052C205.18 62.3052 205.78 53.4994 203.208 52.5982C201.496 51.9981 196.881 53.9121 193.026 52.6153C191.34 52.0479 189.638 52.2513 189.359 53.0462C189.248 53.3608 188.807 48.56 192.002 45.3997C194.546 42.8835 201.719 43.0573 204.807 44.4195C213.356 48.1914 207.815 59.4371 207.815 59.4371L207.006 62.3903L205.18 62.3052Z" fill="#0C0C0C"/>
<path d="M193.718 63.4953H193.707C193.139 63.4117 192.196 63.2083 192.258 62.7835C192.31 62.4315 193.833 58.7747 194.007 58.3591C194.014 58.3406 194.024 58.3237 194.038 58.3094C194.051 58.2951 194.068 58.2837 194.086 58.2758C194.104 58.268 194.123 58.2639 194.143 58.2637C194.163 58.2636 194.182 58.2674 194.2 58.275C194.218 58.2825 194.235 58.2937 194.249 58.3078C194.262 58.3219 194.273 58.3386 194.28 58.357C194.287 58.3754 194.291 58.395 194.29 58.4147C194.289 58.4343 194.285 58.4537 194.276 58.4715C193.601 60.0909 192.583 62.5864 192.548 62.8259C192.589 62.9345 193.161 63.1193 193.749 63.2062C193.786 63.2121 193.819 63.232 193.842 63.2618C193.865 63.2915 193.875 63.3289 193.871 63.3662C193.867 63.4035 193.849 63.4378 193.821 63.4621C193.792 63.4863 193.755 63.4987 193.718 63.4966L193.718 63.4953Z" fill="#0C0C0C"/>
<path d="M192.943 54.7303C192.368 54.4843 191.737 54.3982 191.117 54.4811C190.813 54.5198 190.516 54.604 190.237 54.7308C189.961 54.8548 189.702 55.0132 189.466 55.2021C189.422 55.2355 189.393 55.2844 189.385 55.3386C189.377 55.3927 189.39 55.448 189.421 55.4929C189.453 55.5377 189.5 55.5687 189.554 55.5795C189.608 55.5902 189.663 55.5798 189.71 55.5504L189.724 55.541C189.939 55.3901 190.173 55.267 190.418 55.1745C190.66 55.0821 190.914 55.0268 191.173 55.0106C191.682 54.9748 192.191 55.0738 192.649 55.2977L192.669 55.3076C192.744 55.3465 192.832 55.3538 192.913 55.3279C192.993 55.302 193.061 55.2452 193.099 55.1697C193.138 55.0943 193.146 55.0066 193.12 54.9258C193.094 54.845 193.037 54.7778 192.961 54.739L192.943 54.7303Z" fill="#0C0C0C"/>
<path d="M197.124 55.6685C197.609 55.5099 198.128 55.4822 198.627 55.5883C198.88 55.6398 199.125 55.7296 199.351 55.8546C199.582 55.9802 199.796 56.1344 199.988 56.3134L200 56.3244C200.042 56.3604 200.096 56.3789 200.151 56.3759C200.206 56.373 200.258 56.349 200.295 56.3088C200.333 56.2685 200.353 56.2153 200.353 56.1603C200.352 56.1053 200.33 56.0527 200.291 56.0136C200.083 55.7939 199.848 55.6012 199.592 55.4403C199.333 55.2761 199.051 55.1517 198.755 55.0712C198.152 54.9036 197.516 54.9018 196.912 55.0659C196.83 55.0887 196.761 55.1431 196.72 55.2171C196.678 55.291 196.667 55.3784 196.69 55.4601C196.713 55.5418 196.768 55.611 196.842 55.6526C196.915 55.6942 197.003 55.7047 197.085 55.6818L197.103 55.6759L197.124 55.6685Z" fill="#0C0C0C"/>
<path d="M198.116 46.2779C198.781 44.411 198.292 42.5313 197.024 42.0796C195.755 41.6279 194.188 42.7752 193.523 44.6422C192.858 46.5091 193.347 48.3888 194.616 48.8405C195.884 49.2922 197.452 48.1449 198.116 46.2779Z" fill="#0C0C0C"/>
<path d="M118.686 226.517C118.686 226.517 117.316 233.621 110.665 234.017C104.014 234.412 105.456 239.711 105.456 239.711H130.873V227.013L118.686 226.517Z" fill="#367CFF"/>
<path d="M167.04 222.032C167.04 222.032 168.945 229.011 163.152 232.302C157.359 235.593 160.992 239.711 160.992 239.711L183.798 228.491L178.192 217.097L167.04 222.032Z" fill="#367CFF"/>
<path d="M181.165 220.061L161.933 159.388H196.794C203.797 159.388 206.716 153.45 206.716 146.447C206.716 139.445 199.832 133.306 192.829 133.306H145.779C141.508 133.306 136.719 135.918 134.375 139.489C132.031 143.059 132.664 148.592 134.363 152.511L165.161 227.312" fill="#262626"/>
<path opacity="0.8" d="M181.165 220.061L161.933 159.388H196.794C203.797 159.388 206.716 153.45 206.716 146.447C206.716 139.445 199.832 133.306 192.829 133.306H145.779C141.508 133.306 136.719 135.918 134.375 139.489C132.031 143.059 132.664 148.592 134.363 152.511L165.161 227.312" fill="#0A0A0A"/>
<path d="M132.334 233.114L164.491 159.388L206.716 159.385C216.61 158.61 221.141 153.187 220.997 146.187C220.855 139.274 217.355 132.447 210.474 132.447H153.563C148.472 132.551 144.467 138.178 142.578 142.907L115.844 228.6" fill="#262626"/>
<path d="M223.878 132.531C223.878 132.531 225.753 144.76 222.78 151.559C219.07 160.047 205.159 159.386 205.159 159.386L205.943 132.447L223.878 132.531Z" fill="#262626"/>
<path d="M141.368 132.291L171.195 126.111C172.437 125.853 173.595 125.286 174.561 124.462C175.527 123.639 176.269 122.585 176.719 121.398L188.451 90.4846C188.808 89.5568 188.978 88.5676 188.952 87.5738C188.926 86.58 188.703 85.6011 188.298 84.6935C187.892 83.7859 187.311 82.9673 186.588 82.2848C185.865 81.6024 185.015 81.0695 184.085 80.7168C183.156 80.364 182.166 80.1984 181.172 80.2294C180.178 80.2604 179.201 80.4874 178.295 80.8974C177.389 81.3074 176.573 81.8923 175.895 82.6186C175.216 83.3448 174.687 84.1979 174.338 85.1291L164.076 112.17L138.305 117.511C138.305 117.511 140.852 132.398 141.368 132.291Z" fill="#367CFF"/>
<path d="M175.867 98.3347C176.211 102.381 178.652 127.627 178.985 132.611H223.858C224.116 128.116 224.953 109.03 225.931 100.239C226.864 91.8503 227.202 87.0632 226.127 84.4565C224.232 79.8586 219.487 78.2042 215.4 77.6509C212.905 77.3133 209.152 77.071 209.152 77.071C209.152 77.071 208.834 83.4989 201.256 83.8567C190.941 84.3423 191.63 77.0702 191.579 77.0702C189.908 77.0702 180.812 78.2855 178.537 79.7679C175.325 81.8619 174.376 84.7152 174.338 87.3367C174.295 90.3562 175.475 93.7454 175.867 98.3347Z" fill="#367CFF"/>
<path d="M177.63 118.963H177.641C177.675 118.96 177.706 118.944 177.728 118.918C177.75 118.893 177.76 118.859 177.757 118.825L176.592 104.831C176.591 104.814 176.587 104.798 176.58 104.783C176.572 104.768 176.562 104.754 176.549 104.743C176.536 104.732 176.521 104.724 176.505 104.719C176.488 104.714 176.471 104.713 176.455 104.714C176.438 104.716 176.422 104.72 176.407 104.728C176.392 104.736 176.379 104.746 176.368 104.759C176.357 104.772 176.349 104.787 176.343 104.803C176.338 104.819 176.336 104.836 176.338 104.852L177.502 118.846C177.505 118.878 177.52 118.908 177.543 118.93C177.567 118.951 177.598 118.963 177.63 118.963Z" fill="#0C0C0C"/>
<path d="M156.258 127.362L146.411 97.096C146.239 96.5642 145.902 96.1007 145.45 95.7719C144.997 95.4432 144.452 95.266 143.893 95.2657H103.778C103.36 95.2657 102.948 95.3647 102.575 95.5545C102.202 95.7444 101.88 96.0198 101.634 96.3581C101.389 96.6965 101.226 97.0882 101.161 97.5012C101.096 97.9142 101.129 98.3369 101.259 98.7345L111.105 129.001C111.278 129.533 111.615 129.997 112.067 130.325C112.52 130.654 113.065 130.831 113.624 130.831H153.738C154.156 130.831 154.569 130.732 154.941 130.542C155.314 130.352 155.636 130.077 155.882 129.739C156.128 129.4 156.29 129.009 156.355 128.596C156.42 128.183 156.387 127.76 156.258 127.362V127.362Z" fill="#292A2E"/>
<path d="M156.258 127.362L146.411 97.096C146.239 96.5642 145.902 96.1007 145.45 95.7719C144.997 95.4432 144.452 95.266 143.893 95.2657H103.778C103.36 95.2657 102.948 95.3647 102.575 95.5545C102.202 95.7444 101.88 96.0198 101.634 96.3581C101.389 96.6965 101.226 97.0882 101.161 97.5012C101.096 97.9142 101.129 98.3369 101.259 98.7345L111.105 129.001C111.278 129.533 111.615 129.997 112.067 130.325C112.52 130.654 113.065 130.831 113.624 130.831H153.738C154.156 130.831 154.569 130.732 154.941 130.542C155.314 130.352 155.636 130.077 155.882 129.739C156.128 129.4 156.29 129.009 156.355 128.596C156.42 128.183 156.387 127.76 156.258 127.362V127.362Z" fill="#292A2E"/>
<path d="M175.078 128.377H148.225C147.556 128.377 147.014 128.919 147.014 129.588V129.619C147.014 130.288 147.556 130.831 148.225 130.831H175.078C175.747 130.831 176.29 130.288 176.29 129.619V129.588C176.29 128.919 175.747 128.377 175.078 128.377Z" fill="#292A2E"/>
<path d="M175.078 128.377H148.225C147.556 128.377 147.014 128.919 147.014 129.588V129.619C147.014 130.288 147.556 130.831 148.225 130.831H175.078C175.747 130.831 176.29 130.288 176.29 129.619V129.588C176.29 128.919 175.747 128.377 175.078 128.377Z" fill="#292A2E"/>
<path d="M128.758 118.732C131.082 118.732 132.965 116.848 132.965 114.525C132.965 112.201 131.082 110.318 128.758 110.318C126.435 110.318 124.551 112.201 124.551 114.525C124.551 116.848 126.435 118.732 128.758 118.732Z" fill="white"/>
<path d="M158.502 120.272L165.204 117.923L164.242 117.857C163.931 117.829 163.643 117.685 163.436 117.453C163.228 117.221 163.116 116.919 163.122 116.607C163.131 116.447 163.173 116.29 163.244 116.146C163.316 116.002 163.416 115.874 163.539 115.77C163.661 115.666 163.804 115.588 163.958 115.541C164.111 115.494 164.273 115.479 164.433 115.496L176.29 116.756L175.982 120.567C175.886 121.75 175.439 122.878 174.698 123.806C173.957 124.733 172.956 125.419 171.823 125.774L166.689 127.373C166.423 127.462 166.136 127.456 165.875 127.356C165.613 127.257 165.395 127.07 165.255 126.828C165.134 126.607 165.086 126.352 165.12 126.102C165.153 125.852 165.266 125.619 165.441 125.438C165.425 125.426 165.413 125.411 165.406 125.393C165.399 125.376 165.398 125.358 165.4 125.34C165.403 125.322 165.41 125.305 165.42 125.291L164.475 125.587C164.18 125.686 163.858 125.67 163.574 125.541C163.291 125.412 163.067 125.18 162.948 124.892C162.851 124.631 162.849 124.344 162.942 124.082C163.036 123.82 163.219 123.599 163.459 123.458C163.448 123.452 163.438 123.444 163.43 123.435L163.041 123.556C162.776 123.646 162.488 123.64 162.226 123.541C161.964 123.442 161.745 123.255 161.605 123.012C161.458 122.744 161.421 122.429 161.501 122.133C161.581 121.838 161.772 121.585 162.034 121.427C162.032 121.42 162.031 121.412 162.031 121.403L159.24 122.382C159.102 122.43 158.955 122.451 158.809 122.443C158.662 122.435 158.519 122.398 158.387 122.334C158.12 122.206 157.915 121.977 157.817 121.697C157.719 121.418 157.736 121.111 157.865 120.844C157.993 120.577 158.222 120.372 158.502 120.275L158.502 120.272Z" fill="#E98862"/>
<path opacity="0.2" d="M162.142 121.51C162.155 121.51 162.168 121.508 162.18 121.504L164.879 120.522C164.893 120.517 164.906 120.509 164.916 120.499C164.927 120.489 164.936 120.477 164.942 120.464C164.948 120.451 164.952 120.437 164.952 120.422C164.953 120.407 164.951 120.393 164.946 120.379C164.941 120.365 164.933 120.353 164.923 120.342C164.913 120.331 164.901 120.322 164.888 120.316C164.875 120.31 164.86 120.307 164.846 120.306C164.831 120.306 164.816 120.308 164.803 120.313L162.103 121.295C162.078 121.303 162.058 121.321 162.045 121.343C162.031 121.366 162.027 121.393 162.031 121.418C162.036 121.444 162.049 121.468 162.069 121.484C162.09 121.501 162.115 121.51 162.141 121.51H162.142Z" fill="#0A0A0A"/>
<path opacity="0.2" d="M163.506 123.472C163.519 123.472 163.531 123.47 163.543 123.466L165.671 122.71C165.685 122.706 165.698 122.698 165.709 122.689C165.72 122.679 165.729 122.667 165.736 122.654C165.743 122.641 165.746 122.626 165.747 122.611C165.748 122.597 165.746 122.582 165.741 122.568C165.736 122.554 165.728 122.541 165.718 122.53C165.709 122.519 165.696 122.51 165.683 122.504C165.67 122.498 165.655 122.494 165.64 122.494C165.625 122.493 165.611 122.496 165.597 122.501L163.469 123.256C163.444 123.265 163.423 123.282 163.41 123.305C163.397 123.327 163.392 123.354 163.396 123.38C163.401 123.406 163.414 123.429 163.434 123.446C163.454 123.463 163.48 123.472 163.506 123.472V123.472Z" fill="#0A0A0A"/>
<path opacity="0.2" d="M165.51 125.466C165.523 125.466 165.537 125.463 165.549 125.458L166.546 125.078C166.574 125.068 166.596 125.047 166.608 125.02C166.62 124.993 166.621 124.962 166.61 124.935C166.6 124.907 166.579 124.885 166.552 124.873C166.525 124.861 166.494 124.86 166.466 124.87L165.47 125.251C165.446 125.26 165.425 125.277 165.413 125.3C165.4 125.323 165.396 125.349 165.4 125.375C165.405 125.4 165.418 125.423 165.438 125.44C165.458 125.456 165.483 125.466 165.509 125.466H165.51Z" fill="#0A0A0A"/>
<path d="M171.042 114.501L199.156 114.482L209.792 88.5375L225.658 95.2082L212.388 126.001L212.258 126.308C211.609 127.804 210.515 129.065 209.125 129.92C207.736 130.774 206.117 131.181 204.488 131.085L170.616 129.084L171.042 114.501Z" fill="#367CFF"/>
<path d="M204.954 131.226C206.531 131.223 208.072 130.761 209.39 129.897C210.707 129.032 211.745 127.803 212.375 126.358L212.505 126.051L223.812 99.8143L223.577 99.7121L212.14 126.258C211.498 127.728 210.422 128.967 209.055 129.807C207.688 130.647 206.097 131.048 204.496 130.957L170.748 128.964L171.166 114.63L199.241 114.611L207.42 94.6623L207.183 94.5654L199.07 114.355L170.918 114.375L170.485 129.204L170.609 129.212L204.481 131.213C204.639 131.221 204.799 131.226 204.954 131.226Z" fill="#0C0C0C"/>
<path d="M61.5513 133.281L50.7766 239.949L51.2852 240L62.0599 133.333L61.5513 133.281Z" fill="#494949"/>
<path d="M236.226 133.28L235.717 133.332L246.499 239.998L247.008 239.947L236.226 133.28Z" fill="#494949"/>
<path d="M191.678 133.28L191.17 133.332L201.952 239.998L202.46 239.947L191.678 133.28Z" fill="#494949"/>
<path d="M17.0037 133.281L6.229 239.948L6.73758 240L17.5123 133.332L17.0037 133.281Z" fill="#494949"/>
<path d="M7.2872 135.4L245.236 135.4C246.392 135.4 247.33 134.463 247.33 133.306C247.33 132.15 246.392 131.212 245.236 131.212L7.2872 131.212C6.13058 131.212 5.19295 132.15 5.19295 133.306C5.19295 134.463 6.13058 135.4 7.2872 135.4Z" fill="#292A2E"/>
<path opacity="0.8" d="M7.2872 135.4L245.236 135.4C246.392 135.4 247.33 134.463 247.33 133.306C247.33 132.15 246.392 131.212 245.236 131.212L7.2872 131.212C6.13058 131.212 5.19295 132.15 5.19295 133.306C5.19295 134.463 6.13058 135.4 7.2872 135.4Z" fill="white"/>
<path d="M4.93713 133.306C4.93754 132.683 5.18524 132.086 5.62583 131.645C6.06642 131.204 6.66387 130.957 7.28696 130.956H245.235C245.858 130.956 246.455 131.204 246.896 131.645C247.337 132.085 247.584 132.683 247.584 133.306C247.584 133.929 247.337 134.527 246.896 134.968C246.455 135.408 245.858 135.656 245.235 135.656H7.28696C6.66387 135.656 6.06642 135.408 5.62583 134.967C5.18524 134.527 4.93754 133.929 4.93713 133.306ZM7.28696 131.467C6.79932 131.467 6.33165 131.661 5.98683 132.006C5.64202 132.351 5.4483 132.818 5.4483 133.306C5.4483 133.794 5.64202 134.261 5.98683 134.606C6.33165 134.951 6.79932 135.145 7.28696 135.145H245.235C245.722 135.145 246.19 134.951 246.535 134.606C246.88 134.261 247.073 133.794 247.073 133.306C247.073 132.818 246.88 132.351 246.535 132.006C246.19 131.661 245.722 131.467 245.235 131.467H7.28696Z" fill="#292A2E"/>
<path d="M7.28725 135.4L198.985 135.4C200.142 135.4 201.079 134.463 201.079 133.306C201.079 132.15 200.142 131.212 198.985 131.212L7.28725 131.212C6.13063 131.212 5.19299 132.15 5.19299 133.306C5.19299 134.463 6.13063 135.4 7.28725 135.4Z" fill="white"/>
<path d="M4.93713 133.306C4.93754 132.683 5.18524 132.086 5.62583 131.645C6.06642 131.204 6.66387 130.957 7.28696 130.956H198.985C199.608 130.956 200.206 131.204 200.647 131.645C201.087 132.085 201.335 132.683 201.335 133.306C201.335 133.929 201.087 134.527 200.647 134.968C200.206 135.408 199.608 135.656 198.985 135.656H7.28696C6.66387 135.656 6.06642 135.408 5.62583 134.967C5.18524 134.527 4.93754 133.929 4.93713 133.306ZM7.28696 131.467C6.79932 131.467 6.33165 131.661 5.98683 132.006C5.64202 132.351 5.4483 132.818 5.4483 133.306C5.4483 133.794 5.64202 134.261 5.98683 134.606C6.33165 134.951 6.79932 135.145 7.28696 135.145H198.985C199.473 135.145 199.94 134.951 200.285 134.606C200.63 134.261 200.824 133.794 200.824 133.306C200.824 132.818 200.63 132.351 200.285 132.006C199.94 131.661 199.473 131.467 198.985 131.467H7.28696Z" fill="#292A2E"/>
<path d="M34.7677 219.495C34.7677 219.495 29.9277 226.618 34.2174 231.746C38.5071 236.875 33.6459 239.47 33.6459 239.47L16.1482 220.912L25.4192 212.17L34.7677 219.495Z" fill="#367CFF"/>
<path d="M60.1678 104.962C60.1678 104.962 76.5054 161.154 72.6548 169.369C68.8691 177.445 34.3174 224.623 34.3174 224.623L21.8917 213.795L52.6228 163.958C52.6228 163.958 43.5258 135.178 38.6076 120.084C35.6428 110.986 30.6544 111.275 30.1805 101.718L60.1678 104.962Z" fill="#262626"/>
<path d="M42.0778 168.308L46.1194 163.706L45.0674 190.722L40.563 195.003L42.0778 168.308Z" fill="#0A0A0A"/>
<path d="M41.4086 128.735C41.4086 128.735 39.4735 117.248 41.543 119.709C48.2722 127.708 48.9421 152.326 48.9421 152.326L41.4086 128.735Z" fill="#0A0A0A"/>
<path d="M52.7135 225.921C52.7135 225.921 54.0888 233.049 60.7644 233.446C67.4399 233.843 65.9913 239.161 65.9913 239.161H40.4844V226.418L52.7135 225.921Z" fill="#367CFF"/>
<path d="M14.6318 103.554C14.6318 103.554 14.5189 103.029 14.4529 106.1C14.4056 108.268 13.5249 115.944 16.5699 128.051C22.274 150.734 39.3597 230.47 39.3597 230.47L56.1196 230.329L40.3143 102.857L14.6318 103.554Z" fill="#262626"/>
<path d="M14.3724 103.646L14.3177 103.649C14.3177 103.649 14.3571 102.593 14.3724 103.646Z" fill="#333333"/>
<path d="M106.116 53.4005C106.015 53.2008 105.854 53.0373 105.657 52.9326C105.459 52.8279 105.234 52.7872 105.012 52.816C105.014 52.7963 105.009 52.7764 105 52.7592C104.989 52.746 104.976 52.7357 104.96 52.7293C104.944 52.723 104.927 52.7209 104.911 52.7232L105.66 52.1865C105.883 52.0331 106.044 51.8039 106.112 51.5412C106.18 51.2785 106.151 51.0001 106.03 50.7573C105.903 50.5212 105.692 50.3409 105.439 50.2515C105.186 50.162 104.909 50.1698 104.661 50.2732C104.663 50.2627 104.656 50.2525 104.654 50.2418L104.961 50.0212C105.171 49.8758 105.325 49.6622 105.396 49.4166C105.467 49.1709 105.451 48.9082 105.351 48.673C105.285 48.5268 105.187 48.3972 105.065 48.2933C104.943 48.1895 104.799 48.114 104.644 48.0725C104.489 48.0309 104.327 48.0242 104.169 48.053C104.011 48.0817 103.862 48.145 103.732 48.2385L103.022 48.7474C103.02 48.743 103.022 48.7382 103.019 48.7343C103.016 48.7305 103.009 48.729 103.004 48.7246C103.167 48.5413 103.263 48.308 103.276 48.063C103.289 47.818 103.218 47.5759 103.076 47.3764C102.741 46.8371 101.967 46.9473 101.508 47.2762L97.3297 50.1625L98.0765 48.9051C98.2269 48.6631 98.2799 48.3731 98.2247 48.0937C98.1695 47.8142 98.0103 47.5661 97.7793 47.3994C97.657 47.3176 97.5194 47.2615 97.3747 47.2346C97.2301 47.2077 97.0815 47.2106 96.938 47.243C96.7945 47.2755 96.6591 47.3369 96.5401 47.4234C96.4211 47.5099 96.3209 47.6198 96.2458 47.7462L92.17 54.6104C91.6916 55.4158 91.5461 56.3759 91.7643 57.2868C91.9826 58.1977 92.5474 58.9877 93.3388 59.4887C94.2567 60.0699 95.3272 60.3638 96.4131 60.3326C97.4991 60.3014 98.551 59.9466 99.4339 59.3137L105.744 54.7911C105.953 54.6351 106.104 54.4129 106.172 54.1605C106.239 53.9081 106.219 53.6403 106.116 53.4005V53.4005Z" fill="#E98862"/>
<g opacity="0.25">
<path d="M98.8881 51.5985C98.9034 51.6197 98.9265 51.634 98.9522 51.6384C98.978 51.6428 99.0044 51.6369 99.0259 51.622L102.996 48.8722C103.007 48.8647 103.016 48.8552 103.023 48.8442C103.03 48.8331 103.035 48.8208 103.037 48.8079C103.04 48.7949 103.039 48.7817 103.037 48.7689C103.034 48.756 103.029 48.7439 103.021 48.7331C103.014 48.7223 103.004 48.7131 102.993 48.706C102.982 48.6989 102.97 48.694 102.957 48.6917C102.944 48.6893 102.93 48.6896 102.918 48.6923C102.905 48.6951 102.893 48.7004 102.882 48.7079L98.9119 51.4577C98.9011 51.4652 98.8918 51.4747 98.8847 51.4857C98.8776 51.4967 98.8727 51.509 98.8703 51.5219C98.8679 51.5348 98.8681 51.5481 98.8709 51.5609C98.8736 51.5738 98.8789 51.5859 98.8863 51.5967L98.8881 51.5985Z" fill="#0C0C0C"/>
</g>
<g opacity="0.25">
<path d="M100.053 53.3831C100.068 53.4042 100.091 53.4184 100.117 53.4227C100.142 53.4271 100.169 53.4212 100.19 53.4064L104.621 50.3376C104.632 50.3302 104.641 50.3206 104.648 50.3096C104.655 50.2986 104.66 50.2863 104.662 50.2734C104.665 50.2605 104.665 50.2472 104.662 50.2344C104.659 50.2215 104.654 50.2094 104.646 50.1986C104.631 50.1775 104.608 50.1632 104.582 50.1584C104.556 50.1537 104.529 50.1589 104.507 50.173L100.077 53.2418C100.066 53.2492 100.057 53.2587 100.05 53.2698C100.042 53.2808 100.038 53.2931 100.035 53.306C100.033 53.3189 100.033 53.3322 100.036 53.345C100.039 53.3579 100.044 53.37 100.051 53.3808L100.053 53.3831Z" fill="#0C0C0C"/>
</g>
<g opacity="0.25">
<path d="M101.303 55.3229C101.318 55.344 101.341 55.3582 101.367 55.3625C101.392 55.3669 101.419 55.361 101.44 55.3462L104.975 52.8985C104.996 52.8834 105.011 52.8602 105.016 52.8341C105.021 52.808 105.015 52.7811 105 52.7593C104.985 52.7375 104.961 52.7226 104.935 52.7179C104.909 52.7132 104.882 52.719 104.861 52.7341L101.326 55.1819C101.316 55.1893 101.306 55.1988 101.299 55.2098C101.292 55.2209 101.287 55.2332 101.285 55.2461C101.282 55.259 101.283 55.2722 101.285 55.2851C101.288 55.2979 101.293 55.3101 101.301 55.3209L101.303 55.3229Z" fill="#0C0C0C"/>
</g>
<path d="M89.7638 53.0468L77.7884 73.4423L63.176 54.2761L51.0399 65.2166L71.7646 92.0558L71.9006 92.2468C72.7301 93.3829 73.8351 94.2892 75.1117 94.8802C76.3883 95.4712 77.7943 95.7274 79.1973 95.6247C80.6003 95.522 81.954 95.0638 83.1309 94.2933C84.3079 93.5227 85.2692 92.4652 85.9244 91.2204L102.954 60.382L89.7638 53.0468Z" fill="#367CFF"/>
<path d="M76.6143 75.8948C76.5883 75.8948 76.5626 75.8882 76.5399 75.8754C76.5172 75.8627 76.4981 75.8444 76.4845 75.8221C76.4709 75.7999 76.4633 75.7746 76.4623 75.7486C76.4613 75.7225 76.467 75.6967 76.4789 75.6735L77.6527 73.3732C77.6738 73.3424 77.7053 73.3203 77.7415 73.311C77.7777 73.3018 77.816 73.3061 77.8493 73.3231C77.8825 73.3401 77.9084 73.3686 77.9221 73.4034C77.9358 73.4381 77.9364 73.4766 77.9237 73.5118L76.7498 75.812C76.7369 75.8369 76.7175 75.8577 76.6936 75.8723C76.6697 75.8869 76.6423 75.8947 76.6143 75.8948V75.8948Z" fill="#0C0C0C"/>
<path d="M62.3331 73.326L61.9675 79.7678L62.2712 79.7851L62.6368 73.3432L62.3331 73.326Z" fill="#0C0C0C"/>
<path d="M23.7457 26.7053C23.7457 26.7053 23.1835 33.8757 21.5401 36.4604C16.8054 43.9017 15.3606 52.3178 19.9646 56.7767C24.5687 61.2356 54.2539 61.6405 56.6201 51.5344C58.6121 43.0264 54.5596 42.0623 53.6523 35.0141C53.2418 31.8249 52.0886 25.1343 52.0886 25.1343" fill="#0A0A0A"/>
<path d="M49.0628 49.9192C49.0116 49.9123 48.4427 59.3486 37.4808 58.5259C29.8917 57.9575 27.1856 49.9056 27.0118 49.9056C27.8297 49.7318 29.2078 49.4791 29.5712 49.2851C30.7664 48.6428 32.2449 47.9747 32.6301 45.654C32.8522 44.3165 32.4754 37.4738 32.5915 36.1208L44.2415 38.7208C44.0786 41.579 42.9395 48.205 46.9325 49.3786C47.5957 49.5713 48.3114 49.7497 49.0628 49.9192Z" fill="#E98862"/>
<path opacity="0.52" d="M44.4037 46.6694C44.2214 46.0813 44.1039 45.475 44.0533 44.8614C43.9255 43.4611 43.9512 42.051 44.13 40.6563C41.7623 40.3366 39.5317 39.3593 37.6916 37.8354C37.4754 38.6344 36.2859 42.1249 36.6151 42.8842C37.2384 44.3193 40.1628 46.6694 44.4037 46.6694Z" fill="#0C0C0C"/>
<path d="M42.8597 43.6995C38.2622 44.0905 32.3414 42.1849 31.1813 36.0548L30.1334 30.5237C28.9733 24.3935 31.2526 18.8149 37.0242 17.7226C42.796 16.6302 48.0506 20.7832 49.2106 26.9133L49.674 29.3621C50.1198 31.7142 51.0629 43.0015 42.8597 43.6995Z" fill="#E98862"/>
<path d="M48.0302 29.6292C48.4298 29.6292 48.7538 29.3053 48.7538 28.9057C48.7538 28.5061 48.4298 28.1821 48.0302 28.1821C47.6306 28.1821 47.3066 28.5061 47.3066 28.9057C47.3066 29.3053 47.6306 29.6292 48.0302 29.6292Z" fill="#0C0C0C"/>
<path d="M40.6177 30.6191C41.0173 30.6191 41.3413 30.2952 41.3413 29.8956C41.3413 29.4959 41.0173 29.172 40.6177 29.172C40.2181 29.172 39.8942 29.4959 39.8942 29.8956C39.8942 30.2952 40.2181 30.6191 40.6177 30.6191Z" fill="#0C0C0C"/>
<path d="M44.6857 35.1999C44.6894 35.1997 44.6932 35.1992 44.6969 35.1984C44.9307 35.1524 45.1617 35.0935 45.389 35.022C45.7284 34.9129 46.1729 34.7322 46.1151 34.4258C46.0492 34.0764 44.379 30.4898 44.1888 30.0809C44.1806 30.0632 44.1689 30.0474 44.1546 30.0342C44.1402 30.0211 44.1234 30.0109 44.1051 30.0043C44.0868 29.9976 44.0674 29.9946 44.0479 29.9955C44.0285 29.9964 44.0094 30.0011 43.9917 30.0093C43.9741 30.0175 43.9583 30.0292 43.9451 30.0435C43.932 30.0579 43.9218 30.0747 43.9152 30.093C43.9085 30.1113 43.9055 30.1307 43.9064 30.1502C43.9073 30.1696 43.9119 30.1887 43.9202 30.2063C44.6325 31.734 45.7793 34.2458 45.8238 34.481C45.7854 34.5898 45.2221 34.7971 44.6417 34.907C44.6042 34.9144 44.5711 34.9359 44.5491 34.9671C44.5271 34.9983 44.518 35.0368 44.5236 35.0745C44.5293 35.1122 44.5493 35.1463 44.5795 35.1697C44.6097 35.1931 44.6477 35.2039 44.6857 35.1999Z" fill="#0C0C0C"/>
<path d="M43.8309 37.8464C44.7722 37.7244 45.6718 37.383 46.457 36.8496C46.4895 36.828 46.5122 36.7944 46.5201 36.7561C46.528 36.7179 46.5204 36.6781 46.4991 36.6453C46.4778 36.6126 46.4444 36.5896 46.4062 36.5813C46.368 36.5731 46.3281 36.5802 46.2952 36.6012C44.5961 37.7081 42.9077 37.8873 41.4136 37.119C41.3833 37.1027 41.3523 37.0879 41.3205 37.0748C41.2836 37.0618 41.2431 37.0639 41.2078 37.0807C41.1724 37.0974 41.1451 37.1275 41.1319 37.1643C41.1186 37.2011 41.1204 37.2416 41.1368 37.2771C41.1533 37.3126 41.1832 37.3401 41.2198 37.3536C41.2316 37.3585 41.251 37.369 41.2781 37.383C42.064 37.788 42.9528 37.9494 43.8309 37.8464Z" fill="#0C0C0C"/>
<path d="M25.5171 32.4514L30.6912 31.5029C34.6095 29.9183 35.7946 23.1339 35.7946 23.1339C35.7946 23.1339 40.5541 27.7727 52.0886 25.1343C52.0886 25.1343 49.7758 9.04871 32.7356 13.7259C27.2405 15.2338 23.2974 20.771 23.7886 28.1712C24.1329 33.3572 25.5171 32.4514 25.5171 32.4514Z" fill="#0A0A0A"/>
<path d="M31.8931 37.8547C30.1391 38.1869 28.3623 36.5793 28.0303 34.8253C27.6983 33.0712 28.9371 31.8349 30.6911 31.5027L31.8172 32.5069L33.4018 37.5689L31.8931 37.8547Z" fill="#E98862"/>
<path d="M45.2456 27.1493C45.7576 26.8189 46.3491 26.6323 46.958 26.609C47.2576 26.5958 47.5575 26.6275 47.8477 26.7031C48.1351 26.777 48.412 26.8867 48.672 27.0297C48.7074 27.0484 48.7342 27.0802 48.7468 27.1183C48.7593 27.1563 48.7565 27.1978 48.7391 27.2339C48.7217 27.27 48.691 27.298 48.6534 27.3119C48.6158 27.3258 48.5743 27.3246 48.5375 27.3085L48.5263 27.3034C48.286 27.1854 48.0318 27.098 47.7698 27.0433C47.5107 26.9878 47.2448 26.9718 46.981 26.996C46.4575 27.0397 45.9549 27.2212 45.5242 27.522L45.5104 27.5322C45.4604 27.5653 45.3994 27.5778 45.3403 27.5671C45.2813 27.5563 45.2286 27.5231 45.1935 27.4745C45.1583 27.4258 45.1433 27.3654 45.1517 27.306C45.16 27.2465 45.191 27.1926 45.2382 27.1555L45.2456 27.1493Z" fill="#0C0C0C"/>
<path d="M40.6313 28.2358C40.1213 28.1108 39.5872 28.1231 39.0835 28.2713C38.8288 28.3442 38.5866 28.4551 38.365 28.6002C38.1404 28.746 37.935 28.9194 37.7537 29.1165L37.7455 29.1247C37.7171 29.1531 37.6788 29.1694 37.6387 29.1702C37.5985 29.1709 37.5596 29.156 37.5302 29.1286C37.5008 29.1012 37.4833 29.0635 37.4812 29.0233C37.4791 28.9832 37.4927 28.9439 37.5191 28.9136C37.7097 28.6863 37.9282 28.484 38.1695 28.3114C38.4128 28.1361 38.681 27.9983 38.9651 27.9025C39.5411 27.7045 40.1598 27.6649 40.7563 27.788C40.8166 27.801 40.8693 27.8374 40.9028 27.8892C40.9363 27.9411 40.9478 28.0041 40.9348 28.0644C40.9218 28.1247 40.8854 28.1774 40.8336 28.2109C40.7817 28.2444 40.7187 28.2559 40.6584 28.2429L40.6489 28.2406L40.6313 28.2358Z" fill="#0C0C0C"/>
<path d="M44.031 39.2383C44.2016 39.2186 44.3702 39.1844 44.535 39.1361C44.5537 39.1307 44.5712 39.1217 44.5864 39.1096C44.6017 39.0974 44.6143 39.0824 44.6238 39.0654C44.6332 39.0483 44.6392 39.0296 44.6413 39.0102C44.6435 38.9909 44.6419 38.9713 44.6365 38.9526C44.6311 38.9339 44.6221 38.9164 44.6099 38.9012C44.5978 38.886 44.5828 38.8733 44.5657 38.8639C44.5487 38.8544 44.53 38.8485 44.5106 38.8463C44.4913 38.8441 44.4717 38.8457 44.453 38.8511C43.4611 39.1366 42.897 38.7583 42.8732 38.742C42.841 38.7194 42.8012 38.7105 42.7624 38.7173C42.7237 38.7241 42.6892 38.746 42.6666 38.7782C42.644 38.8104 42.6351 38.8502 42.6419 38.889C42.6487 38.9277 42.6706 38.9622 42.7028 38.9848C43.1029 39.2202 43.5723 39.3098 44.031 39.2383V39.2383Z" fill="#0C0C0C"/>
<path d="M30.7024 31.4368L30.6512 31.2936C37.2067 28.9402 35.6037 22.5072 35.5868 22.4426L35.7338 22.404C35.7509 22.4704 37.3917 29.0363 30.7024 31.4368Z" fill="#0C0C0C"/>
<path opacity="0.1" d="M40.0338 35.6516C40.7907 35.5701 41.3558 35.054 41.2961 34.4988C41.2363 33.9436 40.5743 33.5596 39.8175 33.641C39.0606 33.7224 38.4954 34.2385 38.5552 34.7937C38.6149 35.3489 39.2769 35.733 40.0338 35.6516Z" fill="#0C0C0C"/>
<path opacity="0.1" d="M48.0449 33.5276C48.1063 34.082 48.768 34.4656 49.5247 34.3851C49.6556 34.371 49.7846 34.3434 49.9097 34.3026C49.9523 33.6429 49.9608 33.008 49.9493 32.42C49.74 32.3652 49.5224 32.3499 49.3075 32.375C48.5505 32.4552 47.9856 32.9702 48.0449 33.5276Z" fill="#0C0C0C"/>
<path d="M62.6824 70.6943C62.3372 74.7506 60.6575 100.058 60.3257 105.055H14.4673C14.2089 100.549 13.1538 80.8432 12.1737 72.0307C11.2382 63.622 9.40263 59.4113 10.748 56.9258C12.946 52.862 18.9545 50.5147 23.051 49.9601C25.5527 49.6215 29.3151 49.3787 29.3151 49.3787C29.3151 49.3787 29.6338 55.8232 37.2297 56.1818C47.5703 56.6697 46.8798 49.3787 46.9311 49.3787C48.6062 49.3787 58.1768 50.4391 60.5172 51.8269C66.897 55.6036 63.4155 62.097 62.6824 70.6943Z" fill="#367CFF"/>
<path d="M91.1956 73.5271L86.9613 94.1074C86.8753 94.5253 86.6486 94.901 86.3191 95.172C85.9896 95.443 85.5772 95.5929 85.1505 95.5967L55.9942 95.8449C55.716 95.8472 55.4409 95.7872 55.189 95.6694C54.937 95.5517 54.7146 95.379 54.5379 95.1642C54.3613 94.9494 54.2349 94.6978 54.168 94.4279C54.1011 94.1579 54.0955 93.8764 54.1514 93.6039L58.3859 73.0236C58.472 72.6058 58.6987 72.23 59.0282 71.959C59.3577 71.688 59.7701 71.5382 60.1967 71.5344L89.3531 71.2862C89.6312 71.284 89.9062 71.344 90.1582 71.4617C90.4101 71.5795 90.6325 71.7521 90.8091 71.967C90.9858 72.1818 91.1121 72.4334 91.179 72.7033C91.2459 72.9733 91.2515 73.2547 91.1956 73.5271V73.5271Z" fill="#292A2E"/>
<path d="M64.0079 88.1456C64.0236 88.4167 63.9408 88.6842 63.7747 88.8989C63.6086 89.1137 63.3704 89.2611 63.1041 89.3139L62.2068 89.5117C62.2228 89.517 62.2373 89.5261 62.249 89.5384C62.2606 89.5506 62.269 89.5655 62.2735 89.5818C62.2758 89.6008 62.2715 89.6201 62.2615 89.6365C62.4772 89.6971 62.6688 89.8234 62.8094 89.9979C62.9501 90.1723 63.0329 90.3863 63.0464 90.61C63.0476 90.8707 62.9609 91.1243 62.8003 91.3297C62.6396 91.5351 62.4144 91.6803 62.161 91.7419L54.5817 93.4245C54.1943 93.5115 53.7983 93.5554 53.4012 93.5553C52.5166 93.5552 51.6453 93.3399 50.8624 92.9281C50.0795 92.5162 49.4085 91.9201 48.9073 91.1912C48.3758 90.42 48.1662 89.4718 48.323 88.5485C48.4799 87.6251 48.9908 86.7993 49.7471 86.2469L56.1945 81.534C56.3363 81.43 56.5013 81.3621 56.6752 81.3362L56.0818 84.2176L56.24 84.181L56.2734 84.1749L61.2179 83.1677C61.7685 83.046 62.5232 83.2469 62.6206 83.8736C62.6728 84.1136 62.6422 84.3641 62.5339 84.5846C62.4256 84.805 62.2459 84.9823 62.0241 85.0876C62.0271 85.0907 62.0333 85.0937 62.0333 85.0999C62.0333 85.106 62.0302 85.1091 62.0302 85.1149L62.8851 84.9263C63.0415 84.8917 63.2037 84.8921 63.36 84.9277C63.5162 84.9633 63.6626 85.033 63.7886 85.132C63.9146 85.2309 64.0171 85.3566 64.0887 85.5C64.1603 85.6433 64.1992 85.8007 64.2026 85.9609C64.2026 86.2167 64.1141 86.4645 63.9522 86.6625C63.7903 86.8605 63.5649 86.9964 63.3142 87.0471L62.9459 87.1292C62.9431 87.1415 62.9459 87.1547 62.9401 87.1627C63.2083 87.1647 63.4662 87.2664 63.6636 87.4481C63.861 87.6298 63.9837 87.8785 64.0079 88.1456V88.1456Z" fill="#E98862"/>
<g opacity="0.25">
<path d="M57.1082 86.1137C57.1138 86.1393 57.1293 86.1617 57.1513 86.1761C57.1733 86.1904 57.2 86.1955 57.2257 86.1904L61.9566 85.2192C61.9825 85.2138 62.0053 85.1984 62.0199 85.1762C62.0344 85.1541 62.0396 85.127 62.0343 85.1011C62.0289 85.0751 62.0135 85.0524 61.9913 85.0378C61.9692 85.0232 61.9421 85.018 61.9162 85.0234L57.1853 85.9946C57.1596 86.0001 57.1371 86.0156 57.1227 86.0377C57.1083 86.0598 57.1033 86.0866 57.1087 86.1124L57.1082 86.1137Z" fill="#0C0C0C"/>
</g>
<g opacity="0.25">
<path d="M57.4785 88.2121C57.4844 88.2375 57.5 88.2597 57.5219 88.2738C57.5439 88.2879 57.5705 88.2928 57.5961 88.2875L62.8757 87.2049C62.9014 87.1993 62.924 87.1837 62.9383 87.1616C62.9527 87.1395 62.9577 87.1126 62.9523 87.0868C62.9462 87.0613 62.9306 87.0392 62.9086 87.0249C62.8866 87.0106 62.86 87.0053 62.8343 87.0101L57.5547 88.0928C57.5289 88.0984 57.5065 88.114 57.4921 88.1361C57.4778 88.1582 57.4727 88.185 57.478 88.2108L57.4785 88.2121Z" fill="#0C0C0C"/>
</g>
<g opacity="0.25">
<path d="M57.8666 90.4871C57.8722 90.5128 57.8876 90.5352 57.9096 90.5495C57.9316 90.5639 57.9584 90.569 57.9842 90.5638L62.1954 89.7002C62.2084 89.6977 62.2208 89.6926 62.2318 89.6853C62.2429 89.678 62.2524 89.6686 62.2597 89.6576C62.2671 89.6466 62.2722 89.6342 62.2748 89.6212C62.2773 89.6083 62.2772 89.5949 62.2746 89.5819C62.2719 89.5689 62.2667 89.5566 62.2593 89.5457C62.2518 89.5348 62.2422 89.5254 62.2311 89.5182C62.22 89.511 62.2076 89.506 62.1946 89.5037C62.1816 89.5013 62.1682 89.5015 62.1553 89.5044L57.9438 90.368C57.918 90.3736 57.8955 90.3891 57.8811 90.4112C57.8667 90.4334 57.8617 90.4602 57.8671 90.4861L57.8666 90.4871Z" fill="#0C0C0C"/>
</g>
<path d="M54.1125 96.4235L12.9928 103.854C11.7096 103.994 10.4116 103.834 9.20054 103.388C7.98945 102.942 6.89825 102.221 6.01256 101.282C5.12687 100.343 4.47077 99.2119 4.09575 97.9769C3.72073 96.7418 3.63698 95.4367 3.85109 94.1639L9.60783 59.9472C9.97553 57.7625 11.1961 55.8132 13.0009 54.5284C13.8946 53.8922 14.9049 53.4382 15.974 53.1925C17.0431 52.9467 18.1501 52.9139 19.2319 53.096C20.3137 53.278 21.3491 53.6714 22.2788 54.2536C23.2086 54.8358 24.0146 55.5954 24.6508 56.4891C25.287 57.3827 25.7409 58.393 25.9867 59.4621C26.2325 60.5312 26.2653 61.6383 26.0832 62.7201L22.159 86.2735L52.3058 82.4876L54.1125 96.4235Z" fill="#367CFF"/>
<path d="M12.9926 104.006C12.9561 104.004 12.9219 103.988 12.8959 103.962C12.8699 103.937 12.854 103.903 12.8509 103.866C12.8478 103.83 12.8578 103.794 12.8791 103.764C12.9004 103.734 12.9316 103.713 12.967 103.705L53.9441 96.2995L52.1744 82.6575L22.1769 86.4245C22.1536 86.4276 22.1298 86.425 22.1076 86.4171C22.0854 86.4092 22.0654 86.3962 22.0491 86.3791C22.0327 86.362 22.0204 86.3413 22.0134 86.3187C22.0064 86.2961 22.0048 86.2721 22.0088 86.2487L24.504 71.1949C24.5071 71.1751 24.5141 71.1561 24.5246 71.139C24.5351 71.1219 24.5489 71.1071 24.5652 71.0955C24.5815 71.0839 24.6 71.0756 24.6196 71.0712C24.6391 71.0668 24.6594 71.0664 24.6791 71.0699C24.6988 71.0732 24.7177 71.0803 24.7347 71.0908C24.7516 71.1014 24.7663 71.1152 24.7779 71.1315C24.7895 71.1477 24.7978 71.1662 24.8023 71.1856C24.8068 71.2051 24.8074 71.2253 24.8041 71.245L22.342 86.0977L52.2864 82.337C52.3263 82.3323 52.3664 82.3434 52.3982 82.368C52.43 82.3925 52.4509 82.4286 52.4563 82.4684L54.2641 96.4043C54.2688 96.4429 54.2586 96.4819 54.2357 96.5133C54.2127 96.5447 54.1786 96.5662 54.1404 96.5735L13.0199 104.004C13.0109 104.006 13.0017 104.006 12.9926 104.006V104.006Z" fill="#0C0C0C"/>
<path d="M22.1343 86.1239L19.4893 86.5474L19.5374 86.8479L22.1825 86.4245L22.1343 86.1239Z" fill="#0C0C0C"/>
<path d="M161.508 23.2292C161.511 20.1349 160.896 17.0711 159.698 14.2182C158.5 11.3653 156.743 8.78083 154.531 6.61695C152.319 4.45307 149.697 2.75346 146.818 1.61815C143.94 0.482846 140.863 -0.0652297 137.77 0.00617984C125.211 0.288599 115.067 10.709 115.103 23.2709C115.109 26.5135 115.796 29.7186 117.121 32.6783C118.446 35.638 120.378 38.2861 122.792 40.4509C127.986 45.1232 131.07 51.6947 131.062 58.6814V58.7069L145.467 58.7235V58.698C145.475 51.7206 148.558 45.1521 153.761 40.502C156.198 38.332 158.147 35.6712 159.482 32.6943C160.817 29.7174 161.508 26.4918 161.508 23.2292V23.2292Z" fill="#0CBC8B"/>
<path d="M145.248 25.5327C145.009 25.226 144.595 25.0353 144.016 24.9704C143.036 24.8607 141.917 25.4161 140.955 26.4983L140.861 26.6005L140.789 26.4845C140.66 26.2752 140.513 26.0776 140.35 25.8938C139.657 25.1184 138.409 24.3266 136.388 24.9505C135.709 25.1482 135.084 25.4993 134.562 25.9766L134.491 26.0431L134.421 25.9766C134.259 25.8294 134.083 25.6982 133.896 25.5848C132.761 24.8924 131.494 25.0583 130.632 25.3195C130.393 25.3925 130.188 25.5503 130.057 25.7633C129.926 25.9764 129.878 26.2299 129.921 26.4763L135.567 58.7464C135.576 58.8007 135.607 58.8489 135.652 58.8807C135.697 58.9124 135.753 58.925 135.807 58.9156C135.861 58.9063 135.909 58.8758 135.941 58.8308C135.973 58.7858 135.985 58.7301 135.976 58.6759L130.329 26.4068C130.303 26.26 130.331 26.1087 130.409 25.9816C130.487 25.8545 130.609 25.7602 130.751 25.7167C131.533 25.4805 132.675 25.3269 133.68 25.9406C133.846 26.0404 134 26.1563 134.143 26.2866L134.213 26.351L134.155 26.4257C133.674 27.0604 133.406 27.8308 133.388 28.627C133.334 29.9785 133.921 31.3301 134.696 31.6368C134.846 31.698 135.009 31.7171 135.169 31.6919C135.329 31.6667 135.478 31.5982 135.602 31.4939C135.865 31.2782 136.266 30.7082 136.008 29.3173C135.778 28.0923 135.382 27.1193 134.829 26.4195L134.769 26.3449L134.839 26.2785C135.317 25.8438 135.889 25.5253 136.51 25.3476C137.942 24.9062 139.163 25.1881 140.038 26.1706C140.234 26.392 140.405 26.6347 140.548 26.8942L140.581 26.9522L140.541 27.0061C140.465 27.1083 140.39 27.2134 140.318 27.3212C139.48 28.5649 138.813 30.3351 139.327 31.2846C139.428 31.4686 139.58 31.6195 139.765 31.7193C139.95 31.819 140.16 31.8633 140.369 31.8468H140.388C140.815 31.8407 141.174 31.5568 141.396 31.051C141.83 30.0621 141.702 28.3852 141.095 27.0608L141.068 27.0028L141.11 26.9529C141.949 25.9373 142.903 25.3714 143.756 25.3714C143.829 25.3714 143.9 25.3755 143.97 25.3816C145.06 25.5061 145.044 26.0717 145.04 26.1361L140.43 58.6894C140.426 58.7164 140.427 58.7438 140.434 58.7702C140.441 58.7966 140.453 58.8213 140.469 58.8431C140.486 58.8648 140.506 58.8831 140.529 58.8969C140.553 58.9107 140.579 58.9198 140.606 58.9235C140.66 58.9294 140.714 58.9144 140.758 58.8817C140.801 58.849 140.831 58.801 140.84 58.7474L145.448 26.1995C145.47 25.9597 145.398 25.7206 145.248 25.5327ZM135.6 29.392C135.828 30.617 135.494 31.0461 135.339 31.1726C135.253 31.2467 135.143 31.2879 135.03 31.2887C134.968 31.2879 134.907 31.2759 134.849 31.2534C134.315 31.0397 133.75 29.9164 133.802 28.6436C133.823 27.9751 134.034 27.3264 134.411 26.7738L134.492 26.6577L134.579 26.7717C135.111 27.5579 135.46 28.4533 135.6 29.392V29.392ZM141.016 30.8843C140.859 31.2421 140.645 31.4274 140.382 31.4315H140.343C140.212 31.4458 140.08 31.4207 139.964 31.3593C139.848 31.298 139.753 31.2033 139.692 31.0875C139.334 30.4243 139.75 28.9048 140.663 27.5533L140.775 27.3874L140.858 27.5574C141.3 28.716 141.366 30.0841 141.016 30.8841V30.8843Z" fill="white"/>
<path d="M131.071 58.6864L145.476 58.7008L145.475 59.5427C145.473 61.4529 144.712 63.2841 143.36 64.6334C142.008 65.9827 140.176 66.7397 138.265 66.7378V66.7378C136.355 66.7359 134.524 65.9753 133.175 64.6232C131.825 63.2712 131.068 61.4385 131.07 59.5283L131.071 58.6864V58.6864Z" fill="#262626"/>
</svg>
