<svg width="153" height="120" viewBox="0 0 153 120" fill="none" xmlns="http://www.w3.org/2000/svg">
<path opacity="0.08" d="M35.3301 111.887C63.9856 130.887 105.278 113.537 130.788 90.4857C155.273 68.3613 167.179 10.9117 122.992 1.50784C104.594 -2.40768 96.2265 1.6758 82.6767 9.45202C71.7379 15.73 56.7074 12.7584 45.8368 7.13093C30.4657 -0.826078 11.5223 10.7473 3.4122 28.2003C-6.52328 49.5887 5.57349 92.1565 35.3301 111.887Z" fill="white"/>
<path opacity="0.1" d="M35.3301 111.887C63.9856 130.887 105.278 113.537 130.788 90.4857C155.273 68.3613 167.179 10.9117 122.992 1.50784C104.594 -2.40768 96.2265 1.6758 82.6767 9.45202C71.7379 15.73 56.7074 12.7584 45.8368 7.13093C30.4657 -0.826078 11.5223 10.7473 3.4122 28.2003C-6.52328 49.5887 5.57349 92.1565 35.3301 111.887Z" fill="#367CFF"/>
<path d="M40.44 18.5218C40.44 18.5218 39.8139 27.9158 37.7007 31.3227C31.6163 41.1343 29.8536 52.1717 35.9465 57.9386C42.0393 63.7054 80.9015 63.7853 83.8457 50.5216C86.3243 39.3553 81.0053 38.1545 79.7109 28.9436C79.1254 24.7756 77.5144 16.0356 77.5144 16.0356" fill="#0A0A0A"/>
<path d="M73.7866 48.5795C73.7196 48.5708 72.9751 60.9227 58.6255 59.8458C48.6915 59.1017 45.1495 48.5612 44.922 48.5612C45.9931 48.3334 47.7966 48.0025 48.2722 47.7488C49.8366 46.9081 51.7713 46.0336 52.2763 42.9958C52.5679 41.2462 52.0722 32.2879 52.2256 30.5156L67.4754 33.9194C67.2622 37.6605 65.771 46.334 70.9978 47.8689C71.8662 48.1229 72.8031 48.3562 73.7866 48.5795Z" fill="#E98862"/>
<path opacity="0.5" d="M67.6879 44.3243C67.4491 43.5546 67.2953 42.761 67.2293 41.9577C67.0617 40.1247 67.0952 38.2788 67.329 36.453C64.2301 36.0347 61.3107 34.7555 58.9025 32.7609C58.6194 33.8065 57.062 38.3758 57.4932 39.3695C58.3071 41.248 62.1366 44.3243 67.6879 44.3243Z" fill="#0C0C0C"/>
<path d="M65.7162 40.4759C59.7041 41.059 51.9255 38.6528 50.3142 30.6468L48.8603 23.4229C47.249 15.4169 50.1477 8.08008 57.6857 6.56291C65.224 5.04662 72.1645 10.402 73.7758 18.408L74.4197 21.6071C75.0379 24.6782 76.4425 39.4381 65.7162 40.4759Z" fill="#E98862"/>
<path d="M69.9924 30.9014C68.039 31.8944 65.8105 32.2085 63.6587 31.7939C63.5842 31.7799 63.5073 31.7873 63.4369 31.8154C63.3665 31.8435 63.3055 31.891 63.2611 31.9525C63.2167 32.0139 63.1908 32.0867 63.1863 32.1624C63.1817 32.2381 63.1988 32.3134 63.2356 32.3797C63.8771 33.5103 65.3986 35.4415 68.009 34.6542C69.6944 34.1456 70.3315 32.4115 70.5677 31.339C70.5838 31.2649 70.5784 31.1876 70.5521 31.1164C70.5259 31.0452 70.4798 30.983 70.4194 30.937C70.359 30.8911 70.2867 30.8633 70.2111 30.857C70.1355 30.8507 70.0596 30.8661 69.9924 30.9014Z" fill="white"/>
<path d="M70.1146 22.2139C70.6359 22.2139 71.0585 21.7913 71.0585 21.27C71.0585 20.7487 70.6359 20.3261 70.1146 20.3261C69.5933 20.3261 69.1707 20.7487 69.1707 21.27C69.1707 21.7913 69.5933 22.2139 70.1146 22.2139Z" fill="#0C0C0C"/>
<path d="M61.0448 23.8019C61.5661 23.8019 61.9887 23.3793 61.9887 22.858C61.9887 22.3367 61.5661 21.9142 61.0448 21.9142C60.5235 21.9142 60.101 22.3367 60.101 22.858C60.101 23.3793 60.5235 23.8019 61.0448 23.8019Z" fill="#0C0C0C"/>
<path opacity="0.1" d="M61.8949 29.9848C62.8842 29.8668 63.6161 29.1828 63.5295 28.4572C63.4429 27.7315 62.5707 27.2389 61.5814 27.357C60.592 27.475 59.8602 28.159 59.9467 28.8846C60.0333 29.6103 60.9055 30.1029 61.8949 29.9848Z" fill="#0C0C0C"/>
<path opacity="0.1" d="M72.3488 27.0835C72.4363 27.8081 73.3096 28.3001 74.299 28.1834C74.4699 28.1629 74.6383 28.1247 74.8014 28.0694C74.8474 27.2054 74.8501 26.3741 74.825 25.6046C74.5502 25.5359 74.265 25.5192 73.984 25.5553C72.9947 25.6722 72.2631 26.3557 72.3488 27.0835Z" fill="#0C0C0C"/>
<path opacity="0.5" d="M67.9772 29.3233L67.9918 29.3209C68.2973 29.2573 68.5991 29.1768 68.8957 29.0798C69.3384 28.9317 69.9163 28.6885 69.837 28.2881C69.7454 27.8318 67.5042 23.1613 67.25 22.6312C67.2394 22.6075 67.2241 22.5862 67.2051 22.5685C67.1862 22.5508 67.1638 22.5371 67.1395 22.5282C67.1151 22.5193 67.0892 22.5154 67.0633 22.5166C67.0374 22.5179 67.012 22.5243 66.9886 22.5356C66.9652 22.5468 66.9443 22.5626 66.9271 22.5821C66.91 22.6015 66.8969 22.6242 66.8886 22.6488C66.8804 22.6734 66.8771 22.6994 66.8791 22.7253C66.8811 22.7512 66.8882 22.7764 66.9001 22.7994C67.8556 24.7884 69.3946 28.0583 69.4565 28.3657C69.4081 28.5089 68.6738 28.7885 67.916 28.9413C67.8652 28.9495 67.8198 28.9775 67.7897 29.0192C67.7596 29.0609 67.7473 29.1129 67.7554 29.1636C67.7636 29.2144 67.7917 29.2598 67.8334 29.2899C67.8751 29.32 67.927 29.3323 67.9778 29.3241L67.9772 29.3233Z" fill="#0C0C0C"/>
<path d="M42.8456 26.016L49.6036 24.696C54.7085 22.5612 56.1569 13.6644 56.1569 13.6644C56.1569 13.6644 62.457 19.6642 77.5144 16.0359C77.5144 16.0359 74.2436 -4.98361 52.0101 1.39792C44.8413 3.45511 39.7632 10.7622 40.5184 20.441C41.0476 27.2226 42.8456 26.016 42.8456 26.016Z" fill="#0A0A0A"/>
<path d="M51.2733 32.9918C48.9825 33.4528 46.6322 31.3758 46.1704 29.0844C45.7085 26.7931 47.3122 25.1564 49.603 24.6954L51.0925 25.9927L53.2424 32.5946L51.2733 32.9918Z" fill="#E98862"/>
<path d="M68.875 18.9064C69.4481 18.501 70.1184 18.2548 70.8176 18.1928C71.1685 18.1594 71.5224 18.1791 71.8674 18.2512C72.2157 18.3223 72.5538 18.4368 72.8736 18.592L72.8836 18.5967C72.9192 18.6134 72.96 18.6153 72.9971 18.602C73.0341 18.5886 73.0644 18.5611 73.0811 18.5254C73.0979 18.4898 73.0997 18.4489 73.0864 18.4119C73.073 18.3748 73.0455 18.3446 73.0098 18.3279C72.6708 18.149 72.3107 18.0135 71.9379 17.9246C71.5625 17.8333 71.1755 17.799 70.7899 17.8228C70.0088 17.8658 69.2536 18.1175 68.603 18.5518C68.5788 18.5683 68.558 18.5893 68.542 18.6138C68.5259 18.6383 68.5148 18.6657 68.5094 18.6944C68.5039 18.7232 68.5041 18.7527 68.5101 18.7814C68.5161 18.8101 68.5276 18.8373 68.5441 18.8615C68.5605 18.8857 68.5816 18.9064 68.6061 18.9225C68.6305 18.9385 68.6579 18.9496 68.6867 18.9551C68.7155 18.9605 68.745 18.9603 68.7737 18.9543C68.8023 18.9484 68.8295 18.9368 68.8537 18.9204L68.859 18.9166L68.875 18.9064Z" fill="#0C0C0C"/>
<path d="M62.7005 19.7596C61.9331 19.6072 61.1388 19.6634 60.4004 19.9223C60.0355 20.048 59.6914 20.2278 59.3799 20.4556C59.0696 20.6805 58.7888 20.9435 58.5441 21.2385C58.5183 21.2677 58.505 21.3059 58.507 21.3448C58.5091 21.3838 58.5264 21.4203 58.5552 21.4466C58.584 21.4729 58.622 21.4867 58.661 21.4852C58.6999 21.4837 58.7367 21.467 58.7634 21.4386L58.7713 21.4304C59.0073 21.1646 59.2757 20.9295 59.5703 20.7306C59.8618 20.5317 60.1817 20.3781 60.5191 20.2748C61.1889 20.0647 61.9024 20.0356 62.5871 20.1905L62.604 20.1946C62.6614 20.2085 62.722 20.1991 62.7725 20.1683C62.8229 20.1376 62.8591 20.088 62.873 20.0306C62.8869 19.9732 62.8775 19.9126 62.8467 19.8621C62.8159 19.8117 62.7664 19.7755 62.709 19.7616L62.7005 19.7596Z" fill="#0C0C0C"/>
<path d="M49.6083 24.5851C54.151 22.8939 55.6585 19.7569 56.1227 17.4224C56.4232 15.8655 56.3951 14.263 56.0402 12.7176L55.8997 12.7561C56.2492 14.2814 56.2762 15.863 55.979 17.3994C55.5206 19.6957 54.0346 22.7825 49.5572 24.4487L49.6083 24.5851Z" fill="#0C0C0C"/>
<path d="M91.6776 56.2003L110.257 105.6L94.8371 101.238L129.906 75.0822L142.399 92.1661L106.845 117.658C105.611 118.541 104.195 119.14 102.701 119.41C101.208 119.68 99.6725 119.615 98.2068 119.219C96.7411 118.824 95.3815 118.108 94.226 117.124C93.0706 116.139 92.1481 114.91 91.5252 113.526L91.4257 113.296L70.084 65.0254L91.6776 56.2003Z" fill="#367CFF"/>
<path d="M58.3578 56.7567C48.4168 56.2881 47.9983 47.8503 47.9983 47.8503C47.9983 47.8503 43.0727 48.1687 39.7984 48.6116C34.4378 49.3371 30.9013 51.1549 28.0869 53.9691C25.4689 56.587 23.8751 59.4196 25.5617 77.5039C26.7829 90.5982 25.9232 119.4 25.9232 119.4H85.9187C85.9187 119.4 89.5164 81.6486 90.0179 75.7544C90.9749 64.5017 94.8945 58.1596 89.4161 52.3633C85.4431 48.1597 75.1863 47.8503 71.0579 47.8512C70.9908 47.8506 71.8959 57.3947 58.3578 56.7567Z" fill="#367CFF"/>
<path d="M116.031 58.636C112.302 52.3376 103.862 51.5812 97.5638 55.3119L97.1646 55.5597L96.8969 55.1284C93.042 48.9061 85.1836 45.6607 78.9613 49.5156C75.9733 51.3668 73.8431 54.3291 73.0392 57.7509C72.2354 61.1727 72.8237 64.7737 74.6748 67.7618L87.4807 87.9917C87.8961 88.6479 88.5529 89.1145 89.3093 89.2906C90.0658 89.4668 90.8611 89.3384 91.5237 88.9332L111.848 76.5032C114.716 74.64 116.752 71.7405 117.532 68.4106C118.311 65.0808 117.773 61.5785 116.031 58.636Z" fill="#367CFF"/>
<path opacity="0.6" d="M116.031 58.636C112.302 52.3376 103.862 51.5812 97.5638 55.3119L97.1646 55.5597L96.8969 55.1284C93.042 48.9061 85.1836 45.6607 78.9613 49.5156C75.9733 51.3668 73.8431 54.3291 73.0392 57.7509C72.2354 61.1727 72.8237 64.7737 74.6748 67.7618L87.4807 87.9917C87.8961 88.6479 88.5529 89.1145 89.3093 89.2906C90.0658 89.4668 90.8611 89.3384 91.5237 88.9332L111.848 76.5032C114.716 74.64 116.752 71.7405 117.532 68.4106C118.311 65.0808 117.773 61.5785 116.031 58.636Z" fill="white"/>
<path d="M94.5595 71.6618C87.9473 67.6766 79.7311 71.1932 75.7458 77.8054L75.4989 78.2352L75.0346 77.9684C68.3437 74.1164 59.4224 75.0312 55.5708 81.7221C53.7209 84.9351 53.2232 88.7513 54.187 92.3313C55.1509 95.9113 57.4974 98.9617 60.7104 100.812L82.7179 113.198C83.4318 113.6 84.2751 113.705 85.0658 113.491C85.8564 113.276 86.5309 112.759 86.9436 112.051L99.6046 90.3466C101.337 87.1828 101.779 83.472 100.839 79.9899C99.8983 76.5077 97.6485 73.5238 94.5595 71.6618Z" fill="#367CFF"/>
<path opacity="0.5" d="M94.5595 71.6618C87.9473 67.6766 79.7311 71.1932 75.7458 77.8054L75.4989 78.2352L75.0346 77.9684C68.3437 74.1164 59.4224 75.0312 55.5708 81.7221C53.7209 84.9351 53.2232 88.7513 54.187 92.3313C55.1509 95.9113 57.4974 98.9617 60.7104 100.812L82.7179 113.198C83.4318 113.6 84.2751 113.705 85.0658 113.491C85.8564 113.276 86.5309 112.759 86.9436 112.051L99.6046 90.3466C101.337 87.1828 101.779 83.472 100.839 79.9899C99.8983 76.5077 97.6485 73.5238 94.5595 71.6618Z" fill="white"/>
<path d="M88.7941 81.0377C88.7965 80.9991 88.8142 80.963 88.8433 80.9373C88.8723 80.9117 88.9104 80.8987 88.9491 80.9011C88.9877 80.9036 89.0239 80.9213 89.0495 80.9503C89.0751 80.9794 89.0881 81.0174 89.0857 81.0561L87.8654 100.542C87.8632 100.577 87.8485 100.61 87.8239 100.635C87.7993 100.66 87.7665 100.675 87.7315 100.678C87.7248 100.678 87.7178 100.678 87.7108 100.678C87.6722 100.676 87.6362 100.658 87.6106 100.629C87.585 100.6 87.572 100.562 87.5743 100.523" fill="#0C0C0C"/>
<path d="M134.275 79.2887C134.29 79.0746 134.349 78.8659 134.448 78.6752C134.546 78.4846 134.683 78.316 134.849 78.1798C135.015 78.0437 135.207 77.9428 135.413 77.8833C135.619 77.8237 135.835 77.8069 136.048 77.8337C136.459 77.8998 136.829 78.1194 137.084 78.4479C137.338 78.7764 137.459 79.1894 137.421 79.6034L137.269 81.732L140.393 75.9981C140.777 75.2691 141.714 74.6194 142.504 75.1038C143.168 75.4537 144.42 75.2633 144.881 76.1404C144.889 76.1433 147.301 84.6841 146.945 85.3618C145.436 88.2316 140.36 90.1439 137.133 89.8231L132.054 89.3143L134.275 79.2887Z" fill="#E98862"/>
<g opacity="0.1">
<path d="M134.275 79.2887C134.29 79.0746 134.349 78.8659 134.448 78.6752C134.546 78.4846 134.683 78.316 134.849 78.1798C135.015 78.0437 135.207 77.9428 135.413 77.8833C135.619 77.8237 135.835 77.8069 136.048 77.8337C136.459 77.8998 136.829 78.1194 137.084 78.4479C137.338 78.7764 137.459 79.1894 137.421 79.6034L137.269 81.732L140.393 75.9981C140.777 75.2691 141.714 74.6194 142.504 75.1038C143.168 75.4537 144.42 75.2633 144.881 76.1404C144.889 76.1433 147.301 84.6841 146.945 85.3618C145.436 88.2316 140.36 90.1439 137.133 89.8231L132.054 89.3143L134.275 79.2887Z" fill="#0C0C0C"/>
</g>
<path d="M139.836 72.7976C134.004 65.4203 123.128 65.9081 115.75 71.7403L115.284 72.1246L114.869 71.6213C108.891 64.3606 98.3248 61.5814 91.065 67.5606C89.3387 68.9823 87.9094 70.7301 86.8586 72.7042C85.8078 74.6783 85.1562 76.84 84.9409 79.066C84.7256 81.292 84.9508 83.5385 85.6037 85.6774C86.2567 87.8163 87.3245 89.8057 88.7463 91.5319L108.532 115.088C109.174 115.852 110.09 116.333 111.084 116.427C112.077 116.522 113.068 116.221 113.842 115.591L137.582 96.2668C140.913 93.4014 143.007 89.3593 143.427 84.9855C143.847 80.6117 142.561 76.2448 139.836 72.7976Z" fill="#0CBC8B"/>
<path d="M140.099 83.4049C140.098 83.1228 140.19 82.8482 140.36 82.6231C140.53 82.3979 140.769 82.2345 141.04 82.1577C141.031 82.137 140.993 82.0936 141.03 82.079L139.966 81.8906C139.651 81.8419 139.365 81.6811 139.16 81.4378C138.955 81.1945 138.845 80.8852 138.85 80.5671C138.866 80.2531 138.997 79.9561 139.219 79.7335C139.441 79.511 139.738 79.3787 140.052 79.3625C140.044 79.3523 140.047 79.338 140.043 79.3258L139.605 79.2482C139.309 79.2011 139.039 79.0531 138.839 78.8294C138.64 78.6056 138.524 78.3198 138.511 78.0203C138.506 77.8323 138.544 77.6457 138.62 77.474C138.697 77.3022 138.811 77.1496 138.953 77.0271C139.096 76.9046 139.264 76.8153 139.445 76.7656C139.627 76.716 139.817 76.7072 140.002 76.7399L141.01 76.9187C141.01 76.9131 141.006 76.909 141.007 76.9035C141.007 76.8979 141.015 76.8924 141.017 76.886C140.752 76.7746 140.532 76.5764 140.395 76.3239C140.257 76.0714 140.209 75.7795 140.259 75.4963C140.34 74.7568 141.214 74.4815 141.866 74.597L143.891 75.1219C144.203 75.2027 144.491 75.3595 144.728 75.5782C144.966 75.7969 145.145 76.0709 145.251 76.3757C146.168 79.0143 148.397 85.9636 146.316 85.595L141.194 84.6876C140.895 84.6258 140.625 84.4662 140.427 84.2339C140.228 84.0017 140.113 83.71 140.099 83.4049Z" fill="#E98862"/>
<path d="M78.2436 93.25L86.1989 87.2119C86.3737 87.0793 86.5743 86.9845 86.7877 86.9336C87.0012 86.8827 87.2229 86.8768 87.4388 86.9163C87.6547 86.9558 87.86 87.0399 88.0416 87.163C88.2232 87.2862 88.3772 87.4459 88.4937 87.6318C88.6982 87.9818 88.7655 88.3952 88.6824 88.7919C88.5994 89.1885 88.372 89.5403 88.0444 89.7788L86.3386 91.0735L93.5718 89.4645C94.3729 89.2718 95.4794 89.5473 95.6366 90.46C95.72 90.8074 95.6832 91.1727 95.5323 91.4965C95.3814 91.8203 95.1252 92.0833 94.8056 92.2428C94.8093 92.2498 94.8123 92.2573 94.8143 92.265C94.8148 92.2711 94.8148 92.2772 94.8143 92.2833L96.0495 91.9859C96.2784 91.9309 96.5166 91.9276 96.7469 91.9764C96.9771 92.0251 97.1936 92.1246 97.3805 92.2676C97.5675 92.4106 97.7201 92.5935 97.8274 92.803C97.9347 93.0125 97.9938 93.2433 98.0006 93.4786C98.0037 93.8493 97.8795 94.2098 97.6487 94.4999C97.4178 94.79 97.0944 94.992 96.7324 95.0721L96.2076 95.199C96.2043 95.2158 96.198 95.232 96.1889 95.2465C96.5638 95.2434 96.9275 95.3736 97.2152 95.614C97.5028 95.8544 97.6956 96.1892 97.7591 96.5587C97.8166 96.9651 97.7187 97.3783 97.4849 97.7158C97.2512 98.0532 96.8987 98.2901 96.498 98.3791L95.1925 98.6935C95.2141 98.7021 95.2332 98.7157 95.2484 98.7332C95.2637 98.7507 95.2745 98.7715 95.28 98.7941C95.2855 98.8211 95.2828 98.8492 95.2724 98.8748C95.6071 98.9648 95.903 99.1622 96.1146 99.4368C96.3262 99.7113 96.4417 100.048 96.4435 100.394C96.4378 100.758 96.3094 101.11 96.0791 101.392C95.8488 101.674 95.5301 101.87 95.1744 101.949L84.1577 104.602C82.6166 104.973 80.9996 104.876 79.5143 104.322C78.0289 103.768 76.7428 102.783 75.8208 101.494C75.0257 100.382 74.6956 99.0036 74.9004 97.6522C75.1052 96.3007 75.829 95.0824 76.9178 94.256L78.2436 93.25Z" fill="#E98862"/>
<g opacity="0.2">
<path d="M87.6537 93.8711C87.6628 93.908 87.686 93.9399 87.7184 93.96C87.7508 93.98 87.7897 93.9866 87.8269 93.9784L94.7038 92.4393C94.7416 92.4309 94.7745 92.4077 94.7952 92.375C94.8159 92.3423 94.8228 92.3027 94.8143 92.265C94.8059 92.2272 94.7827 92.1943 94.75 92.1736C94.7173 92.1529 94.6777 92.146 94.64 92.1544L87.763 93.6935C87.7443 93.6977 87.7265 93.7055 87.7108 93.7166C87.6951 93.7277 87.6818 93.7418 87.6715 93.758C87.6613 93.7743 87.6543 93.7924 87.6511 93.8114C87.6479 93.8303 87.6485 93.8497 87.6528 93.8684L87.6537 93.8711Z" fill="#0C0C0C"/>
</g>
<g opacity="0.2">
<path d="M88.2488 96.9229C88.258 96.9599 88.2813 96.9918 88.3137 97.0118C88.3462 97.0318 88.3851 97.0383 88.4223 97.0299L96.0968 95.3124C96.1155 95.3083 96.1333 95.3004 96.149 95.2893C96.1648 95.2783 96.1782 95.2642 96.1884 95.248C96.1987 95.2317 96.2057 95.2135 96.2089 95.1946C96.2121 95.1756 96.2116 95.1562 96.2073 95.1375C96.1977 95.1003 96.1742 95.0681 96.1417 95.0476C96.1091 95.0271 96.07 95.0199 96.0323 95.0272L88.3576 96.7447C88.3388 96.7489 88.3211 96.7568 88.3054 96.7679C88.2897 96.779 88.2763 96.793 88.2661 96.8093C88.2558 96.8255 88.2489 96.8437 88.2457 96.8626C88.2425 96.8816 88.243 96.901 88.2473 96.9197L88.2488 96.9229Z" fill="#0C0C0C"/>
</g>
<g opacity="0.2">
<path d="M88.8743 100.232C88.8835 100.269 88.9068 100.3 88.9392 100.32C88.9716 100.34 89.0106 100.347 89.0478 100.339L95.1712 98.9681C95.209 98.9596 95.2418 98.9365 95.2625 98.9039C95.2832 98.8712 95.2901 98.8316 95.2816 98.7939C95.2731 98.7561 95.25 98.7233 95.2174 98.7026C95.1847 98.6819 95.1451 98.675 95.1074 98.6835L88.9839 100.054C88.9652 100.058 88.9474 100.066 88.9317 100.077C88.916 100.088 88.9027 100.102 88.8924 100.119C88.8822 100.135 88.8752 100.153 88.872 100.172C88.8688 100.191 88.8694 100.21 88.8737 100.229L88.8743 100.232Z" fill="#0C0C0C"/>
</g>
<path d="M81.6597 107.697L31.1011 119.19C29.4215 119.373 27.7224 119.164 26.1371 118.58C24.5518 117.995 23.1234 117.052 21.9641 115.823C20.8047 114.594 19.9459 113.113 19.455 111.497C18.964 109.88 18.8544 108.172 19.1346 106.506L24.9204 59.9672C25.4016 57.1073 26.9991 54.5556 29.3616 52.8736C31.7241 51.1915 34.658 50.5169 37.5179 50.998C40.3778 51.4792 42.9294 53.0767 44.6115 55.4392C46.2935 57.8016 46.9682 60.7356 46.487 63.5955L43.7008 96.9057L78.8274 88.9565L81.6597 107.697Z" fill="#367CFF"/>
<path d="M36.5926 98.2143C36.554 98.2172 36.5158 98.2045 36.4864 98.1792C36.4571 98.1538 36.439 98.1179 36.4362 98.0792C36.4334 98.0405 36.446 98.0023 36.4714 97.973C36.4967 97.9436 36.5327 97.9256 36.5714 97.9227L43.6166 96.4187C43.6355 96.4156 43.6549 96.4163 43.6736 96.4208C43.6923 96.4253 43.7098 96.4335 43.7253 96.4449C43.7407 96.4563 43.7537 96.4707 43.7635 96.4873C43.7733 96.5038 43.7796 96.5221 43.7822 96.5412C43.7879 96.5794 43.7782 96.6183 43.7552 96.6493C43.7322 96.6804 43.6979 96.701 43.6597 96.7068L36.6145 98.2111C36.6073 98.2128 36.6 98.2139 36.5926 98.2143Z" fill="#0C0C0C"/>
<path d="M32.6179 119.4C32.5793 119.402 32.5412 119.389 32.5121 119.364C32.483 119.338 32.4652 119.302 32.4627 119.263C32.4602 119.225 32.4731 119.187 32.4987 119.158C32.5242 119.129 32.5603 119.111 32.599 119.108L81.3424 107.628L78.5804 89.17L43.6635 96.7089C43.6409 96.7119 43.6179 96.7095 43.5963 96.702C43.5747 96.6945 43.5552 96.682 43.5394 96.6656C43.5235 96.6492 43.5117 96.6293 43.505 96.6074C43.4982 96.5856 43.4967 96.5625 43.5005 96.54L45.4592 77.5077C45.462 77.4887 45.4687 77.4704 45.4788 77.4541C45.4889 77.4377 45.5021 77.4235 45.5178 77.4123C45.5335 77.4012 45.5512 77.3933 45.57 77.3891C45.5888 77.385 45.6082 77.3846 45.6271 77.3881C45.6652 77.3946 45.6993 77.4159 45.7217 77.4474C45.7441 77.4789 45.7531 77.518 45.7467 77.5561L43.8221 96.3931L78.6484 88.8495C78.6671 88.8444 78.6867 88.843 78.706 88.8455C78.7253 88.848 78.7438 88.8543 78.7606 88.8641C78.7774 88.874 78.792 88.8871 78.8037 88.9027C78.8153 88.9182 78.8238 88.9359 78.8286 88.9548L81.6608 107.696C81.6698 107.733 81.664 107.772 81.6448 107.805C81.6256 107.837 81.5944 107.861 81.5579 107.871L32.6369 119.399C32.6306 119.399 32.6243 119.4 32.6179 119.4Z" fill="#0C0C0C"/>
<path d="M144.413 34.5058C142.488 31.2542 138.131 30.8638 134.879 32.7889L134.673 32.9169L134.535 32.6941C132.545 29.4819 128.488 27.8067 125.276 29.7965C123.734 30.7522 122.634 32.2813 122.219 34.0475C121.804 35.8138 122.108 37.6726 123.063 39.215L129.674 49.6585C129.889 49.9972 130.228 50.2381 130.618 50.329C131.009 50.42 131.419 50.3537 131.761 50.1445L142.253 43.7277C143.733 42.766 144.784 41.2694 145.186 39.5509C145.589 37.8323 145.312 36.0247 144.413 34.5058Z" fill="#0CBC8B"/>
<path opacity="0.2" d="M144.413 34.5058C142.488 31.2542 138.131 30.8638 134.879 32.7889L134.673 32.9169L134.535 32.6941C132.545 29.4819 128.488 27.8067 125.276 29.7965C123.734 30.7522 122.634 32.2813 122.219 34.0475C121.804 35.8138 122.108 37.6726 123.063 39.215L129.674 49.6585C129.889 49.9972 130.228 50.2381 130.618 50.329C131.009 50.42 131.419 50.3537 131.761 50.1445L142.253 43.7277C143.733 42.766 144.784 41.2694 145.186 39.5509C145.589 37.8323 145.312 36.0247 144.413 34.5058Z" fill="white"/>
<path d="M115.68 3.83912C113.932 2.81591 111.788 3.76622 110.765 5.51432L110.702 5.62775L110.579 5.55952C108.811 4.5716 106.474 4.84162 105.486 6.60926C105.251 7.02975 105.101 7.49242 105.045 7.97085C104.989 8.44928 105.027 8.93409 105.158 9.39759C105.29 9.86109 105.511 10.2942 105.809 10.6722C106.108 11.0502 106.478 11.3656 106.899 11.6005L112.714 14.7756C112.903 14.8786 113.124 14.9033 113.331 14.8443C113.538 14.7854 113.713 14.6475 113.819 14.4604L117.067 8.72361C117.511 7.88778 117.614 6.91283 117.356 6.00255C117.097 5.09226 116.497 4.31711 115.68 3.83912Z" fill="#367CFF"/>
<path opacity="0.5" d="M115.68 3.83912C113.932 2.81591 111.788 3.76622 110.765 5.51432L110.702 5.62775L110.579 5.55952C108.811 4.5716 106.474 4.84162 105.486 6.60926C105.251 7.02975 105.101 7.49242 105.045 7.97085C104.989 8.44928 105.027 8.93409 105.158 9.39759C105.29 9.86109 105.511 10.2942 105.809 10.6722C106.108 11.0502 106.478 11.3656 106.899 11.6005L112.714 14.7756C112.903 14.8786 113.124 14.9033 113.331 14.8443C113.538 14.7854 113.713 14.6475 113.819 14.4604L117.067 8.72361C117.511 7.88778 117.614 6.91283 117.356 6.00255C117.097 5.09226 116.497 4.31711 115.68 3.83912Z" fill="white"/>
<path d="M143.36 119.691H14.7097C14.6324 119.691 14.5582 119.661 14.5035 119.606C14.4488 119.551 14.4181 119.477 14.4181 119.4C14.4181 119.322 14.4488 119.248 14.5035 119.194C14.5582 119.139 14.6324 119.108 14.7097 119.108H143.361C143.438 119.108 143.512 119.139 143.567 119.194C143.622 119.248 143.653 119.322 143.653 119.4C143.653 119.477 143.622 119.551 143.567 119.606C143.512 119.661 143.438 119.691 143.361 119.691H143.36Z" fill="#292A2E"/>
</svg>
